%TF.GenerationSoftware,Altium Limited,Altium Designer,24.0.1 (36)*%
G04 Layer_Color=16777215*
%FSLAX45Y45*%
%MOMM*%
%TF.SameCoordinates,30B9EBA5-48D0-47E5-9341-C4D43BC7BEBE*%
%TF.FilePolarity,Positive*%
%TF.FileFunction,Legend,Top*%
%TF.Part,Single*%
G01*
G75*
%TA.AperFunction,NonConductor*%
%ADD16C,0.20000*%
%ADD17C,1.27000*%
%ADD18C,0.25400*%
%ADD19C,0.50800*%
%ADD20C,1.01600*%
%ADD21C,3.17500*%
%ADD22C,0.15240*%
%ADD23C,0.20320*%
D16*
X7187000Y0D02*
G03*
X7187000Y0I-10000J0D01*
G01*
X1091000Y-2540000D02*
G03*
X1091000Y-2540000I-10000J0D01*
G01*
Y2540000D02*
G03*
X1091000Y2540000I-10000J0D01*
G01*
Y381000D02*
G03*
X1091000Y381000I-10000J0D01*
G01*
Y-381000D02*
G03*
X1091000Y-381000I-10000J0D01*
G01*
X7112000Y-127000D02*
Y127000D01*
X5588000Y-127000D02*
Y127000D01*
Y-127000D02*
X7112000D01*
X5588000Y127000D02*
X7112000D01*
X-1016000Y-2413000D02*
X1016000D01*
X-1016000Y-2667000D02*
X1016000D01*
X-1016000D02*
Y-2413000D01*
X1016000Y-2667000D02*
Y-2413000D01*
X-1016000Y2667000D02*
X1016000D01*
X-1016000Y2413000D02*
X1016000D01*
X-1016000D02*
Y2667000D01*
X1016000Y2413000D02*
Y2667000D01*
X-1016000Y508000D02*
X1016000D01*
X-1016000Y254000D02*
X1016000D01*
X-1016000D02*
Y508000D01*
X1016000Y254000D02*
Y508000D01*
X-1016000Y-254000D02*
X1016000D01*
X-1016000Y-508000D02*
X1016000D01*
X-1016000D02*
Y-254000D01*
X1016000Y-508000D02*
Y-254000D01*
D17*
X254000Y-4953000D02*
G03*
X254000Y-4953000I-254000J0D01*
G01*
X1714500D02*
G03*
X1714500Y-4953000I-254000J0D01*
G01*
X3180174Y-4958174D02*
G03*
X3180174Y-4958174I-254000J0D01*
G01*
X4640674D02*
G03*
X4640674Y-4958174I-254000J0D01*
G01*
X6101174D02*
G03*
X6101174Y-4958174I-254000J0D01*
G01*
X-5584278Y-4975151D02*
G03*
X-5584278Y-4975151I-254000J0D01*
G01*
X-4123778D02*
G03*
X-4123778Y-4975151I-254000J0D01*
G01*
X-2663278D02*
G03*
X-2663278Y-4975151I-254000J0D01*
G01*
X-1197604Y-4969976D02*
G03*
X-1197604Y-4969976I-254000J0D01*
G01*
Y4969976D02*
G03*
X-1197604Y4969976I-254000J0D01*
G01*
X-2663278Y4975151D02*
G03*
X-2663278Y4975151I-254000J0D01*
G01*
X-4123778D02*
G03*
X-4123778Y4975151I-254000J0D01*
G01*
X-5584278D02*
G03*
X-5584278Y4975151I-254000J0D01*
G01*
X6101174Y4958174D02*
G03*
X6101174Y4958174I-254000J0D01*
G01*
X4640674D02*
G03*
X4640674Y4958174I-254000J0D01*
G01*
X3180174D02*
G03*
X3180174Y4958174I-254000J0D01*
G01*
X1714500Y4953000D02*
G03*
X1714500Y4953000I-254000J0D01*
G01*
X254000D02*
G03*
X254000Y4953000I-254000J0D01*
G01*
X0Y-5905500D02*
Y-5270500D01*
X-127000Y-4826000D02*
X127000Y-5080000D01*
X-129549Y-5072200D02*
X124451Y-4818200D01*
X1330951Y-5072200D02*
X1584951Y-4818200D01*
X1333500Y-4826000D02*
X1587500Y-5080000D01*
X1460500Y-4699000D02*
Y-4254500D01*
X317500Y-4953000D02*
X1206500D01*
X1783174Y-4958174D02*
X2672174D01*
X2926174Y-4704174D02*
Y-4254500D01*
X2799174Y-4831174D02*
X3053174Y-5085174D01*
X2796625Y-5077375D02*
X3050625Y-4823375D01*
X3243674Y-4958174D02*
X4132674D01*
X4386674Y-4704174D02*
Y-4254500D01*
X4259674Y-4831174D02*
X4513674Y-5085174D01*
X4257125Y-5077375D02*
X4511125Y-4823375D01*
X4704174Y-4958174D02*
X5593174D01*
X5847174Y-4704174D02*
Y-4254500D01*
X5720174Y-4831174D02*
X5974174Y-5085174D01*
X5717625Y-5077375D02*
X5971625Y-4823375D01*
X-5962729Y-4840351D02*
X-5708729Y-5094351D01*
X-5965278Y-5102151D02*
X-5711278Y-4848151D01*
X-5838278Y-4721151D02*
Y-4254500D01*
X-5584278Y-4975151D02*
X-4695278D01*
X-4502229Y-4840351D02*
X-4248229Y-5094351D01*
X-4504778Y-5102151D02*
X-4250778Y-4848151D01*
X-4377778Y-4721151D02*
Y-4254500D01*
X-4123778Y-4975151D02*
X-3234778D01*
X-3041729Y-4840351D02*
X-2787729Y-5094351D01*
X-3044278Y-5102151D02*
X-2790278Y-4848151D01*
X-2917278Y-4721151D02*
Y-4254500D01*
X-2663278Y-4975151D02*
X-1774278D01*
X-1197604Y-4969976D02*
X-308604D01*
X-1451604Y-4715976D02*
Y-4254500D01*
X-1578604Y-5096976D02*
X-1324604Y-4842976D01*
X-1576055Y-4835177D02*
X-1322055Y-5089177D01*
X-1576055Y4835177D02*
X-1322055Y5089177D01*
X-1578604Y5096976D02*
X-1324604Y4842976D01*
X-1451604Y4254500D02*
Y4715976D01*
X-1197604Y4969976D02*
X-308604D01*
X-2663278Y4975151D02*
X-1774278D01*
X-2917278Y4254500D02*
Y4721151D01*
X-3044278Y5102151D02*
X-2790278Y4848151D01*
X-3041729Y4840351D02*
X-2787729Y5094351D01*
X-4123778Y4975151D02*
X-3234778D01*
X-4377778Y4254500D02*
Y4721151D01*
X-4504778Y5102151D02*
X-4250778Y4848151D01*
X-4502229Y4840351D02*
X-4248229Y5094351D01*
X-5584278Y4975151D02*
X-4695278D01*
X-5838278Y4254500D02*
Y4721151D01*
X-5965278Y5102151D02*
X-5711278Y4848151D01*
X-5962729Y4840351D02*
X-5708729Y5094351D01*
X5717625Y5077375D02*
X5971625Y4823375D01*
X5720174Y4831174D02*
X5974174Y5085174D01*
X5847174Y4254500D02*
Y4704174D01*
X4704174Y4958174D02*
X5593174D01*
X4257125Y5077375D02*
X4511125Y4823375D01*
X4259674Y4831174D02*
X4513674Y5085174D01*
X4386674Y4254500D02*
Y4704174D01*
X3243674Y4958174D02*
X4132674D01*
X2796625Y5077375D02*
X3050625Y4823375D01*
X2799174Y4831174D02*
X3053174Y5085174D01*
X2926174Y4254500D02*
Y4704174D01*
X1783174Y4958174D02*
X2672174D01*
X317500Y4953000D02*
X1206500D01*
X1460500Y4254500D02*
Y4699000D01*
X1333500Y4826000D02*
X1587500Y5080000D01*
X1330951Y5072200D02*
X1584951Y4818200D01*
X-129549Y5072200D02*
X124451Y4818200D01*
X-127000Y4826000D02*
X127000Y5080000D01*
X0Y5270500D02*
Y5905500D01*
X1079500Y0D02*
X2159000D01*
X1079500D02*
X1333500Y-254000D01*
X1079500Y0D02*
X1333500Y254000D01*
X-1333500D02*
X-1079500Y0D01*
X-1333500Y-254000D02*
X-1079500Y0D01*
X-1778000D02*
X-1079500D01*
X-5588000Y-317500D02*
Y317295D01*
X-5164803Y-317500D01*
Y317295D01*
X-4530009D02*
X-4953205D01*
Y-317500D01*
X-4530009D01*
X-4953205Y-103D02*
X-4741607D01*
X-4318410Y317295D02*
Y-211701D01*
X-4212611Y-317500D01*
X-4001013D01*
X-3895214Y-211701D01*
Y317295D01*
X-3683616Y-317500D02*
Y317295D01*
X-3366218D01*
X-3260419Y211496D01*
Y-103D01*
X-3366218Y-105902D01*
X-3683616D01*
X-3472017D02*
X-3260419Y-317500D01*
X-3048821D02*
Y105697D01*
X-2837223Y317295D01*
X-2625624Y105697D01*
Y-317500D01*
Y-103D01*
X-3048821D01*
X-2414026Y317295D02*
Y-317500D01*
X-1990830D01*
X889000Y6604000D02*
Y7027197D01*
X1100598Y7238795D01*
X1312197Y7027197D01*
Y6604000D01*
Y6921397D01*
X889000D01*
X1523795Y7238795D02*
Y6709799D01*
X1629594Y6604000D01*
X1841192D01*
X1946991Y6709799D01*
Y7238795D01*
X2158590D02*
Y6604000D01*
X2475987D01*
X2581786Y6709799D01*
Y7132996D01*
X2475987Y7238795D01*
X2158590D01*
X2793384D02*
X3004983D01*
X2899183D01*
Y6604000D01*
X2793384D01*
X3004983D01*
X3639777Y7238795D02*
X3428179D01*
X3322380Y7132996D01*
Y6709799D01*
X3428179Y6604000D01*
X3639777D01*
X3745576Y6709799D01*
Y7132996D01*
X3639777Y7238795D01*
X4591969D02*
X4803568D01*
X4697769D01*
Y6604000D01*
X4591969D01*
X4803568D01*
X5120965D02*
Y7238795D01*
X5544162Y6604000D01*
Y7238795D01*
X825500Y-7302500D02*
Y-6879303D01*
X1037098Y-6667705D01*
X1248697Y-6879303D01*
Y-7302500D01*
Y-6985103D01*
X825500D01*
X1460295Y-6667705D02*
Y-7196701D01*
X1566094Y-7302500D01*
X1777692D01*
X1883491Y-7196701D01*
Y-6667705D01*
X2095090D02*
Y-7302500D01*
X2412487D01*
X2518286Y-7196701D01*
Y-6773504D01*
X2412487Y-6667705D01*
X2095090D01*
X2729884D02*
X2941483D01*
X2835683D01*
Y-7302500D01*
X2729884D01*
X2941483D01*
X3576277Y-6667705D02*
X3364679D01*
X3258880Y-6773504D01*
Y-7196701D01*
X3364679Y-7302500D01*
X3576277D01*
X3682076Y-7196701D01*
Y-6773504D01*
X3576277Y-6667705D01*
X4845867D02*
X4634269D01*
X4528469Y-6773504D01*
Y-7196701D01*
X4634269Y-7302500D01*
X4845867D01*
X4951666Y-7196701D01*
Y-6773504D01*
X4845867Y-6667705D01*
X5163264D02*
Y-7196701D01*
X5269063Y-7302500D01*
X5480662D01*
X5586461Y-7196701D01*
Y-6667705D01*
X5798059D02*
X6221256D01*
X6009657D01*
Y-7302500D01*
X2476500Y-317500D02*
Y317295D01*
X2899697Y-317500D01*
Y317295D01*
X3534491D02*
X3111295D01*
Y-317500D01*
X3534491D01*
X3111295Y-103D02*
X3322893D01*
X3746090Y317295D02*
X4169286D01*
X3957688D01*
Y-317500D01*
D18*
X5029076Y3556000D02*
G03*
X5029076Y3556000I-647576J0D01*
G01*
X3568576D02*
G03*
X3568576Y3556000I-647576J0D01*
G01*
X2108076D02*
G03*
X2108076Y3556000I-647576J0D01*
G01*
X-812924D02*
G03*
X-812924Y3556000I-647576J0D01*
G01*
X-2273424D02*
G03*
X-2273424Y3556000I-647576J0D01*
G01*
X-3733924D02*
G03*
X-3733924Y3556000I-647576J0D01*
G01*
X-5194424D02*
G03*
X-5194424Y3556000I-647576J0D01*
G01*
X6489576Y-3556000D02*
G03*
X6489576Y-3556000I-647576J0D01*
G01*
X5029076D02*
G03*
X5029076Y-3556000I-647576J0D01*
G01*
X3568576D02*
G03*
X3568576Y-3556000I-647576J0D01*
G01*
X2108076D02*
G03*
X2108076Y-3556000I-647576J0D01*
G01*
X-812924D02*
G03*
X-812924Y-3556000I-647576J0D01*
G01*
X-2273424D02*
G03*
X-2273424Y-3556000I-647576J0D01*
G01*
X-3733924D02*
G03*
X-3733924Y-3556000I-647576J0D01*
G01*
X-5194424D02*
G03*
X-5194424Y-3556000I-647576J0D01*
G01*
X6489576Y3556000D02*
G03*
X6489576Y3556000I-647576J0D01*
G01*
X5524500Y-3492500D02*
X5651500Y-3619500D01*
X5524500Y-3492500D02*
X5651500Y-3365500D01*
X5524500Y-3492500D02*
X6159500D01*
X4064000D02*
X4191000Y-3619500D01*
X4064000Y-3492500D02*
X4191000Y-3365500D01*
X4064000Y-3492500D02*
X4699000D01*
X2603500D02*
X2730500Y-3619500D01*
X2603500Y-3492500D02*
X2730500Y-3365500D01*
X2603500Y-3492500D02*
X3238500D01*
X1143000D02*
X1270000Y-3619500D01*
X1143000Y-3492500D02*
X1270000Y-3365500D01*
X1143000Y-3492500D02*
X1778000D01*
X-1778000Y-3556000D02*
X-1651000Y-3683000D01*
X-1778000Y-3556000D02*
X-1651000Y-3429000D01*
X-1778000Y-3556000D02*
X-1143000D01*
X-3238500D02*
X-3111500Y-3683000D01*
X-3238500Y-3556000D02*
X-3111500Y-3429000D01*
X-3238500Y-3556000D02*
X-2603500D01*
X-4699000D02*
X-4572000Y-3683000D01*
X-4699000Y-3556000D02*
X-4572000Y-3429000D01*
X-4699000Y-3556000D02*
X-4064000D01*
X-6159500D02*
X-5524500D01*
X-6159500D02*
X-6032500Y-3429000D01*
X-6159500Y-3556000D02*
X-6032500Y-3683000D01*
X-6159500Y3556000D02*
X-5524500D01*
X-6159500D02*
X-6032500Y3683000D01*
X-6159500Y3556000D02*
X-6032500Y3429000D01*
X-4699000Y3556000D02*
X-4064000D01*
X-4699000D02*
X-4572000Y3683000D01*
X-4699000Y3556000D02*
X-4572000Y3429000D01*
X-3238500Y3556000D02*
X-2603500D01*
X-3238500D02*
X-3111500Y3683000D01*
X-3238500Y3556000D02*
X-3111500Y3429000D01*
X-1778000Y3556000D02*
X-1143000D01*
X-1778000D02*
X-1651000Y3683000D01*
X-1778000Y3556000D02*
X-1651000Y3429000D01*
X1143000Y3556000D02*
X1778000D01*
X1143000D02*
X1270000Y3683000D01*
X1143000Y3556000D02*
X1270000Y3429000D01*
X2603500Y3556000D02*
X3238500D01*
X2603500D02*
X2730500Y3683000D01*
X2603500Y3556000D02*
X2730500Y3429000D01*
X4064000Y3556000D02*
X4699000D01*
X4064000D02*
X4191000Y3683000D01*
X4064000Y3556000D02*
X4191000Y3429000D01*
X-5270500Y1651000D02*
Y1905000D01*
X-6413500Y1651000D02*
X-5270500D01*
X-6413500Y1905000D02*
X-5270500D01*
X-6413500Y1651000D02*
Y1905000D01*
X-3492500Y1651000D02*
Y1905000D01*
X-2349500D01*
X-3492500Y1651000D02*
X-2349500D01*
Y1905000D01*
X-2032000Y1651000D02*
Y1905000D01*
X-889000D01*
X-2032000Y1651000D02*
X-889000D01*
Y1905000D01*
X-4953000Y1651000D02*
Y1905000D01*
X-3810000D01*
X-4953000Y1651000D02*
X-3810000D01*
Y1905000D01*
X6413500Y-1905000D02*
Y-1651000D01*
X5270500Y-1905000D02*
X6413500D01*
X5270500Y-1651000D02*
X6413500D01*
X5270500Y-1905000D02*
Y-1651000D01*
X4953000Y-1905000D02*
Y-1651000D01*
X3810000Y-1905000D02*
X4953000D01*
X3810000Y-1651000D02*
X4953000D01*
X3810000Y-1905000D02*
Y-1651000D01*
X3429000Y-1905000D02*
Y-1651000D01*
X2286000Y-1905000D02*
X3429000D01*
X2286000Y-1651000D02*
X3429000D01*
X2286000Y-1905000D02*
Y-1651000D01*
X2032000Y-1905000D02*
Y-1651000D01*
X889000Y-1905000D02*
X2032000D01*
X889000Y-1651000D02*
X2032000D01*
X889000Y-1905000D02*
Y-1651000D01*
X-952500Y-1905000D02*
Y-1651000D01*
X-2095500Y-1905000D02*
X-952500D01*
X-2095500Y-1651000D02*
X-952500D01*
X-2095500Y-1905000D02*
Y-1651000D01*
X-2349500Y-1905000D02*
Y-1651000D01*
X-3492500Y-1905000D02*
X-2349500D01*
X-3492500Y-1651000D02*
X-2349500D01*
X-3492500Y-1905000D02*
Y-1651000D01*
X-3810000Y-1905000D02*
Y-1651000D01*
X-4953000Y-1905000D02*
X-3810000D01*
X-4953000Y-1651000D02*
X-3810000D01*
X-4953000Y-1905000D02*
Y-1651000D01*
X-5270500Y-1905000D02*
Y-1651000D01*
X-6413500Y-1905000D02*
X-5270500D01*
X-6413500Y-1651000D02*
X-5270500D01*
X-6413500Y-1905000D02*
Y-1651000D01*
X5524500Y3556000D02*
X5651500Y3429000D01*
X5524500Y3556000D02*
X5651500Y3683000D01*
X5524500Y3556000D02*
X6159500D01*
X4953000Y1654620D02*
Y1908620D01*
X3810000Y1654620D02*
X4953000D01*
X3810000Y1908620D02*
X4953000D01*
X3810000Y1654620D02*
Y1908620D01*
X2032000Y1651000D02*
Y1905000D01*
X889000Y1651000D02*
X2032000D01*
X889000Y1905000D02*
X2032000D01*
X889000Y1651000D02*
Y1905000D01*
X3492500Y1651000D02*
Y1905000D01*
X2349500Y1651000D02*
X3492500D01*
X2349500Y1905000D02*
X3492500D01*
X2349500Y1651000D02*
Y1905000D01*
X6413500Y1651000D02*
Y1905000D01*
X5270500Y1651000D02*
X6413500D01*
X5270500Y1905000D02*
X6413500D01*
X5270500Y1651000D02*
Y1905000D01*
X-2955955Y-3828294D02*
X-2972616Y-3811632D01*
X-3005939D01*
X-3022600Y-3828294D01*
Y-3894939D01*
X-3005939Y-3911600D01*
X-2972616D01*
X-2955955Y-3894939D01*
Y-3861616D01*
X-2989277D01*
X-2922632Y-3911600D02*
Y-3811632D01*
X-2855987Y-3911600D01*
Y-3811632D01*
X-2822664D02*
Y-3911600D01*
X-2772681D01*
X-2756019Y-3894939D01*
Y-3828294D01*
X-2772681Y-3811632D01*
X-2822664D01*
X5807045Y-3113132D02*
X5740400D01*
Y-3163116D01*
X5773723Y-3146455D01*
X5790384D01*
X5807045Y-3163116D01*
Y-3196439D01*
X5790384Y-3213100D01*
X5757061D01*
X5740400Y-3196439D01*
X5840368Y-3113132D02*
Y-3179777D01*
X5873690Y-3213100D01*
X5907013Y-3179777D01*
Y-3113132D01*
X2886045Y-3828294D02*
X2869384Y-3811632D01*
X2836061D01*
X2819400Y-3828294D01*
Y-3894939D01*
X2836061Y-3911600D01*
X2869384D01*
X2886045Y-3894939D01*
Y-3861616D01*
X2852723D01*
X2919368Y-3911600D02*
Y-3811632D01*
X2986013Y-3911600D01*
Y-3811632D01*
X3019336D02*
Y-3911600D01*
X3069319D01*
X3085981Y-3894939D01*
Y-3828294D01*
X3069319Y-3811632D01*
X3019336D01*
X4346545Y-3113132D02*
X4279900D01*
Y-3163116D01*
X4313223Y-3146455D01*
X4329884D01*
X4346545Y-3163116D01*
Y-3196439D01*
X4329884Y-3213100D01*
X4296561D01*
X4279900Y-3196439D01*
X4379868Y-3113132D02*
Y-3179777D01*
X4413190Y-3213100D01*
X4446513Y-3179777D01*
Y-3113132D01*
X4346545Y3935368D02*
X4279900D01*
Y3885384D01*
X4313223Y3902045D01*
X4329884D01*
X4346545Y3885384D01*
Y3852061D01*
X4329884Y3835400D01*
X4296561D01*
X4279900Y3852061D01*
X4379868Y3935368D02*
Y3868723D01*
X4413190Y3835400D01*
X4446513Y3868723D01*
Y3935368D01*
X1425545Y3283706D02*
X1408884Y3300368D01*
X1375561D01*
X1358900Y3283706D01*
Y3217061D01*
X1375561Y3200400D01*
X1408884D01*
X1425545Y3217061D01*
Y3250384D01*
X1392223D01*
X1458868Y3200400D02*
Y3300368D01*
X1525513Y3200400D01*
Y3300368D01*
X1558836D02*
Y3200400D01*
X1608819D01*
X1625481Y3217061D01*
Y3283706D01*
X1608819Y3300368D01*
X1558836D01*
X5870545Y3935368D02*
X5803900D01*
Y3885384D01*
X5837223Y3902045D01*
X5853884D01*
X5870545Y3885384D01*
Y3852061D01*
X5853884Y3835400D01*
X5820561D01*
X5803900Y3852061D01*
X5903868Y3935368D02*
Y3868723D01*
X5937190Y3835400D01*
X5970513Y3868723D01*
Y3935368D01*
X4346545Y-3828294D02*
X4329884Y-3811632D01*
X4296561D01*
X4279900Y-3828294D01*
Y-3894939D01*
X4296561Y-3911600D01*
X4329884D01*
X4346545Y-3894939D01*
Y-3861616D01*
X4313223D01*
X4379868Y-3911600D02*
Y-3811632D01*
X4446513Y-3911600D01*
Y-3811632D01*
X4479836D02*
Y-3911600D01*
X4529819D01*
X4546481Y-3894939D01*
Y-3828294D01*
X4529819Y-3811632D01*
X4479836D01*
X-4416455Y-3828294D02*
X-4433116Y-3811632D01*
X-4466439D01*
X-4483100Y-3828294D01*
Y-3894939D01*
X-4466439Y-3911600D01*
X-4433116D01*
X-4416455Y-3894939D01*
Y-3861616D01*
X-4449777D01*
X-4383132Y-3911600D02*
Y-3811632D01*
X-4316487Y-3911600D01*
Y-3811632D01*
X-4283164D02*
Y-3911600D01*
X-4233181D01*
X-4216519Y-3894939D01*
Y-3828294D01*
X-4233181Y-3811632D01*
X-4283164D01*
X4346545Y3283706D02*
X4329884Y3300368D01*
X4296561D01*
X4279900Y3283706D01*
Y3217061D01*
X4296561Y3200400D01*
X4329884D01*
X4346545Y3217061D01*
Y3250384D01*
X4313223D01*
X4379868Y3200400D02*
Y3300368D01*
X4446513Y3200400D01*
Y3300368D01*
X4479836D02*
Y3200400D01*
X4529819D01*
X4546481Y3217061D01*
Y3283706D01*
X4529819Y3300368D01*
X4479836D01*
X5807045Y-3828294D02*
X5790384Y-3811632D01*
X5757061D01*
X5740400Y-3828294D01*
Y-3894939D01*
X5757061Y-3911600D01*
X5790384D01*
X5807045Y-3894939D01*
Y-3861616D01*
X5773723D01*
X5840368Y-3911600D02*
Y-3811632D01*
X5907013Y-3911600D01*
Y-3811632D01*
X5940336D02*
Y-3911600D01*
X5990319D01*
X6006981Y-3894939D01*
Y-3828294D01*
X5990319Y-3811632D01*
X5940336D01*
X1425545Y-3828294D02*
X1408884Y-3811632D01*
X1375561D01*
X1358900Y-3828294D01*
Y-3894939D01*
X1375561Y-3911600D01*
X1408884D01*
X1425545Y-3894939D01*
Y-3861616D01*
X1392223D01*
X1458868Y-3911600D02*
Y-3811632D01*
X1525513Y-3911600D01*
Y-3811632D01*
X1558836D02*
Y-3911600D01*
X1608819D01*
X1625481Y-3894939D01*
Y-3828294D01*
X1608819Y-3811632D01*
X1558836D01*
X-5876955Y-3828294D02*
X-5893616Y-3811632D01*
X-5926939D01*
X-5943600Y-3828294D01*
Y-3894939D01*
X-5926939Y-3911600D01*
X-5893616D01*
X-5876955Y-3894939D01*
Y-3861616D01*
X-5910277D01*
X-5843632Y-3911600D02*
Y-3811632D01*
X-5776987Y-3911600D01*
Y-3811632D01*
X-5743664D02*
Y-3911600D01*
X-5693681D01*
X-5677019Y-3894939D01*
Y-3828294D01*
X-5693681Y-3811632D01*
X-5743664D01*
X-5876955Y3935368D02*
X-5943600D01*
Y3885384D01*
X-5910277Y3902045D01*
X-5893616D01*
X-5876955Y3885384D01*
Y3852061D01*
X-5893616Y3835400D01*
X-5926939D01*
X-5943600Y3852061D01*
X-5843632Y3935368D02*
Y3868723D01*
X-5810310Y3835400D01*
X-5776987Y3868723D01*
Y3935368D01*
X-4416455D02*
X-4483100D01*
Y3885384D01*
X-4449777Y3902045D01*
X-4433116D01*
X-4416455Y3885384D01*
Y3852061D01*
X-4433116Y3835400D01*
X-4466439D01*
X-4483100Y3852061D01*
X-4383132Y3935368D02*
Y3868723D01*
X-4349810Y3835400D01*
X-4316487Y3868723D01*
Y3935368D01*
X-1495455Y-3176632D02*
X-1562100D01*
Y-3226616D01*
X-1528777Y-3209955D01*
X-1512116D01*
X-1495455Y-3226616D01*
Y-3259939D01*
X-1512116Y-3276600D01*
X-1545439D01*
X-1562100Y-3259939D01*
X-1462132Y-3176632D02*
Y-3243277D01*
X-1428810Y-3276600D01*
X-1395487Y-3243277D01*
Y-3176632D01*
X2886045Y3283706D02*
X2869384Y3300368D01*
X2836061D01*
X2819400Y3283706D01*
Y3217061D01*
X2836061Y3200400D01*
X2869384D01*
X2886045Y3217061D01*
Y3250384D01*
X2852723D01*
X2919368Y3200400D02*
Y3300368D01*
X2986013Y3200400D01*
Y3300368D01*
X3019336D02*
Y3200400D01*
X3069319D01*
X3085981Y3217061D01*
Y3283706D01*
X3069319Y3300368D01*
X3019336D01*
X2886045Y3935368D02*
X2819400D01*
Y3885384D01*
X2852723Y3902045D01*
X2869384D01*
X2886045Y3885384D01*
Y3852061D01*
X2869384Y3835400D01*
X2836061D01*
X2819400Y3852061D01*
X2919368Y3935368D02*
Y3868723D01*
X2952690Y3835400D01*
X2986013Y3868723D01*
Y3935368D01*
X-2955955Y3283706D02*
X-2972616Y3300368D01*
X-3005939D01*
X-3022600Y3283706D01*
Y3217061D01*
X-3005939Y3200400D01*
X-2972616D01*
X-2955955Y3217061D01*
Y3250384D01*
X-2989277D01*
X-2922632Y3200400D02*
Y3300368D01*
X-2855987Y3200400D01*
Y3300368D01*
X-2822664D02*
Y3200400D01*
X-2772681D01*
X-2756019Y3217061D01*
Y3283706D01*
X-2772681Y3300368D01*
X-2822664D01*
X-5876955Y3283706D02*
X-5893616Y3300368D01*
X-5926939D01*
X-5943600Y3283706D01*
Y3217061D01*
X-5926939Y3200400D01*
X-5893616D01*
X-5876955Y3217061D01*
Y3250384D01*
X-5910277D01*
X-5843632Y3200400D02*
Y3300368D01*
X-5776987Y3200400D01*
Y3300368D01*
X-5743664D02*
Y3200400D01*
X-5693681D01*
X-5677019Y3217061D01*
Y3283706D01*
X-5693681Y3300368D01*
X-5743664D01*
X-2892455Y3935368D02*
X-2959100D01*
Y3885384D01*
X-2925777Y3902045D01*
X-2909116D01*
X-2892455Y3885384D01*
Y3852061D01*
X-2909116Y3835400D01*
X-2942439D01*
X-2959100Y3852061D01*
X-2859132Y3935368D02*
Y3868723D01*
X-2825810Y3835400D01*
X-2792487Y3868723D01*
Y3935368D01*
X-1495455Y3283706D02*
X-1512116Y3300368D01*
X-1545439D01*
X-1562100Y3283706D01*
Y3217061D01*
X-1545439Y3200400D01*
X-1512116D01*
X-1495455Y3217061D01*
Y3250384D01*
X-1528777D01*
X-1462132Y3200400D02*
Y3300368D01*
X-1395487Y3200400D01*
Y3300368D01*
X-1362164D02*
Y3200400D01*
X-1312181D01*
X-1295519Y3217061D01*
Y3283706D01*
X-1312181Y3300368D01*
X-1362164D01*
X-1495455Y-3828294D02*
X-1512116Y-3811632D01*
X-1545439D01*
X-1562100Y-3828294D01*
Y-3894939D01*
X-1545439Y-3911600D01*
X-1512116D01*
X-1495455Y-3894939D01*
Y-3861616D01*
X-1528777D01*
X-1462132Y-3911600D02*
Y-3811632D01*
X-1395487Y-3911600D01*
Y-3811632D01*
X-1362164D02*
Y-3911600D01*
X-1312181D01*
X-1295519Y-3894939D01*
Y-3828294D01*
X-1312181Y-3811632D01*
X-1362164D01*
X1425545Y3935368D02*
X1358900D01*
Y3885384D01*
X1392223Y3902045D01*
X1408884D01*
X1425545Y3885384D01*
Y3852061D01*
X1408884Y3835400D01*
X1375561D01*
X1358900Y3852061D01*
X1458868Y3935368D02*
Y3868723D01*
X1492190Y3835400D01*
X1525513Y3868723D01*
Y3935368D01*
X2886045Y-3113132D02*
X2819400D01*
Y-3163116D01*
X2852723Y-3146455D01*
X2869384D01*
X2886045Y-3163116D01*
Y-3196439D01*
X2869384Y-3213100D01*
X2836061D01*
X2819400Y-3196439D01*
X2919368Y-3113132D02*
Y-3179777D01*
X2952690Y-3213100D01*
X2986013Y-3179777D01*
Y-3113132D01*
X-5876955Y-3176632D02*
X-5943600D01*
Y-3226616D01*
X-5910277Y-3209955D01*
X-5893616D01*
X-5876955Y-3226616D01*
Y-3259939D01*
X-5893616Y-3276600D01*
X-5926939D01*
X-5943600Y-3259939D01*
X-5843632Y-3176632D02*
Y-3243277D01*
X-5810310Y-3276600D01*
X-5776987Y-3243277D01*
Y-3176632D01*
X1425545Y-3113132D02*
X1358900D01*
Y-3163116D01*
X1392223Y-3146455D01*
X1408884D01*
X1425545Y-3163116D01*
Y-3196439D01*
X1408884Y-3213100D01*
X1375561D01*
X1358900Y-3196439D01*
X1458868Y-3113132D02*
Y-3179777D01*
X1492190Y-3213100D01*
X1525513Y-3179777D01*
Y-3113132D01*
X5807045Y3283706D02*
X5790384Y3300368D01*
X5757061D01*
X5740400Y3283706D01*
Y3217061D01*
X5757061Y3200400D01*
X5790384D01*
X5807045Y3217061D01*
Y3250384D01*
X5773723D01*
X5840368Y3200400D02*
Y3300368D01*
X5907013Y3200400D01*
Y3300368D01*
X5940336D02*
Y3200400D01*
X5990319D01*
X6006981Y3217061D01*
Y3283706D01*
X5990319Y3300368D01*
X5940336D01*
X-4416455Y3283706D02*
X-4433116Y3300368D01*
X-4466439D01*
X-4483100Y3283706D01*
Y3217061D01*
X-4466439Y3200400D01*
X-4433116D01*
X-4416455Y3217061D01*
Y3250384D01*
X-4449777D01*
X-4383132Y3200400D02*
Y3300368D01*
X-4316487Y3200400D01*
Y3300368D01*
X-4283164D02*
Y3200400D01*
X-4233181D01*
X-4216519Y3217061D01*
Y3283706D01*
X-4233181Y3300368D01*
X-4283164D01*
X-2892455Y-3176632D02*
X-2959100D01*
Y-3226616D01*
X-2925777Y-3209955D01*
X-2909116D01*
X-2892455Y-3226616D01*
Y-3259939D01*
X-2909116Y-3276600D01*
X-2942439D01*
X-2959100Y-3259939D01*
X-2859132Y-3176632D02*
Y-3243277D01*
X-2825810Y-3276600D01*
X-2792487Y-3243277D01*
Y-3176632D01*
X-1431955Y3935368D02*
X-1498600D01*
Y3885384D01*
X-1465277Y3902045D01*
X-1448616D01*
X-1431955Y3885384D01*
Y3852061D01*
X-1448616Y3835400D01*
X-1481939D01*
X-1498600Y3852061D01*
X-1398632Y3935368D02*
Y3868723D01*
X-1365310Y3835400D01*
X-1331987Y3868723D01*
Y3935368D01*
X-4352955Y-3176632D02*
X-4419600D01*
Y-3226616D01*
X-4386277Y-3209955D01*
X-4369616D01*
X-4352955Y-3226616D01*
Y-3259939D01*
X-4369616Y-3276600D01*
X-4402939D01*
X-4419600Y-3259939D01*
X-4319632Y-3176632D02*
Y-3243277D01*
X-4286310Y-3276600D01*
X-4252987Y-3243277D01*
Y-3176632D01*
D19*
X-1422400Y1789620D02*
G03*
X-1422400Y1789620I-38100J0D01*
G01*
X-5803900D02*
G03*
X-5803900Y1789620I-38100J0D01*
G01*
X-4343400D02*
G03*
X-4343400Y1789620I-38100J0D01*
G01*
X-2882900D02*
G03*
X-2882900Y1789620I-38100J0D01*
G01*
X5880100Y-1789620D02*
G03*
X5880100Y-1789620I-38100J0D01*
G01*
X4419600Y-1781620D02*
G03*
X4419600Y-1781620I-38100J0D01*
G01*
X2959100Y-1789620D02*
G03*
X2959100Y-1789620I-38100J0D01*
G01*
X1498600D02*
G03*
X1498600Y-1789620I-38100J0D01*
G01*
X-1422400Y-1781620D02*
G03*
X-1422400Y-1781620I-38100J0D01*
G01*
X-2882900Y-1789620D02*
G03*
X-2882900Y-1789620I-38100J0D01*
G01*
X-4343400D02*
G03*
X-4343400Y-1789620I-38100J0D01*
G01*
X-5803900D02*
G03*
X-5803900Y-1789620I-38100J0D01*
G01*
X5880100Y1781620D02*
G03*
X5880100Y1781620I-38100J0D01*
G01*
X4419600D02*
G03*
X4419600Y1781620I-38100J0D01*
G01*
X2959100Y1789620D02*
G03*
X2959100Y1789620I-38100J0D01*
G01*
X1498600D02*
G03*
X1498600Y1789620I-38100J0D01*
G01*
D20*
X-933901Y-679901D02*
G03*
X-889000Y-571500I-108401J108401D01*
G01*
X-1206500Y-825500D02*
G03*
X-989698Y-735698I0J306605D01*
G01*
X-5334000Y-825500D02*
G03*
X-5550802Y-915302I0J-306605D01*
G01*
X-5752198Y-1116698D02*
G03*
X-5842000Y-1333500I216802J-216802D01*
G01*
X-724802Y-788302D02*
G03*
X-635000Y-571500I-216802J216802D01*
G01*
X-1143000Y-1079500D02*
G03*
X-926198Y-989698I0J306605D01*
G01*
X-4000500Y-1079500D02*
G03*
X-4217302Y-1169302I0J-306605D01*
G01*
X-4291698Y-1243698D02*
G03*
X-4381500Y-1460500I216802J-216802D01*
G01*
X-470802Y-851802D02*
G03*
X-381000Y-635000I-216802J216802D01*
G01*
X-1079500Y-1333500D02*
G03*
X-862698Y-1243698I0J306605D01*
G01*
X-2603500Y-1333500D02*
G03*
X-2820302Y-1423302I0J-306605D01*
G01*
X-2831198Y-1434198D02*
G03*
X-2921000Y-1651000I216802J-216802D01*
G01*
X-216802Y-915302D02*
G03*
X-127000Y-698500I-216802J216802D01*
G01*
X-952500Y-1524000D02*
G03*
X-735698Y-1434198I0J306605D01*
G01*
X-1333500Y-1524000D02*
G03*
X-1460500Y-1651000I0J-127000D01*
G01*
X1460500D02*
G03*
X1333500Y-1524000I-127000J0D01*
G01*
X735698Y-1434198D02*
G03*
X952500Y-1524000I216802J216802D01*
G01*
X127000Y-698500D02*
G03*
X216802Y-915302I306605J0D01*
G01*
X2921000Y-1651000D02*
G03*
X2831198Y-1434198I-306605J0D01*
G01*
X2820302Y-1423302D02*
G03*
X2603500Y-1333500I-216802J-216802D01*
G01*
X862698Y-1243698D02*
G03*
X1079500Y-1333500I216802J216802D01*
G01*
X381000Y-635000D02*
G03*
X470802Y-851802I306605J0D01*
G01*
X4381500Y-1460500D02*
G03*
X4291698Y-1243698I-306605J0D01*
G01*
X4217302Y-1169302D02*
G03*
X4000500Y-1079500I-216802J-216802D01*
G01*
X926198Y-989698D02*
G03*
X1143000Y-1079500I216802J216802D01*
G01*
X635000Y-571500D02*
G03*
X724802Y-788302I306605J0D01*
G01*
X5842000Y-1333500D02*
G03*
X5752198Y-1116698I-306605J0D01*
G01*
X5550802Y-915302D02*
G03*
X5334000Y-825500I-216802J-216802D01*
G01*
X989698Y-735698D02*
G03*
X1206500Y-825500I216802J216802D01*
G01*
X889000Y-571500D02*
G03*
X933901Y-679901I153303J0D01*
G01*
Y679901D02*
G03*
X889000Y571500I108401J-108401D01*
G01*
X1206500Y825500D02*
G03*
X989698Y735698I0J-306605D01*
G01*
X5334000Y825500D02*
G03*
X5550802Y915302I0J306605D01*
G01*
X5752198Y1116698D02*
G03*
X5842000Y1333500I-216802J216802D01*
G01*
X724802Y788302D02*
G03*
X635000Y571500I216802J-216802D01*
G01*
X1143000Y1079500D02*
G03*
X926198Y989698I0J-306605D01*
G01*
X4000500Y1079500D02*
G03*
X4217302Y1169302I0J306605D01*
G01*
X4291698Y1243698D02*
G03*
X4381500Y1460500I-216802J216802D01*
G01*
X470802Y851802D02*
G03*
X381000Y635000I216802J-216802D01*
G01*
X1079500Y1333500D02*
G03*
X862698Y1243698I0J-306605D01*
G01*
X2603500Y1333500D02*
G03*
X2820302Y1423302I0J306605D01*
G01*
X2831198Y1434198D02*
G03*
X2921000Y1651000I-216802J216802D01*
G01*
X216802Y915302D02*
G03*
X127000Y698500I216802J-216802D01*
G01*
X952500Y1524000D02*
G03*
X735698Y1434198I0J-306605D01*
G01*
X1333500Y1524000D02*
G03*
X1460500Y1651000I0J127000D01*
G01*
X-1460500D02*
G03*
X-1333500Y1524000I127000J0D01*
G01*
X-735698Y1434198D02*
G03*
X-952500Y1524000I-216802J-216802D01*
G01*
X-127000Y698500D02*
G03*
X-216802Y915302I-306605J0D01*
G01*
X-2921000Y1651000D02*
G03*
X-2831198Y1434198I306605J0D01*
G01*
X-2820302Y1423302D02*
G03*
X-2603500Y1333500I216802J216802D01*
G01*
X-862698Y1243698D02*
G03*
X-1079500Y1333500I-216802J-216802D01*
G01*
X-381000Y635000D02*
G03*
X-470802Y851802I-306605J0D01*
G01*
X-4381500Y1460500D02*
G03*
X-4291698Y1243698I306605J0D01*
G01*
X-4217302Y1169302D02*
G03*
X-4000500Y1079500I216802J216802D01*
G01*
X-926198Y989698D02*
G03*
X-1143000Y1079500I-216802J-216802D01*
G01*
X-635000Y571500D02*
G03*
X-724802Y788302I-306605J0D01*
G01*
X-5842000Y1333500D02*
G03*
X-5752198Y1116698I306605J0D01*
G01*
X-5550802Y915302D02*
G03*
X-5334000Y825500I216802J216802D01*
G01*
X-989698Y735698D02*
G03*
X-1206500Y825500I-216802J-216802D01*
G01*
X-889000Y571500D02*
G03*
X-933901Y679901I-153303J0D01*
G01*
X-5842000Y2667000D02*
Y2857500D01*
X-4381500Y2667000D02*
Y2857500D01*
X-2921000Y2667000D02*
Y2857500D01*
X-1460500Y2667000D02*
Y2857500D01*
X1460500Y2667000D02*
Y2857500D01*
X2921000Y2667000D02*
Y2857500D01*
X4381500Y2667000D02*
Y2857500D01*
X5842000Y2667000D02*
Y2857500D01*
Y-2857500D02*
Y-2667000D01*
X4381500Y-2857500D02*
Y-2667000D01*
X2921000Y-2857500D02*
Y-2667000D01*
X1460500Y-2857500D02*
Y-2667000D01*
X-5842000Y-2857500D02*
Y-2667000D01*
X-4381500Y-2857500D02*
Y-2667000D01*
X-1460500Y-2857500D02*
Y-2667000D01*
X-2921000Y-2857500D02*
Y-2667000D01*
X-989698Y-735698D02*
X-933901Y-679901D01*
X-5334000Y-825500D02*
X-1206500D01*
X-5752198Y-1116698D02*
X-5550802Y-915302D01*
X-926198Y-989698D02*
X-724802Y-788302D01*
X-4000500Y-1079500D02*
X-1143000D01*
X-4291698Y-1243698D02*
X-4217302Y-1169302D01*
X-381000Y-635000D02*
Y-571500D01*
X-862698Y-1243698D02*
X-470802Y-851802D01*
X-2603500Y-1333500D02*
X-1079500D01*
X-2831198Y-1434198D02*
X-2820302Y-1423302D01*
X-4381500Y-1651000D02*
Y-1460500D01*
X-5842000Y-1651000D02*
Y-1333500D01*
X-127000Y-698500D02*
Y-571500D01*
X-735698Y-1434198D02*
X-216802Y-915302D01*
X-1079500Y-1524000D02*
X-952500D01*
X-1333500D02*
X-1079500D01*
X1079500D02*
X1333500D01*
X952500D02*
X1079500D01*
X216802Y-915302D02*
X735698Y-1434198D01*
X127000Y-698500D02*
Y-571500D01*
X5842000Y-1651000D02*
Y-1333500D01*
X4381500Y-1651000D02*
Y-1460500D01*
X2820302Y-1423302D02*
X2831198Y-1434198D01*
X1079500Y-1333500D02*
X2603500D01*
X470802Y-851802D02*
X862698Y-1243698D01*
X381000Y-635000D02*
Y-571500D01*
X4217302Y-1169302D02*
X4291698Y-1243698D01*
X1143000Y-1079500D02*
X4000500D01*
X724802Y-788302D02*
X926198Y-989698D01*
X5550802Y-915302D02*
X5752198Y-1116698D01*
X1206500Y-825500D02*
X5334000D01*
X933901Y-679901D02*
X989698Y-735698D01*
X933901Y679901D02*
X989698Y735698D01*
X1206500Y825500D02*
X5334000D01*
X5550802Y915302D02*
X5752198Y1116698D01*
X724802Y788302D02*
X926198Y989698D01*
X1143000Y1079500D02*
X4000500D01*
X4217302Y1169302D02*
X4291698Y1243698D01*
X381000Y571500D02*
Y635000D01*
X470802Y851802D02*
X862698Y1243698D01*
X1079500Y1333500D02*
X2603500D01*
X2820302Y1423302D02*
X2831198Y1434198D01*
X4381500Y1460500D02*
Y1651000D01*
X5842000Y1333500D02*
Y1651000D01*
X127000Y571500D02*
Y698500D01*
X216802Y915302D02*
X735698Y1434198D01*
X952500Y1524000D02*
X1079500D01*
X1333500D01*
X-1333500D02*
X-1079500D01*
X-952500D01*
X-735698Y1434198D02*
X-216802Y915302D01*
X-127000Y571500D02*
Y698500D01*
X-5842000Y1333500D02*
Y1651000D01*
X-4381500Y1460500D02*
Y1651000D01*
X-2831198Y1434198D02*
X-2820302Y1423302D01*
X-2603500Y1333500D02*
X-1079500D01*
X-862698Y1243698D02*
X-470802Y851802D01*
X-381000Y571500D02*
Y635000D01*
X-4291698Y1243698D02*
X-4217302Y1169302D01*
X-4000500Y1079500D02*
X-1143000D01*
X-926198Y989698D02*
X-724802Y788302D01*
X-5752198Y1116698D02*
X-5550802Y915302D01*
X-5334000Y825500D02*
X-1206500D01*
X-989698Y735698D02*
X-933901Y679901D01*
D21*
X0Y6413500D02*
Y7366000D01*
X-508000Y6794500D02*
X0Y6350000D01*
X508000Y6794500D01*
X0Y-7366000D02*
X508000Y-6921500D01*
X-508000D02*
X0Y-7366000D01*
Y-7302500D02*
Y-6350000D01*
D22*
X-1783080Y2612580D02*
X-1540751D01*
X-1137920Y1967420D02*
Y2612580D01*
X-1380249D02*
X-1137920D01*
X-1783080Y1967420D02*
Y2612580D01*
Y1967420D02*
X-1540751D01*
X-1380249D02*
X-1137920D01*
X-6164580Y2612580D02*
X-5922251D01*
X-5519420Y1967420D02*
Y2612580D01*
X-5761749D02*
X-5519420D01*
X-6164580Y1967420D02*
Y2612580D01*
Y1967420D02*
X-5922251D01*
X-5761749D02*
X-5519420D01*
X-4704080Y2612580D02*
X-4461751D01*
X-4058920Y1967420D02*
Y2612580D01*
X-4301249D02*
X-4058920D01*
X-4704080Y1967420D02*
Y2612580D01*
Y1967420D02*
X-4461751D01*
X-4301249D02*
X-4058920D01*
X-3243580Y2612580D02*
X-3001251D01*
X-2598420Y1967420D02*
Y2612580D01*
X-2840749D02*
X-2598420D01*
X-3243580Y1967420D02*
Y2612580D01*
Y1967420D02*
X-3001251D01*
X-2840749D02*
X-2598420D01*
X5922251Y-2612580D02*
X6164580D01*
X5519420D02*
Y-1967420D01*
Y-2612580D02*
X5761749D01*
X6164580D02*
Y-1967420D01*
X5922251D02*
X6164580D01*
X5519420D02*
X5761749D01*
X4461751Y-2604580D02*
X4704080D01*
X4058920D02*
Y-1959420D01*
Y-2604580D02*
X4301249D01*
X4704080D02*
Y-1959420D01*
X4461751D02*
X4704080D01*
X4058920D02*
X4301249D01*
X3001251Y-2612580D02*
X3243580D01*
X2598420D02*
Y-1967420D01*
Y-2612580D02*
X2840749D01*
X3243580D02*
Y-1967420D01*
X3001251D02*
X3243580D01*
X2598420D02*
X2840749D01*
X1540751Y-2612580D02*
X1783080D01*
X1137920D02*
Y-1967420D01*
Y-2612580D02*
X1380249D01*
X1783080D02*
Y-1967420D01*
X1540751D02*
X1783080D01*
X1137920D02*
X1380249D01*
X-1380249Y-2604580D02*
X-1137920D01*
X-1783080D02*
Y-1959420D01*
Y-2604580D02*
X-1540751D01*
X-1137920D02*
Y-1959420D01*
X-1380249D02*
X-1137920D01*
X-1783080D02*
X-1540751D01*
X-2840749Y-2612580D02*
X-2598420D01*
X-3243580D02*
Y-1967420D01*
Y-2612580D02*
X-3001251D01*
X-2598420D02*
Y-1967420D01*
X-2840749D02*
X-2598420D01*
X-3243580D02*
X-3001251D01*
X-4301249Y-2612580D02*
X-4058920D01*
X-4704080D02*
Y-1967420D01*
Y-2612580D02*
X-4461751D01*
X-4058920D02*
Y-1967420D01*
X-4301249D02*
X-4058920D01*
X-4704080D02*
X-4461751D01*
X-5761749Y-2612580D02*
X-5519420D01*
X-6164580D02*
Y-1967420D01*
Y-2612580D02*
X-5922251D01*
X-5519420D02*
Y-1967420D01*
X-5761749D02*
X-5519420D01*
X-6164580D02*
X-5922251D01*
X5922251Y1959420D02*
X6164580D01*
X5519420D02*
X5761749D01*
X5519420D02*
Y2604580D01*
X5922251D02*
X6164580D01*
Y1959420D02*
Y2604580D01*
X5519420D02*
X5761749D01*
X4461751Y1959420D02*
X4704080D01*
X4058920D02*
X4301249D01*
X4058920D02*
Y2604580D01*
X4461751D02*
X4704080D01*
Y1959420D02*
Y2604580D01*
X4058920D02*
X4301249D01*
X3001251Y1967420D02*
X3243580D01*
X2598420D02*
X2840749D01*
X2598420D02*
Y2612580D01*
X3001251D02*
X3243580D01*
Y1967420D02*
Y2612580D01*
X2598420D02*
X2840749D01*
X1540751Y1967420D02*
X1783080D01*
X1137920D02*
X1380249D01*
X1137920D02*
Y2612580D01*
X1540751D02*
X1783080D01*
Y1967420D02*
Y2612580D01*
X1137920D02*
X1380249D01*
D23*
X-5694680Y1750060D02*
X-5665056D01*
X-5679868D01*
Y1838931D01*
X-5694680Y1824119D01*
X-5620621D02*
X-5605809Y1838931D01*
X-5576185D01*
X-5561373Y1824119D01*
Y1764872D01*
X-5576185Y1750060D01*
X-5605809D01*
X-5620621Y1764872D01*
Y1824119D01*
X-5531749Y1750060D02*
Y1838931D01*
Y1779684D02*
X-5487314Y1809308D01*
X-5531749Y1779684D02*
X-5487314Y1750060D01*
X-4234180D02*
X-4204556D01*
X-4219368D01*
Y1838931D01*
X-4234180Y1824119D01*
X-4160121D02*
X-4145309Y1838931D01*
X-4115685D01*
X-4100873Y1824119D01*
Y1764872D01*
X-4115685Y1750060D01*
X-4145309D01*
X-4160121Y1764872D01*
Y1824119D01*
X-4071249Y1750060D02*
Y1838931D01*
Y1779684D02*
X-4026814Y1809308D01*
X-4071249Y1779684D02*
X-4026814Y1750060D01*
X-2773680D02*
X-2744056D01*
X-2758868D01*
Y1838931D01*
X-2773680Y1824119D01*
X-2699621D02*
X-2684809Y1838931D01*
X-2655185D01*
X-2640373Y1824119D01*
Y1764872D01*
X-2655185Y1750060D01*
X-2684809D01*
X-2699621Y1764872D01*
Y1824119D01*
X-2610749Y1750060D02*
Y1838931D01*
Y1779684D02*
X-2566314Y1809308D01*
X-2610749Y1779684D02*
X-2566314Y1750060D01*
X-1376680D02*
X-1347056D01*
X-1361868D01*
Y1838931D01*
X-1376680Y1824119D01*
X-1302621D02*
X-1287809Y1838931D01*
X-1258185D01*
X-1243373Y1824119D01*
Y1764872D01*
X-1258185Y1750060D01*
X-1287809D01*
X-1302621Y1764872D01*
Y1824119D01*
X-1213749Y1750060D02*
Y1838931D01*
Y1779684D02*
X-1169314Y1809308D01*
X-1213749Y1779684D02*
X-1169314Y1750060D01*
X1607820D02*
X1637444D01*
X1622632D01*
Y1838931D01*
X1607820Y1824119D01*
X1681879D02*
X1696691Y1838931D01*
X1726315D01*
X1741127Y1824119D01*
Y1764872D01*
X1726315Y1750060D01*
X1696691D01*
X1681879Y1764872D01*
Y1824119D01*
X1770751Y1750060D02*
Y1838931D01*
Y1779684D02*
X1815186Y1809308D01*
X1770751Y1779684D02*
X1815186Y1750060D01*
X3004820D02*
X3034444D01*
X3019632D01*
Y1838931D01*
X3004820Y1824119D01*
X3078879D02*
X3093691Y1838931D01*
X3123315D01*
X3138127Y1824119D01*
Y1764872D01*
X3123315Y1750060D01*
X3093691D01*
X3078879Y1764872D01*
Y1824119D01*
X3167751Y1750060D02*
Y1838931D01*
Y1779684D02*
X3212186Y1809308D01*
X3167751Y1779684D02*
X3212186Y1750060D01*
X4528820Y1758060D02*
X4558444D01*
X4543632D01*
Y1846931D01*
X4528820Y1832119D01*
X4602879D02*
X4617691Y1846931D01*
X4647315D01*
X4662127Y1832119D01*
Y1772872D01*
X4647315Y1758060D01*
X4617691D01*
X4602879Y1772872D01*
Y1832119D01*
X4691751Y1758060D02*
Y1846931D01*
Y1787684D02*
X4736186Y1817308D01*
X4691751Y1787684D02*
X4736186Y1758060D01*
X5989320Y1750060D02*
X6018944D01*
X6004132D01*
Y1838931D01*
X5989320Y1824119D01*
X6063379D02*
X6078191Y1838931D01*
X6107815D01*
X6122627Y1824119D01*
Y1764872D01*
X6107815Y1750060D01*
X6078191D01*
X6063379Y1764872D01*
Y1824119D01*
X6152251Y1750060D02*
Y1838931D01*
Y1779684D02*
X6196686Y1809308D01*
X6152251Y1779684D02*
X6196686Y1750060D01*
X5989320Y-1821180D02*
X6018944D01*
X6004132D01*
Y-1732309D01*
X5989320Y-1747121D01*
X6063379D02*
X6078191Y-1732309D01*
X6107815D01*
X6122627Y-1747121D01*
Y-1806368D01*
X6107815Y-1821180D01*
X6078191D01*
X6063379Y-1806368D01*
Y-1747121D01*
X6152251Y-1821180D02*
Y-1732309D01*
Y-1791556D02*
X6196686Y-1761932D01*
X6152251Y-1791556D02*
X6196686Y-1821180D01*
X4528820Y-1813180D02*
X4558444D01*
X4543632D01*
Y-1724309D01*
X4528820Y-1739121D01*
X4602879D02*
X4617691Y-1724309D01*
X4647315D01*
X4662127Y-1739121D01*
Y-1798368D01*
X4647315Y-1813180D01*
X4617691D01*
X4602879Y-1798368D01*
Y-1739121D01*
X4691751Y-1813180D02*
Y-1724309D01*
Y-1783556D02*
X4736186Y-1753932D01*
X4691751Y-1783556D02*
X4736186Y-1813180D01*
X3004820Y-1821180D02*
X3034444D01*
X3019632D01*
Y-1732309D01*
X3004820Y-1747121D01*
X3078879D02*
X3093691Y-1732309D01*
X3123315D01*
X3138127Y-1747121D01*
Y-1806368D01*
X3123315Y-1821180D01*
X3093691D01*
X3078879Y-1806368D01*
Y-1747121D01*
X3167751Y-1821180D02*
Y-1732309D01*
Y-1791556D02*
X3212186Y-1761932D01*
X3167751Y-1791556D02*
X3212186Y-1821180D01*
X1607820D02*
X1637444D01*
X1622632D01*
Y-1732309D01*
X1607820Y-1747121D01*
X1681879D02*
X1696691Y-1732309D01*
X1726315D01*
X1741127Y-1747121D01*
Y-1806368D01*
X1726315Y-1821180D01*
X1696691D01*
X1681879Y-1806368D01*
Y-1747121D01*
X1770751Y-1821180D02*
Y-1732309D01*
Y-1791556D02*
X1815186Y-1761932D01*
X1770751Y-1791556D02*
X1815186Y-1821180D01*
X-1376680D02*
X-1347056D01*
X-1361868D01*
Y-1732309D01*
X-1376680Y-1747121D01*
X-1302621D02*
X-1287809Y-1732309D01*
X-1258185D01*
X-1243373Y-1747121D01*
Y-1806368D01*
X-1258185Y-1821180D01*
X-1287809D01*
X-1302621Y-1806368D01*
Y-1747121D01*
X-1213749Y-1821180D02*
Y-1732309D01*
Y-1791556D02*
X-1169314Y-1761932D01*
X-1213749Y-1791556D02*
X-1169314Y-1821180D01*
X-2773680D02*
X-2744056D01*
X-2758868D01*
Y-1732309D01*
X-2773680Y-1747121D01*
X-2699621D02*
X-2684809Y-1732309D01*
X-2655185D01*
X-2640373Y-1747121D01*
Y-1806368D01*
X-2655185Y-1821180D01*
X-2684809D01*
X-2699621Y-1806368D01*
Y-1747121D01*
X-2610749Y-1821180D02*
Y-1732309D01*
Y-1791556D02*
X-2566314Y-1761932D01*
X-2610749Y-1791556D02*
X-2566314Y-1821180D01*
X-4234180D02*
X-4204556D01*
X-4219368D01*
Y-1732309D01*
X-4234180Y-1747121D01*
X-4160121D02*
X-4145309Y-1732309D01*
X-4115685D01*
X-4100873Y-1747121D01*
Y-1806368D01*
X-4115685Y-1821180D01*
X-4145309D01*
X-4160121Y-1806368D01*
Y-1747121D01*
X-4071249Y-1821180D02*
Y-1732309D01*
Y-1791556D02*
X-4026814Y-1761932D01*
X-4071249Y-1791556D02*
X-4026814Y-1821180D01*
X-5694680D02*
X-5665056D01*
X-5679868D01*
Y-1732309D01*
X-5694680Y-1747121D01*
X-5620621D02*
X-5605809Y-1732309D01*
X-5576185D01*
X-5561373Y-1747121D01*
Y-1806368D01*
X-5576185Y-1821180D01*
X-5605809D01*
X-5620621Y-1806368D01*
Y-1747121D01*
X-5531749Y-1821180D02*
Y-1732309D01*
Y-1791556D02*
X-5487314Y-1761932D01*
X-5531749Y-1791556D02*
X-5487314Y-1821180D01*
%TF.MD5,4f2fff6e4efad9c295f8772d926e297b*%
M02*
