%TF.GenerationSoftware,Altium Limited,Altium Designer,24.0.1 (36)*%
G04 Layer_Color=32896*
%FSLAX45Y45*%
%MOMM*%
%TF.SameCoordinates,30B9EBA5-48D0-47E5-9341-C4D43BC7BEBE*%
%TF.FilePolarity,Positive*%
%TF.FileFunction,Legend,Bot*%
%TF.Part,Single*%
G01*
G75*
%TA.AperFunction,NonConductor*%
%ADD18C,0.25400*%
%ADD19C,0.50800*%
%ADD24C,0.38100*%
D18*
X-279400Y-5689641D02*
Y-5816600D01*
X-321720Y-5774280D01*
X-364039Y-5816600D01*
Y-5689641D01*
X-406359D02*
Y-5816600D01*
X-448679Y-5774280D01*
X-490998Y-5816600D01*
Y-5689641D01*
X-533318D02*
Y-5816600D01*
X-575637Y-5774280D01*
X-617957Y-5816600D01*
Y-5689641D01*
X-660277Y-5816600D02*
Y-5795440D01*
X-681436D01*
Y-5816600D01*
X-660277D01*
X-766076Y-5689641D02*
X-850715D01*
X-808395D01*
Y-5816600D01*
X-893035Y-5689641D02*
Y-5816600D01*
Y-5753121D01*
X-977674D01*
Y-5689641D01*
Y-5816600D01*
X-1104633Y-5689641D02*
X-1019993D01*
Y-5816600D01*
X-1104633D01*
X-1019993Y-5753121D02*
X-1062313D01*
X-1146952D02*
X-1231592D01*
X-1273911Y-5689641D02*
Y-5795440D01*
X-1295071Y-5816600D01*
X-1337391D01*
X-1358550Y-5795440D01*
Y-5689641D01*
X-1400870Y-5816600D02*
Y-5689641D01*
X-1485509Y-5816600D01*
Y-5689641D01*
X-1527829D02*
X-1570148D01*
X-1548989D01*
Y-5816600D01*
X-1527829D01*
X-1570148D01*
X-1633628Y-5689641D02*
X-1718267D01*
X-1675948D01*
Y-5816600D01*
X-1760587D02*
Y-5795440D01*
X-1781746D01*
Y-5816600D01*
X-1760587D01*
X-1929865Y-5689641D02*
X-1887546D01*
X-1866386Y-5710801D01*
Y-5795440D01*
X-1887546Y-5816600D01*
X-1929865D01*
X-1951025Y-5795440D01*
Y-5710801D01*
X-1929865Y-5689641D01*
X-1993345Y-5816600D02*
Y-5689641D01*
X-2056824D01*
X-2077984Y-5710801D01*
Y-5753121D01*
X-2056824Y-5774280D01*
X-1993345D01*
X-2035664D02*
X-2077984Y-5816600D01*
X-2204943Y-5710801D02*
X-2183783Y-5689641D01*
X-2141463D01*
X-2120304Y-5710801D01*
Y-5795440D01*
X-2141463Y-5816600D01*
X-2183783D01*
X-2204943Y-5795440D01*
Y-5753121D01*
X-2162623D01*
D19*
X-1422400Y1789620D02*
G03*
X-1422400Y1789620I-38100J0D01*
G01*
X-5803900D02*
G03*
X-5803900Y1789620I-38100J0D01*
G01*
X-4343400D02*
G03*
X-4343400Y1789620I-38100J0D01*
G01*
X-2882900D02*
G03*
X-2882900Y1789620I-38100J0D01*
G01*
X5880100Y-1789620D02*
G03*
X5880100Y-1789620I-38100J0D01*
G01*
X4419600Y-1781620D02*
G03*
X4419600Y-1781620I-38100J0D01*
G01*
X2959100Y-1789620D02*
G03*
X2959100Y-1789620I-38100J0D01*
G01*
X1498600D02*
G03*
X1498600Y-1789620I-38100J0D01*
G01*
X-1422400Y-1781620D02*
G03*
X-1422400Y-1781620I-38100J0D01*
G01*
X-2882900Y-1789620D02*
G03*
X-2882900Y-1789620I-38100J0D01*
G01*
X-4343400D02*
G03*
X-4343400Y-1789620I-38100J0D01*
G01*
X-5803900D02*
G03*
X-5803900Y-1789620I-38100J0D01*
G01*
X5880100Y1781620D02*
G03*
X5880100Y1781620I-38100J0D01*
G01*
X4419600D02*
G03*
X4419600Y1781620I-38100J0D01*
G01*
X2959100Y1789620D02*
G03*
X2959100Y1789620I-38100J0D01*
G01*
X1498600D02*
G03*
X1498600Y1789620I-38100J0D01*
G01*
D24*
X-5080000Y-2540000D02*
X-4572000D01*
X-4254500D02*
X-3048000D01*
X-2762250D02*
X-1651000D01*
X1651000D02*
X2762250D01*
X3048000D02*
X4254500D01*
X4572000D02*
X5080000D01*
X4572000Y2540000D02*
X5080000D01*
X3048000D02*
X4254500D01*
X1651000D02*
X2762250D01*
X-2762250D02*
X-1651000D01*
X-4254500D02*
X-3048000D01*
X-5080000D02*
X-4572000D01*
X3810000Y-635000D02*
Y635000D01*
X-3810000Y-635000D02*
Y635000D01*
X-1270000Y-635000D02*
Y635000D01*
X1270000Y-635000D02*
Y635000D01*
X2540000Y-1651000D02*
X2540000Y1651000D01*
X-2540000Y-1651000D02*
X-2540000Y1651000D01*
X-381000Y-3810000D02*
X762000D01*
X-762000D02*
X-381000D01*
X-635000Y-1270000D02*
X635000Y-1270000D01*
X0Y-3556000D02*
Y0D01*
Y-5080000D02*
Y-3429000D01*
X-635000Y1270000D02*
X635000Y1270000D01*
X-762000Y3810000D02*
X-381000D01*
X-444500D02*
X762000D01*
X0Y0D02*
Y3556000D01*
X-5080000Y0D02*
X5461000D01*
X-5715000Y-5461000D02*
Y-5080000D01*
X-5461000Y-5715000D02*
X-5080000D01*
X5080000D02*
X5461000D01*
X5715000Y-5461000D02*
Y-5080000D01*
Y5080000D02*
Y5461000D01*
X5080000Y5715000D02*
X5461000D01*
X-5461000D02*
X-5080000D01*
X-5715000Y5080000D02*
Y5461000D01*
Y2540000D02*
X-5080000D01*
X5080000D02*
X5588000D01*
X-5588000Y-2540000D02*
X-5080000D01*
X5080000D02*
X5588000D01*
X5079999Y-254000D02*
X5080000Y5334000D01*
Y-5080000D02*
Y-254000D01*
X6350000Y-6985000D02*
X6731000D01*
X6985000Y-6731000D02*
Y-6350000D01*
Y-7620000D02*
Y-7239000D01*
X7239000Y-6985000D02*
X7620000D01*
X6604000Y-6350000D02*
X7620000D01*
X6350000Y-7620000D02*
Y-6604000D01*
X6985000Y-5715000D02*
X7620000D01*
X5080000Y-5080000D02*
X7620000D01*
X5080000Y-7620000D02*
Y-5080000D01*
X6096000Y-2540000D02*
X7620000Y-2540000D01*
X7493000Y0D02*
X7620000D01*
X5969000Y2540000D02*
X7620000Y2540000D01*
X5080000Y5080000D02*
X7620000D01*
X6350000Y-3810000D02*
X7620000D01*
X6350000Y-1270000D02*
X7620000D01*
X6350000Y1270000D02*
X7620000D01*
X6350000Y3810000D02*
X7620000D01*
X6604000Y6350000D02*
X7620000D01*
X6350000Y6604000D02*
Y7620000D01*
X6985000Y-4445000D02*
X7620000D01*
X6985000Y-3175000D02*
X7620000D01*
X6985000Y-1905000D02*
X7620000D01*
X6985000Y-635000D02*
X7620000D01*
X6985000Y635000D02*
X7620000D01*
X6985000Y1905000D02*
X7620000D01*
X6985000Y3175000D02*
X7620000D01*
X6985000Y4445000D02*
X7620000D01*
X6985000Y5715000D02*
X7620000D01*
X7239000Y6985000D02*
X7620000D01*
X6985000Y7239000D02*
Y7620000D01*
Y6350000D02*
Y6731000D01*
X6350000Y6985000D02*
X6731000D01*
X7239000D02*
X7620000D01*
X6985000Y7239000D02*
Y7620000D01*
X6350000Y6604000D02*
Y7620000D01*
X6604000Y6350000D02*
X7620000D01*
X5715000Y6985000D02*
Y7620000D01*
X5080000Y5080000D02*
Y7620000D01*
Y5080000D02*
X7620000D01*
X2540000Y2540000D02*
X2540000Y7620000D01*
X0Y7493000D02*
Y7620000D01*
X-2540000Y2540000D02*
X-2540000Y7620000D01*
X-5080000Y5080000D02*
Y7620000D01*
X0Y6223000D02*
Y7239000D01*
X-0Y7620000D02*
X0Y3556000D01*
X-7620000Y5080000D02*
X5080000D01*
X3810000Y6350000D02*
Y7620000D01*
X1270000Y6350000D02*
Y7620000D01*
X-1270000Y6350000D02*
Y7620000D01*
X-3810000Y6350000D02*
Y7620000D01*
X-6350000Y6604000D02*
Y7620000D01*
X-7620000Y6350000D02*
X-6604000D01*
X4445000Y6985000D02*
Y7620000D01*
X3175000Y6985000D02*
Y7620000D01*
X1905000Y6985000D02*
Y7620000D01*
X635000Y6985000D02*
Y7620000D01*
X-635000Y6985000D02*
Y7620000D01*
X-1905000Y6985000D02*
Y7620000D01*
X-3175000Y6985000D02*
Y7620000D01*
X-4445000Y6985000D02*
Y7620000D01*
X-5715000Y6985000D02*
Y7620000D01*
X-6985000Y7239000D02*
Y7620000D01*
X-7620000Y6985000D02*
X-7239000D01*
X-6731000D02*
X-6350000D01*
X-6985000Y6350000D02*
Y6731000D01*
Y7239000D02*
Y7620000D01*
X-7620000Y6985000D02*
X-7239000D01*
X-7620000Y6350000D02*
X-6604000D01*
X-6350000Y6604000D02*
Y7620000D01*
X-7620000Y5715000D02*
X-6985000D01*
X-7620000Y5080000D02*
X-5080000D01*
Y7620000D01*
X-7620000Y2540000D02*
X-6223000D01*
X-7620000Y0D02*
X-7493000D01*
X-7620000Y-2540000D02*
X-6096000D01*
X-7620000Y-5080000D02*
X-5080000D01*
X-7493000Y-0D02*
X-5842000Y0D01*
X-5080000D01*
Y-7620000D02*
Y5080000D01*
X-7620000Y3810000D02*
X-6350000D01*
X-7620000Y1270000D02*
X-6350000D01*
X-7620000Y-1270000D02*
X-6350000D01*
X-7620000Y-3810000D02*
X-6350000D01*
X-7620000Y-6350000D02*
X-6604000D01*
X-6350000Y-7620000D02*
Y-6604000D01*
X-7620000Y4445000D02*
X-6985000D01*
X-7620000Y3175000D02*
X-6985000D01*
X-7620000Y1905000D02*
X-6985000D01*
X-7620000Y635000D02*
X-6985000D01*
X-7620000Y-635000D02*
X-6985000D01*
X-7620000Y-1905000D02*
X-6985000D01*
X-7620000Y-3175000D02*
X-6985000D01*
X-7620000Y-4445000D02*
X-6985000D01*
X-7620000Y-5715000D02*
X-6985000D01*
X-7620000Y-6985000D02*
X-7239000D01*
X-6985000Y-7620000D02*
Y-7239000D01*
X7239000Y-6985000D02*
X7620000D01*
X6985000Y-7620000D02*
Y-7239000D01*
X5715000Y-7620000D02*
Y-6985000D01*
X4445000Y-7620000D02*
Y-6985000D01*
X3175000Y-7620000D02*
Y-6985000D01*
X1905000Y-7620000D02*
Y-6985000D01*
X635000Y-7620000D02*
Y-6985000D01*
X-635000Y-7620000D02*
Y-6985000D01*
X-1905000Y-7620000D02*
Y-6985000D01*
X-3175000Y-7620000D02*
Y-6985000D01*
X-4445000Y-7620000D02*
Y-6985000D01*
X6604000Y-6350000D02*
X7620000D01*
X6350000Y-7620000D02*
Y-6604000D01*
X3810000Y-7620000D02*
Y-6350000D01*
X1270000Y-7620000D02*
Y-6350000D01*
X-1270000Y-7620000D02*
Y-6350000D01*
X-3810000Y-7620000D02*
Y-6350000D01*
X-5080000Y-5080000D02*
X7620000D01*
X0Y-7620000D02*
Y-5080000D01*
Y-7239000D02*
Y-6223000D01*
X5080000Y-7620000D02*
Y-5080000D01*
X2540000Y-2540000D02*
X2540000Y-7620000D01*
X0D02*
Y-7493000D01*
X-2540000Y-2540000D02*
X-2540000Y-7620000D01*
X-7620000Y-5080000D02*
X-5080000D01*
Y-7620000D02*
Y-5080000D01*
X-5715000Y-7620000D02*
Y-6985000D01*
X-7620000Y-6350000D02*
X-6604000D01*
X-6350000Y-7620000D02*
Y-6604000D01*
X-6985000Y-7620000D02*
Y-7239000D01*
X-7620000Y-6985000D02*
X-7239000D01*
X-6731000D02*
X-6350000D01*
X-6985000Y-6731000D02*
Y-6350000D01*
%TF.MD5,a0845d767963ff8c6dcbe6b51f286f15*%
M02*
