%TF.GenerationSoftware,Altium Limited,Altium Designer,24.0.1 (36)*%
G04 Layer_Physical_Order=1*
G04 Layer_Color=255*
%FSLAX45Y45*%
%MOMM*%
%TF.SameCoordinates,30B9EBA5-48D0-47E5-9341-C4D43BC7BEBE*%
%TF.FilePolarity,Positive*%
%TF.FileFunction,Copper,L1,Top,Signal*%
%TF.Part,Single*%
G01*
G75*
%TA.AperFunction,Conductor*%
%ADD10C,1.27000*%
%TA.AperFunction,ComponentPad*%
%ADD11R,1.37000X1.37000*%
%ADD12C,1.37000*%
%TA.AperFunction,WasherPad*%
%ADD13C,3.81000*%
%TA.AperFunction,ComponentPad*%
%ADD14C,1.14300*%
%ADD15C,1.49860*%
D10*
X5894605Y-201395D02*
G03*
X5969000Y-21790I-179605J179605D01*
G01*
X4455895Y-1640105D02*
G03*
X4381500Y-1819710I179605J-179605D01*
G01*
X6667500Y3133290D02*
G03*
X6593105Y3312895I-254000J0D01*
G01*
Y1703605D02*
G03*
X6667500Y1883210I-179605J179605D01*
G01*
X6551395Y1661895D02*
G03*
X6477000Y1482290I179605J-179605D01*
G01*
X5842000Y930710D02*
G03*
X5916395Y751105I254000J0D01*
G01*
X6223000Y339290D02*
G03*
X6148605Y518895I-254000J0D01*
G01*
X6656605Y-772895D02*
G03*
X6731000Y-593290I-179605J179605D01*
G01*
X6360895Y-1068605D02*
G03*
X6286500Y-1248210I179605J-179605D01*
G01*
X6910605Y-2360395D02*
G03*
X6985000Y-2180790I-179605J179605D01*
G01*
X6117790Y-3048000D02*
G03*
X6297395Y-2973605I0J254000D01*
G01*
X-5842000Y2540000D02*
G03*
X-6096000Y2286000I0J-254000D01*
G01*
X-6159500Y2794000D02*
G03*
X-5905500Y2540000I254000J0D01*
G01*
X-6096000Y-2286000D02*
G03*
X-5842000Y-2540000I254000J0D01*
G01*
X-6096000Y-1968500D02*
G03*
X-6286500Y-1778000I-190500J0D01*
G01*
X1016000Y1778000D02*
G03*
X1206500Y1968500I0J190500D01*
G01*
X5588000Y-2286000D02*
G03*
X5842000Y-2540000I254000J0D01*
G01*
X5588000Y-1968500D02*
G03*
X5397500Y-1778000I-190500J0D01*
G01*
X4127500Y-2278000D02*
G03*
X4381500Y-2532000I254000J0D01*
G01*
X4127500Y-1968500D02*
G03*
X3937000Y-1778000I-190500J0D01*
G01*
X2667000Y-2286000D02*
G03*
X2921000Y-2540000I254000J0D01*
G01*
X2667000Y-2032000D02*
G03*
X2413000Y-1778000I-254000J0D01*
G01*
X1206500Y-2286000D02*
G03*
X1460500Y-2540000I254000J0D01*
G01*
X1206500Y-1968500D02*
G03*
X1016000Y-1778000I-190500J0D01*
G01*
X-1714500Y-2278000D02*
G03*
X-1460500Y-2532000I254000J0D01*
G01*
X-1714500Y-2032000D02*
G03*
X-1968500Y-1778000I-254000J0D01*
G01*
X-3175000Y-2286000D02*
G03*
X-2921000Y-2540000I254000J0D01*
G01*
X-3175000Y-1968500D02*
G03*
X-3365500Y-1778000I-190500J0D01*
G01*
X-4635500Y-2286000D02*
G03*
X-4381500Y-2540000I254000J0D01*
G01*
X-4635500Y-1968500D02*
G03*
X-4826000Y-1778000I-190500J0D01*
G01*
Y1778000D02*
G03*
X-4635500Y1968500I0J190500D01*
G01*
X-6286500Y1778000D02*
G03*
X-6096000Y1968500I0J190500D01*
G01*
X-4381500Y2540000D02*
G03*
X-4635500Y2286000I0J-254000D01*
G01*
X-2921000Y2540000D02*
G03*
X-3175000Y2286000I0J-254000D01*
G01*
X-3365500Y1778000D02*
G03*
X-3175000Y1968500I0J190500D01*
G01*
X-1460500Y2540000D02*
G03*
X-1714500Y2286000I0J-254000D01*
G01*
X-1905000Y1778000D02*
G03*
X-1714500Y1968500I0J190500D01*
G01*
X1460500Y2540000D02*
G03*
X1206500Y2286000I0J-254000D01*
G01*
X2921000Y2540000D02*
G03*
X2667000Y2286000I0J-254000D01*
G01*
X2476500Y1778000D02*
G03*
X2667000Y1968500I0J190500D01*
G01*
X4381500Y2532000D02*
G03*
X4127500Y2278000I0J-254000D01*
G01*
X3940620Y1781620D02*
G03*
X4127500Y1968500I0J186880D01*
G01*
X3933380Y1778000D02*
G03*
X3937000Y1781620I0J3620D01*
G01*
X5842000Y2532000D02*
G03*
X5588000Y2278000I0J-254000D01*
G01*
X5397500Y1778000D02*
G03*
X5388761Y1781620I-8739J-8739D01*
G01*
X5397500Y1778000D02*
G03*
X5588000Y1968500I0J190500D01*
G01*
X4455895Y-1640105D02*
X5894605Y-201395D01*
X4381500Y-2032000D02*
Y-1819710D01*
X5969000Y-21790D02*
Y0D01*
X6350000Y3556000D02*
X6593105Y3312895D01*
X6551395Y1661895D02*
X6593105Y1703605D01*
X6477000Y0D02*
Y1482290D01*
X5916395Y751105D02*
X6148605Y518895D01*
X6223000Y0D02*
Y339290D01*
X6360895Y-1068605D02*
X6656605Y-772895D01*
X6286500Y-1778000D02*
Y-1248210D01*
X6731000Y-593290D02*
Y0D01*
X6297395Y-2973605D02*
X6910605Y-2360395D01*
X6985000Y-2180790D02*
Y0D01*
X5842000Y930710D02*
Y2032000D01*
X-5842000Y4064000D02*
Y4068619D01*
Y3492500D02*
Y4064000D01*
X-5905500Y2540000D02*
X-5842000D01*
X-6159500Y2794000D02*
Y3175000D01*
X-6096000Y1968500D02*
Y2286000D01*
Y-2286000D02*
Y-1968500D01*
X889000Y381000D02*
Y1270000D01*
X825500Y1333500D02*
X889000Y1270000D01*
X825500Y2061250D02*
X889000Y2124750D01*
Y2540000D01*
X825500Y1333500D02*
Y2061250D01*
X635000Y381000D02*
Y2540000D01*
X381000Y381000D02*
Y2540000D01*
X127000Y381000D02*
Y2540000D01*
X-127000Y381000D02*
Y2540000D01*
X-381000Y381000D02*
Y2540000D01*
X-635000Y381000D02*
Y2540000D01*
X-889000Y1397000D02*
X-825500Y1460500D01*
X-889000Y381000D02*
Y1397000D01*
X-825500Y1460500D02*
Y1967147D01*
X-889000Y2030647D02*
Y2540000D01*
Y2030647D02*
X-825500Y1967147D01*
X1206500Y1968500D02*
Y2286000D01*
X825500Y-1460500D02*
X889000Y-1397000D01*
Y-381000D01*
X825500Y-1966000D02*
Y-1460500D01*
Y-1966000D02*
X889000Y-2029500D01*
Y-2540000D02*
Y-2029500D01*
X635000Y-2540000D02*
Y-381000D01*
X381000Y-2540000D02*
Y-381000D01*
X127000Y-2540000D02*
Y-381000D01*
X-127000Y-2540000D02*
Y-381000D01*
X-381000Y-2540000D02*
Y-381000D01*
X-635000Y-2540000D02*
Y-381000D01*
X-889000Y-2540000D02*
Y-381000D01*
X6667500Y1883210D02*
Y3133290D01*
X-6159500Y3175000D02*
X-5842000Y3492500D01*
X5842000Y-3048000D02*
X6117790D01*
X-2413000Y-3556000D02*
X-1968500D01*
X-3873500D02*
X-3429000D01*
X-5334000D02*
X-4889500D01*
X4889500D02*
X5334000D01*
X3429000D02*
X3873500D01*
X1968500D02*
X2413000D01*
X5588000Y-2286000D02*
Y-1968500D01*
X4826000Y-1778000D02*
X5397500D01*
X4127500Y-2278000D02*
Y-1968500D01*
X3302000Y-1778000D02*
X3937000D01*
X2667000Y-2286000D02*
Y-2032000D01*
X1905000Y-1778000D02*
X2413000D01*
X1206500Y-2286000D02*
Y-1968500D01*
X-1714500Y-2278000D02*
Y-2032000D01*
X-2476500Y-1778000D02*
X-1968500D01*
X-3937000D02*
X-3365500D01*
X-3175000Y-2286000D02*
Y-1968500D01*
X-5397500Y-1778000D02*
X-4826000D01*
X-4635500Y-2286000D02*
Y-1968500D01*
X-5397500Y1778000D02*
X-4826000D01*
X-4635500Y1968500D02*
Y2286000D01*
X-3937000Y1778000D02*
X-3365500D01*
X-3175000Y1968500D02*
Y2286000D01*
X-2476500Y1778000D02*
X-1905000D01*
X-1714500Y1968500D02*
Y2286000D01*
X2667000Y1968500D02*
Y2286000D01*
X1905000Y1778000D02*
X2476500D01*
X4127500Y1968500D02*
Y2278000D01*
X3365500Y1778000D02*
X3933380D01*
X3937000Y1781620D02*
X3940620D01*
X5588000Y1968500D02*
Y2278000D01*
X4826000Y1781620D02*
X5388761D01*
X4889500Y3556000D02*
X5334000D01*
X3429000D02*
X3873500D01*
X1968500D02*
X2413000D01*
X-2413000D02*
X-1968500D01*
X-3873500D02*
X-3429000D01*
X-5334000D02*
X-4889500D01*
D11*
X6985000Y0D02*
D03*
X889000Y-2540000D02*
D03*
Y2540000D02*
D03*
Y381000D02*
D03*
Y-381000D02*
D03*
D12*
X6731000Y0D02*
D03*
X6477000D02*
D03*
X6223000D02*
D03*
X5969000D02*
D03*
X5715000D02*
D03*
X-889000Y-2540000D02*
D03*
X-635000D02*
D03*
X-381000D02*
D03*
X-127000D02*
D03*
X127000D02*
D03*
X381000D02*
D03*
X635000D02*
D03*
X-889000Y2540000D02*
D03*
X-635000D02*
D03*
X-381000D02*
D03*
X-127000D02*
D03*
X127000D02*
D03*
X381000D02*
D03*
X635000D02*
D03*
X4889500Y3556000D02*
D03*
X3873500D02*
D03*
X4381500Y3048000D02*
D03*
Y4064000D02*
D03*
X3429000Y3556000D02*
D03*
X2413000D02*
D03*
X2921000Y3048000D02*
D03*
Y4064000D02*
D03*
X1968500Y3556000D02*
D03*
X952500D02*
D03*
X1460500Y3048000D02*
D03*
Y4064000D02*
D03*
X-952500Y3556000D02*
D03*
X-1968500D02*
D03*
X-1460500Y3048000D02*
D03*
Y4064000D02*
D03*
X-2921000D02*
D03*
Y3048000D02*
D03*
X-3429000Y3556000D02*
D03*
X-2413000D02*
D03*
X-3873500D02*
D03*
X-4889500D02*
D03*
X-4381500Y3048000D02*
D03*
Y4064000D02*
D03*
X-5334000Y3556000D02*
D03*
X-6350000D02*
D03*
X-5842000Y3048000D02*
D03*
Y4064000D02*
D03*
X-889000Y381000D02*
D03*
X-635000D02*
D03*
X-381000D02*
D03*
X-127000D02*
D03*
X127000D02*
D03*
X381000D02*
D03*
X635000D02*
D03*
X-889000Y-381000D02*
D03*
X-635000D02*
D03*
X-381000D02*
D03*
X-127000D02*
D03*
X127000D02*
D03*
X381000D02*
D03*
X635000D02*
D03*
X5842000Y-3048000D02*
D03*
Y-4064000D02*
D03*
X5334000Y-3556000D02*
D03*
X6350000D02*
D03*
X4381500Y-3048000D02*
D03*
Y-4064000D02*
D03*
X3873500Y-3556000D02*
D03*
X4889500D02*
D03*
X2921000Y-3048000D02*
D03*
Y-4064000D02*
D03*
X2413000Y-3556000D02*
D03*
X3429000D02*
D03*
X1460500Y-3048000D02*
D03*
Y-4064000D02*
D03*
X952500Y-3556000D02*
D03*
X1968500D02*
D03*
X-1460500Y-3048000D02*
D03*
Y-4064000D02*
D03*
X-1968500Y-3556000D02*
D03*
X-952500D02*
D03*
X-2921000Y-3048000D02*
D03*
Y-4064000D02*
D03*
X-3429000Y-3556000D02*
D03*
X-2413000D02*
D03*
X-4381500Y-3048000D02*
D03*
Y-4064000D02*
D03*
X-4889500Y-3556000D02*
D03*
X-3873500D02*
D03*
X-5842000Y-3048000D02*
D03*
Y-4064000D02*
D03*
X-6350000Y-3556000D02*
D03*
X-5334000D02*
D03*
X5842000Y4064000D02*
D03*
Y3048000D02*
D03*
X5334000Y3556000D02*
D03*
X6350000D02*
D03*
D13*
X-5715000Y5715000D02*
D03*
X5715000D02*
D03*
Y-5715000D02*
D03*
X-5715000D02*
D03*
X-6350000Y6350000D02*
D03*
X6350000D02*
D03*
Y-6350000D02*
D03*
X-6350000D02*
D03*
X-6985000Y-6985000D02*
D03*
X6985000D02*
D03*
Y6985000D02*
D03*
X-6985000D02*
D03*
D14*
X-5397500Y1778000D02*
D03*
X-6286500D02*
D03*
X-3365500D02*
D03*
X-2476500D02*
D03*
X-1905000D02*
D03*
X-1016000D02*
D03*
X-4826000D02*
D03*
X-3937000D02*
D03*
X6286500Y-1778000D02*
D03*
X5397500D02*
D03*
X4826000D02*
D03*
X3937000D02*
D03*
X3302000D02*
D03*
X2413000D02*
D03*
X1905000D02*
D03*
X1016000D02*
D03*
X-1079500D02*
D03*
X-1968500D02*
D03*
X-2476500D02*
D03*
X-3365500D02*
D03*
X-3937000D02*
D03*
X-4826000D02*
D03*
X-5397500D02*
D03*
X-6286500D02*
D03*
X4826000Y1781620D02*
D03*
X3937000D02*
D03*
X1905000Y1778000D02*
D03*
X1016000D02*
D03*
X3365500D02*
D03*
X2476500D02*
D03*
X6286500D02*
D03*
X5397500D02*
D03*
D15*
X-1460500Y2040000D02*
D03*
Y2540000D02*
D03*
X-5842000Y2040000D02*
D03*
Y2540000D02*
D03*
X-4381500Y2040000D02*
D03*
Y2540000D02*
D03*
X-2921000Y2040000D02*
D03*
Y2540000D02*
D03*
X5842000Y-2040000D02*
D03*
Y-2540000D02*
D03*
X4381500Y-2032000D02*
D03*
Y-2532000D02*
D03*
X2921000Y-2040000D02*
D03*
Y-2540000D02*
D03*
X1460500Y-2040000D02*
D03*
Y-2540000D02*
D03*
X-1460500Y-2032000D02*
D03*
Y-2532000D02*
D03*
X-2921000Y-2040000D02*
D03*
Y-2540000D02*
D03*
X-4381500Y-2040000D02*
D03*
Y-2540000D02*
D03*
X-5842000Y-2040000D02*
D03*
Y-2540000D02*
D03*
X5842000Y2532000D02*
D03*
Y2032000D02*
D03*
X4381500Y2532000D02*
D03*
Y2032000D02*
D03*
X2921000Y2540000D02*
D03*
Y2040000D02*
D03*
X1460500Y2540000D02*
D03*
Y2040000D02*
D03*
%TF.MD5,267c05889f9634038e500a5bdce59611*%
M02*
