%TF.GenerationSoftware,Altium Limited,Altium Designer,24.0.1 (36)*%
G04 Layer_Color=0*
%FSLAX45Y45*%
%MOMM*%
%TF.SameCoordinates,30B9EBA5-48D0-47E5-9341-C4D43BC7BEBE*%
%TF.FilePolarity,Positive*%
%TF.FileFunction,Plated,1,2,PTH,Drill*%
%TF.Part,Single*%
G01*
G75*
%TA.AperFunction,ComponentDrill*%
%ADD42C,1.02000*%
%ADD43C,0.76200*%
%ADD44C,0.99060*%
D42*
X6985000Y0D02*
D03*
X6731000D02*
D03*
X6477000D02*
D03*
X6223000D02*
D03*
X5969000D02*
D03*
X5715000D02*
D03*
X-889000Y-2540000D02*
D03*
X-635000D02*
D03*
X-381000D02*
D03*
X-127000D02*
D03*
X127000D02*
D03*
X381000D02*
D03*
X635000D02*
D03*
X889000D02*
D03*
X-889000Y2540000D02*
D03*
X-635000D02*
D03*
X-381000D02*
D03*
X-127000D02*
D03*
X127000D02*
D03*
X381000D02*
D03*
X635000D02*
D03*
X889000D02*
D03*
X4889500Y3556000D02*
D03*
X3873500D02*
D03*
X4381500Y3048000D02*
D03*
Y4064000D02*
D03*
X3429000Y3556000D02*
D03*
X2413000D02*
D03*
X2921000Y3048000D02*
D03*
Y4064000D02*
D03*
X1968500Y3556000D02*
D03*
X952500D02*
D03*
X1460500Y3048000D02*
D03*
Y4064000D02*
D03*
X-952500Y3556000D02*
D03*
X-1968500D02*
D03*
X-1460500Y3048000D02*
D03*
Y4064000D02*
D03*
X-2921000D02*
D03*
Y3048000D02*
D03*
X-3429000Y3556000D02*
D03*
X-2413000D02*
D03*
X-3873500D02*
D03*
X-4889500D02*
D03*
X-4381500Y3048000D02*
D03*
Y4064000D02*
D03*
X-5334000Y3556000D02*
D03*
X-6350000D02*
D03*
X-5842000Y3048000D02*
D03*
Y4064000D02*
D03*
X-889000Y381000D02*
D03*
X-635000D02*
D03*
X-381000D02*
D03*
X-127000D02*
D03*
X127000D02*
D03*
X381000D02*
D03*
X635000D02*
D03*
X889000D02*
D03*
X-889000Y-381000D02*
D03*
X-635000D02*
D03*
X-381000D02*
D03*
X-127000D02*
D03*
X127000D02*
D03*
X381000D02*
D03*
X635000D02*
D03*
X889000D02*
D03*
X5842000Y-3048000D02*
D03*
Y-4064000D02*
D03*
X5334000Y-3556000D02*
D03*
X6350000D02*
D03*
X4381500Y-3048000D02*
D03*
Y-4064000D02*
D03*
X3873500Y-3556000D02*
D03*
X4889500D02*
D03*
X2921000Y-3048000D02*
D03*
Y-4064000D02*
D03*
X2413000Y-3556000D02*
D03*
X3429000D02*
D03*
X1460500Y-3048000D02*
D03*
Y-4064000D02*
D03*
X952500Y-3556000D02*
D03*
X1968500D02*
D03*
X-1460500Y-3048000D02*
D03*
Y-4064000D02*
D03*
X-1968500Y-3556000D02*
D03*
X-952500D02*
D03*
X-2921000Y-3048000D02*
D03*
Y-4064000D02*
D03*
X-3429000Y-3556000D02*
D03*
X-2413000D02*
D03*
X-4381500Y-3048000D02*
D03*
Y-4064000D02*
D03*
X-4889500Y-3556000D02*
D03*
X-3873500D02*
D03*
X-5842000Y-3048000D02*
D03*
Y-4064000D02*
D03*
X-6350000Y-3556000D02*
D03*
X-5334000D02*
D03*
X5842000Y4064000D02*
D03*
Y3048000D02*
D03*
X5334000Y3556000D02*
D03*
X6350000D02*
D03*
D43*
X-5397500Y1778000D02*
D03*
X-6286500D02*
D03*
X-3365500D02*
D03*
X-2476500D02*
D03*
X-1905000D02*
D03*
X-1016000D02*
D03*
X-4826000D02*
D03*
X-3937000D02*
D03*
X6286500Y-1778000D02*
D03*
X5397500D02*
D03*
X4826000D02*
D03*
X3937000D02*
D03*
X3302000D02*
D03*
X2413000D02*
D03*
X1905000D02*
D03*
X1016000D02*
D03*
X-1079500D02*
D03*
X-1968500D02*
D03*
X-2476500D02*
D03*
X-3365500D02*
D03*
X-3937000D02*
D03*
X-4826000D02*
D03*
X-5397500D02*
D03*
X-6286500D02*
D03*
X4826000Y1781620D02*
D03*
X3937000D02*
D03*
X1905000Y1778000D02*
D03*
X1016000D02*
D03*
X3365500D02*
D03*
X2476500D02*
D03*
X6286500D02*
D03*
X5397500D02*
D03*
D44*
X-1460500Y2040000D02*
D03*
Y2540000D02*
D03*
X-5842000Y2040000D02*
D03*
Y2540000D02*
D03*
X-4381500Y2040000D02*
D03*
Y2540000D02*
D03*
X-2921000Y2040000D02*
D03*
Y2540000D02*
D03*
X5842000Y-2040000D02*
D03*
Y-2540000D02*
D03*
X4381500Y-2032000D02*
D03*
Y-2532000D02*
D03*
X2921000Y-2040000D02*
D03*
Y-2540000D02*
D03*
X1460500Y-2040000D02*
D03*
Y-2540000D02*
D03*
X-1460500Y-2032000D02*
D03*
Y-2532000D02*
D03*
X-2921000Y-2040000D02*
D03*
Y-2540000D02*
D03*
X-4381500Y-2040000D02*
D03*
Y-2540000D02*
D03*
X-5842000Y-2040000D02*
D03*
Y-2540000D02*
D03*
X5842000Y2532000D02*
D03*
Y2032000D02*
D03*
X4381500Y2532000D02*
D03*
Y2032000D02*
D03*
X2921000Y2540000D02*
D03*
Y2040000D02*
D03*
X1460500Y2540000D02*
D03*
Y2040000D02*
D03*
%TF.MD5,b855993bec7dc263077047266bd2d467*%
M02*
