%TF.GenerationSoftware,Altium Limited,Altium Designer,24.0.1 (36)*%
G04 Layer_Physical_Order=2*
G04 Layer_Color=16711680*
%FSLAX45Y45*%
%MOMM*%
%TF.SameCoordinates,30B9EBA5-48D0-47E5-9341-C4D43BC7BEBE*%
%TF.FilePolarity,Positive*%
%TF.FileFunction,Copper,L2,Bot,Signal*%
%TF.Part,Single*%
G01*
G75*
%TA.AperFunction,Conductor*%
%ADD10C,1.27000*%
%TA.AperFunction,ComponentPad*%
%ADD11R,1.37000X1.37000*%
%ADD12C,1.37000*%
%TA.AperFunction,WasherPad*%
%ADD13C,3.81000*%
%TA.AperFunction,ComponentPad*%
%ADD14C,1.14300*%
%ADD15C,1.49860*%
D10*
X6731000Y-317500D02*
G03*
X6985000Y-63500I0J254000D01*
G01*
X5715000D02*
G03*
X5969000Y-317500I254000J0D01*
G01*
X4381500Y-2032000D02*
G03*
X4389500Y-2040000I8000J0D01*
G01*
X6805395Y772895D02*
G03*
X6731000Y593290I179605J-179605D01*
G01*
X2929000Y-2032000D02*
G03*
X2921000Y-2040000I0J-8000D01*
G01*
X-1460500Y-2032000D02*
G03*
X-1452500Y-2040000I8000J0D01*
G01*
X-2913000Y-2032000D02*
G03*
X-2921000Y-2040000I0J-8000D01*
G01*
X2921000Y2040000D02*
G03*
X2929000Y2032000I8000J0D01*
G01*
X-7291605Y3185895D02*
G03*
X-7366000Y3006290I179605J-179605D01*
G01*
X-6741895Y-2973605D02*
G03*
X-6562289Y-3048000I179605J179605D01*
G01*
X-7366000Y-2244290D02*
G03*
X-7291605Y-2423895I254000J0D01*
G01*
X7302500Y1672790D02*
G03*
X7228105Y1852395I-254000J0D01*
G01*
X6985000Y-1883210D02*
G03*
X6910605Y-1703605I-254000J0D01*
G01*
X6297395Y-1090395D02*
G03*
X6117790Y-1016000I-179605J-179605D01*
G01*
X-5979895Y-941605D02*
G03*
X-5800290Y-1016000I179605J179605D01*
G01*
X-6985000Y168710D02*
G03*
X-6910605Y-10895I254000J0D01*
G01*
X6154986Y-4064000D02*
G03*
X6487895Y-3926105I1J470803D01*
G01*
X5969000Y-317500D02*
X6731000D01*
X5715000Y-63500D02*
Y0D01*
X6985000Y-63500D02*
Y0D01*
X4389500Y-2040000D02*
X5842000D01*
X2929000Y-2032000D02*
X4381500D01*
X7302500Y1270000D02*
Y1672790D01*
Y-3111500D02*
Y1270000D01*
X6805395Y772895D02*
X7302500Y1270000D01*
X6731000Y0D02*
Y593290D01*
X1460500Y-2040000D02*
X2921000D01*
X-2913000Y-2032000D02*
X-1460500D01*
X-1452500Y-2040000D02*
X1460500D01*
X-4381500D02*
X-2921000D01*
X2929000Y2032000D02*
X4381500D01*
X1460500Y2040000D02*
X2921000D01*
X1460500Y4064000D02*
X2921000D01*
X-1460500D02*
X1460500D01*
X-2921000D02*
X-1460500D01*
X-7291605Y3185895D02*
X-6413500Y4064000D01*
X-6562289Y-3048000D02*
X-6091487D01*
X-7366000Y-2201645D02*
X-7366000Y3006290D01*
Y-2244290D02*
Y-2159000D01*
X-7291605Y-2423895D02*
X-6741895Y-2973605D01*
X-1016000Y1778000D02*
X1016000D01*
X-1079500Y-1778000D02*
X1016000D01*
X6794500Y2286000D02*
X7228105Y1852395D01*
X-5843913Y3046087D02*
X-1462413D01*
X6487895Y-3926105D02*
X7302500Y-3111500D01*
X6353266Y-3552734D02*
X6985000Y-2921000D01*
Y-1883210D01*
X5842000Y-4064000D02*
X6154987D01*
X4381500D02*
X5842000D01*
X2921000D02*
X4381500D01*
X1460500D02*
X2921000D01*
X-1460500D02*
X1460500D01*
X-2921000D02*
X-1460500D01*
X-4381500D02*
X-2921000D01*
X-5842000Y-4064000D02*
X-4381500Y-4064000D01*
Y4064000D02*
X-2921000D01*
X-6413500D02*
X-5842000D01*
X-4381500D01*
X6297395Y-1090395D02*
X6910605Y-1703605D01*
X-6985000Y168710D02*
Y3076526D01*
X-5800290Y-1016000D02*
X6117790D01*
X-6910605Y-10895D02*
X-5979895Y-941605D01*
X-6985000Y3076526D02*
X-6505526Y3556000D01*
X-6350000D01*
X-1460500Y3048000D02*
X1460500D01*
X-1462413Y3046087D02*
X-1460500Y3048000D01*
X1460500D02*
X2921000D01*
X4381500D02*
X5842000D01*
X6032500D01*
X2921000D02*
X4381500D01*
X6032500D02*
X6794500Y2286000D01*
X4381500Y4064000D02*
X5842000D01*
X2921000D02*
X4381500D01*
X-952500Y3556000D02*
X952500D01*
X-5842000Y-3048000D02*
X-4381500D01*
X-6091487D02*
X-5842000D01*
X-6091487Y-3048000D02*
X-6091487Y-3048000D01*
X-5842000Y-2984500D02*
Y-2540000D01*
X-4381500Y-3048000D02*
X-2921000D01*
X-1460500D01*
X1460500D01*
X2921000D01*
X4381500D01*
X5842000D01*
X-952500Y-3556000D02*
X-952499Y-3555999D01*
X952499D01*
X-5842000Y-2040000D02*
X-4381500D01*
X6286500Y1778000D02*
X6794500Y2286000D01*
X4381500Y2032000D02*
X5842000D01*
X-1460500Y2040000D02*
X1460500D01*
X-2921000D02*
X-1460500D01*
X-4381500D02*
X-2921000D01*
X-5842000D02*
X-4381500D01*
D11*
X6985000Y0D02*
D03*
X889000Y-2540000D02*
D03*
Y2540000D02*
D03*
Y381000D02*
D03*
Y-381000D02*
D03*
D12*
X6731000Y0D02*
D03*
X6477000D02*
D03*
X6223000D02*
D03*
X5969000D02*
D03*
X5715000D02*
D03*
X-889000Y-2540000D02*
D03*
X-635000D02*
D03*
X-381000D02*
D03*
X-127000D02*
D03*
X127000D02*
D03*
X381000D02*
D03*
X635000D02*
D03*
X-889000Y2540000D02*
D03*
X-635000D02*
D03*
X-381000D02*
D03*
X-127000D02*
D03*
X127000D02*
D03*
X381000D02*
D03*
X635000D02*
D03*
X4889500Y3556000D02*
D03*
X3873500D02*
D03*
X4381500Y3048000D02*
D03*
Y4064000D02*
D03*
X3429000Y3556000D02*
D03*
X2413000D02*
D03*
X2921000Y3048000D02*
D03*
Y4064000D02*
D03*
X1968500Y3556000D02*
D03*
X952500D02*
D03*
X1460500Y3048000D02*
D03*
Y4064000D02*
D03*
X-952500Y3556000D02*
D03*
X-1968500D02*
D03*
X-1460500Y3048000D02*
D03*
Y4064000D02*
D03*
X-2921000D02*
D03*
Y3048000D02*
D03*
X-3429000Y3556000D02*
D03*
X-2413000D02*
D03*
X-3873500D02*
D03*
X-4889500D02*
D03*
X-4381500Y3048000D02*
D03*
Y4064000D02*
D03*
X-5334000Y3556000D02*
D03*
X-6350000D02*
D03*
X-5842000Y3048000D02*
D03*
Y4064000D02*
D03*
X-889000Y381000D02*
D03*
X-635000D02*
D03*
X-381000D02*
D03*
X-127000D02*
D03*
X127000D02*
D03*
X381000D02*
D03*
X635000D02*
D03*
X-889000Y-381000D02*
D03*
X-635000D02*
D03*
X-381000D02*
D03*
X-127000D02*
D03*
X127000D02*
D03*
X381000D02*
D03*
X635000D02*
D03*
X5842000Y-3048000D02*
D03*
Y-4064000D02*
D03*
X5334000Y-3556000D02*
D03*
X6350000D02*
D03*
X4381500Y-3048000D02*
D03*
Y-4064000D02*
D03*
X3873500Y-3556000D02*
D03*
X4889500D02*
D03*
X2921000Y-3048000D02*
D03*
Y-4064000D02*
D03*
X2413000Y-3556000D02*
D03*
X3429000D02*
D03*
X1460500Y-3048000D02*
D03*
Y-4064000D02*
D03*
X952500Y-3556000D02*
D03*
X1968500D02*
D03*
X-1460500Y-3048000D02*
D03*
Y-4064000D02*
D03*
X-1968500Y-3556000D02*
D03*
X-952500D02*
D03*
X-2921000Y-3048000D02*
D03*
Y-4064000D02*
D03*
X-3429000Y-3556000D02*
D03*
X-2413000D02*
D03*
X-4381500Y-3048000D02*
D03*
Y-4064000D02*
D03*
X-4889500Y-3556000D02*
D03*
X-3873500D02*
D03*
X-5842000Y-3048000D02*
D03*
Y-4064000D02*
D03*
X-6350000Y-3556000D02*
D03*
X-5334000D02*
D03*
X5842000Y4064000D02*
D03*
Y3048000D02*
D03*
X5334000Y3556000D02*
D03*
X6350000D02*
D03*
D13*
X-5715000Y5715000D02*
D03*
X5715000D02*
D03*
Y-5715000D02*
D03*
X-5715000D02*
D03*
X-6350000Y6350000D02*
D03*
X6350000D02*
D03*
Y-6350000D02*
D03*
X-6350000D02*
D03*
X-6985000Y-6985000D02*
D03*
X6985000D02*
D03*
Y6985000D02*
D03*
X-6985000D02*
D03*
D14*
X-5397500Y1778000D02*
D03*
X-6286500D02*
D03*
X-3365500D02*
D03*
X-2476500D02*
D03*
X-1905000D02*
D03*
X-1016000D02*
D03*
X-4826000D02*
D03*
X-3937000D02*
D03*
X6286500Y-1778000D02*
D03*
X5397500D02*
D03*
X4826000D02*
D03*
X3937000D02*
D03*
X3302000D02*
D03*
X2413000D02*
D03*
X1905000D02*
D03*
X1016000D02*
D03*
X-1079500D02*
D03*
X-1968500D02*
D03*
X-2476500D02*
D03*
X-3365500D02*
D03*
X-3937000D02*
D03*
X-4826000D02*
D03*
X-5397500D02*
D03*
X-6286500D02*
D03*
X4826000Y1781620D02*
D03*
X3937000D02*
D03*
X1905000Y1778000D02*
D03*
X1016000D02*
D03*
X3365500D02*
D03*
X2476500D02*
D03*
X6286500D02*
D03*
X5397500D02*
D03*
D15*
X-1460500Y2040000D02*
D03*
Y2540000D02*
D03*
X-5842000Y2040000D02*
D03*
Y2540000D02*
D03*
X-4381500Y2040000D02*
D03*
Y2540000D02*
D03*
X-2921000Y2040000D02*
D03*
Y2540000D02*
D03*
X5842000Y-2040000D02*
D03*
Y-2540000D02*
D03*
X4381500Y-2032000D02*
D03*
Y-2532000D02*
D03*
X2921000Y-2040000D02*
D03*
Y-2540000D02*
D03*
X1460500Y-2040000D02*
D03*
Y-2540000D02*
D03*
X-1460500Y-2032000D02*
D03*
Y-2532000D02*
D03*
X-2921000Y-2040000D02*
D03*
Y-2540000D02*
D03*
X-4381500Y-2040000D02*
D03*
Y-2540000D02*
D03*
X-5842000Y-2040000D02*
D03*
Y-2540000D02*
D03*
X5842000Y2532000D02*
D03*
Y2032000D02*
D03*
X4381500Y2532000D02*
D03*
Y2032000D02*
D03*
X2921000Y2540000D02*
D03*
Y2040000D02*
D03*
X1460500Y2540000D02*
D03*
Y2040000D02*
D03*
%TF.MD5,8cac603ae2ac0829a2e19dc70ca0267b*%
M02*
