%TF.GenerationSoftware,Altium Limited,Altium Designer,24.0.1 (36)*%
G04 Layer_Color=32896*
%FSLAX45Y45*%
%MOMM*%
%TF.SameCoordinates,866D2BB3-0181-4888-B1A9-34DB4857F756*%
%TF.FilePolarity,Positive*%
%TF.FileFunction,Legend,Bot*%
%TF.Part,Single*%
G01*
G75*
%TA.AperFunction,NonConductor*%
%ADD21C,0.38100*%
%ADD24C,0.25400*%
D21*
X-6985000Y-6731000D02*
Y-6350000D01*
X-6731000Y-6985000D02*
X-6350000D01*
X-7620000D02*
X-7239000D01*
X-6985000Y-7620000D02*
Y-7239000D01*
X-6350000Y-7620000D02*
Y-6604000D01*
X-7620000Y-6350000D02*
X-6604000D01*
X-5715000Y-7620000D02*
Y-6985000D01*
X-5080000Y-7620000D02*
Y-5080000D01*
X-7620000D02*
X-5080000D01*
X-2540000Y-2540000D02*
X-2540000Y-7620000D01*
X0D02*
Y-7493000D01*
X2540000Y-2540000D02*
X2540000Y-7620000D01*
X5080000D02*
Y-5080000D01*
X0Y-7239000D02*
Y-6223000D01*
Y-5842000D02*
Y-5080000D01*
X-5080000D02*
X7620000D01*
X-3810000Y-7620000D02*
Y-6350000D01*
X-1270000Y-7620000D02*
Y-6350000D01*
X1270000Y-7620000D02*
Y-6350000D01*
X3810000Y-7620000D02*
Y-6350000D01*
X6350000Y-7620000D02*
Y-6604000D01*
X6604000Y-6350000D02*
X7620000D01*
X-4445000Y-7620000D02*
Y-6985000D01*
X-3175000Y-7620000D02*
Y-6985000D01*
X-1905000Y-7620000D02*
Y-6985000D01*
X-635000Y-7620000D02*
Y-6985000D01*
X635000Y-7620000D02*
Y-6985000D01*
X1905000Y-7620000D02*
Y-6985000D01*
X3175000Y-7620000D02*
Y-6985000D01*
X4445000Y-7620000D02*
Y-6985000D01*
X5715000Y-7620000D02*
Y-6985000D01*
X6985000Y-7620000D02*
Y-7239000D01*
X7239000Y-6985000D02*
X7620000D01*
X-6985000Y-7620000D02*
Y-7239000D01*
X-7620000Y-6985000D02*
X-7239000D01*
X-7620000Y-5715000D02*
X-6985000D01*
X-7620000Y-4445000D02*
X-6985000D01*
X-7620000Y-3175000D02*
X-6985000D01*
X-7620000Y-1905000D02*
X-6985000D01*
X-7620000Y-635000D02*
X-6985000D01*
X-7620000Y635000D02*
X-6985000D01*
X-7620000Y1905000D02*
X-6985000D01*
X-7620000Y3175000D02*
X-6985000D01*
X-7620000Y4445000D02*
X-6985000D01*
X-6350000Y-7620000D02*
Y-6604000D01*
X-7620000Y-6350000D02*
X-6604000D01*
X-7620000Y-3810000D02*
X-6350000D01*
X-7620000Y-1270000D02*
X-6350000D01*
X-7620000Y1270000D02*
X-6350000D01*
X-7620000Y3810000D02*
X-6350000D01*
X-5080000Y-7620000D02*
Y5080000D01*
X-5842000Y0D02*
X-5080000D01*
X-7493000Y-0D02*
X-5842000Y0D01*
X-7620000Y-5080000D02*
X-5080000D01*
X-7620000Y-2540000D02*
X-1168400D01*
X-7620000Y0D02*
X-7493000D01*
X-7620000Y2540000D02*
X-2501900D01*
X-5080000Y5080000D02*
Y7620000D01*
X-7620000Y5080000D02*
X-5080000D01*
X-7620000Y5715000D02*
X-6985000D01*
X-6350000Y6604000D02*
Y7620000D01*
X-7620000Y6350000D02*
X-6604000D01*
X-7620000Y6985000D02*
X-7239000D01*
X-6985000Y7239000D02*
Y7620000D01*
Y6350000D02*
Y6731000D01*
X-6731000Y6985000D02*
X-6350000D01*
X-7620000D02*
X-7239000D01*
X-6985000Y7239000D02*
Y7620000D01*
X-5715000Y6985000D02*
Y7620000D01*
X-4445000Y6985000D02*
Y7620000D01*
X-3175000Y6985000D02*
Y7620000D01*
X-1905000Y6985000D02*
Y7620000D01*
X-635000Y6985000D02*
Y7620000D01*
X635000Y6985000D02*
Y7620000D01*
X1905000Y6985000D02*
Y7620000D01*
X3175000Y6985000D02*
Y7620000D01*
X4445000Y6985000D02*
Y7620000D01*
X-7620000Y6350000D02*
X-6604000D01*
X-6350000Y6604000D02*
Y7620000D01*
X-3810000Y6350000D02*
Y7620000D01*
X-1270000Y6350000D02*
Y7620000D01*
X1270000Y6350000D02*
Y7620000D01*
X3810000Y6350000D02*
Y7620000D01*
X-7620000Y5080000D02*
X5080000D01*
X0Y3556000D02*
Y5842000D01*
Y6223000D02*
Y7239000D01*
X-5080000Y5080000D02*
Y7620000D01*
X-2540000Y2540000D02*
X-2540000Y7620000D01*
X0Y7493000D02*
Y7620000D01*
X2539999Y2425700D02*
X2540000Y7620000D01*
X5080000Y5080000D02*
X7620000D01*
X5080000D02*
Y7620000D01*
X5715000Y6985000D02*
Y7620000D01*
X6604000Y6350000D02*
X7620000D01*
X6350000Y6604000D02*
Y7620000D01*
X6985000Y7239000D02*
Y7620000D01*
X7239000Y6985000D02*
X7620000D01*
X6350000D02*
X6731000D01*
X6985000Y6350000D02*
Y6731000D01*
Y7239000D02*
Y7620000D01*
X7239000Y6985000D02*
X7620000D01*
X6985000Y5715000D02*
X7620000D01*
X6985000Y4445000D02*
X7620000D01*
X6985000Y3175000D02*
X7620000D01*
X6985000Y1905000D02*
X7620000D01*
X6985000Y635000D02*
X7620000D01*
X6985000Y-635000D02*
X7620000D01*
X6985000Y-1905000D02*
X7620000D01*
X6985000Y-3175000D02*
X7620000D01*
X6985000Y-4445000D02*
X7620000D01*
X6350000Y6604000D02*
Y7620000D01*
X6604000Y6350000D02*
X7620000D01*
X6350000Y3810000D02*
X7620000D01*
X6350000Y1270000D02*
X7620000D01*
X6350000Y-1270000D02*
X7620000D01*
X6350000Y-3810000D02*
X7620000D01*
X5080000Y5080000D02*
X7620000D01*
X5969000Y2540000D02*
X7620000Y2540000D01*
X7493000Y0D02*
X7620000D01*
X6756400Y-2540000D02*
X7620000Y-2540000D01*
X5080000Y-7620000D02*
Y-5080000D01*
X7620000D01*
X6985000Y-5715000D02*
X7620000D01*
X6350000Y-7620000D02*
Y-6604000D01*
X6604000Y-6350000D02*
X7620000D01*
X7239000Y-6985000D02*
X7620000D01*
X6985000Y-7620000D02*
Y-7239000D01*
Y-6731000D02*
Y-6350000D01*
X6350000Y-6985000D02*
X6731000D01*
X5080000Y292100D02*
X5080000Y-5080000D01*
X5080000Y254000D02*
X5080000Y5334000D01*
X-5588000Y-2540000D02*
X-5080000D01*
X5080000Y2540000D02*
X5588000D01*
X-5715000D02*
X-5080000D01*
X-5715000Y5080000D02*
Y5461000D01*
X-5461000Y5715000D02*
X-5080000D01*
X5080000D02*
X5461000D01*
X5715000Y5080000D02*
Y5461000D01*
Y-5461000D02*
Y-5080000D01*
X5080000Y-5715000D02*
X5461000D01*
X-5461000D02*
X-5080000D01*
X-5715000Y-5461000D02*
Y-5080000D01*
X-5080000Y0D02*
X5549900D01*
X0D02*
Y3556000D01*
X-444500Y3810000D02*
X762000D01*
X-762000D02*
X-381000D01*
X-635000Y1270000D02*
X635000Y1270000D01*
X0Y-5080000D02*
Y-3429000D01*
Y-3556000D02*
Y0D01*
X-635000Y-1270000D02*
X635000Y-1270000D01*
X-762000Y-3810000D02*
X-381000D01*
X762000D01*
X-2540001Y-2616200D02*
X-2540000Y2628900D01*
X2539999Y-2552700D02*
X2540000Y2044700D01*
X1270000Y-635000D02*
Y635000D01*
X-1270000Y-635000D02*
Y635000D01*
X-3810000Y-635000D02*
Y635000D01*
X3810000Y-635000D02*
Y635000D01*
X-5080000Y2540000D02*
X-4572000D01*
X-4254500D02*
X-3048000D01*
X-2762250D02*
X-1092200D01*
X1155700Y2540000D02*
X6083300Y2540001D01*
X3048000Y2540000D02*
X4254500D01*
X4572000D02*
X5080000D01*
X1219200Y-2540000D02*
X2762250Y-2540000D01*
X-2762250D02*
X-1651000D01*
X-4254500D02*
X-3048000D01*
X-5080000D02*
X-4572000D01*
D24*
X4770470Y-5892517D02*
Y-6019476D01*
X4728150Y-5977156D01*
X4685831Y-6019476D01*
Y-5892517D01*
X4643511D02*
Y-6019476D01*
X4601191Y-5977156D01*
X4558872Y-6019476D01*
Y-5892517D01*
X4516552D02*
Y-6019476D01*
X4474233Y-5977156D01*
X4431913Y-6019476D01*
Y-5892517D01*
X4389593Y-6019476D02*
Y-5998316D01*
X4368434D01*
Y-6019476D01*
X4389593D01*
X4283794Y-5892517D02*
X4199155D01*
X4241475D01*
Y-6019476D01*
X4156835Y-5892517D02*
Y-6019476D01*
Y-5955996D01*
X4072196D01*
Y-5892517D01*
Y-6019476D01*
X3945237Y-5892517D02*
X4029877D01*
Y-6019476D01*
X3945237D01*
X4029877Y-5955996D02*
X3987557D01*
X3902918D02*
X3818278D01*
X3775959Y-5892517D02*
Y-5998316D01*
X3754799Y-6019476D01*
X3712479D01*
X3691320Y-5998316D01*
Y-5892517D01*
X3649000Y-6019476D02*
Y-5892517D01*
X3564361Y-6019476D01*
Y-5892517D01*
X3522041D02*
X3479722D01*
X3500881D01*
Y-6019476D01*
X3522041D01*
X3479722D01*
X3416242Y-5892517D02*
X3331603D01*
X3373922D01*
Y-6019476D01*
X3289283D02*
Y-5998316D01*
X3268124D01*
Y-6019476D01*
X3289283D01*
X3120005Y-5892517D02*
X3162324D01*
X3183484Y-5913677D01*
Y-5998316D01*
X3162324Y-6019476D01*
X3120005D01*
X3098845Y-5998316D01*
Y-5913677D01*
X3120005Y-5892517D01*
X3056525Y-6019476D02*
Y-5892517D01*
X2993046D01*
X2971886Y-5913677D01*
Y-5955996D01*
X2993046Y-5977156D01*
X3056525D01*
X3014206D02*
X2971886Y-6019476D01*
X2844927Y-5913677D02*
X2866087Y-5892517D01*
X2908407D01*
X2929566Y-5913677D01*
Y-5998316D01*
X2908407Y-6019476D01*
X2866087D01*
X2844927Y-5998316D01*
Y-5955996D01*
X2887247D01*
%TF.MD5,af4ece89ff56a98b531e2a574df3ab2a*%
M02*
