%TF.GenerationSoftware,Altium Limited,Altium Designer,24.0.1 (36)*%
G04 Layer_Physical_Order=1*
G04 Layer_Color=255*
%FSLAX45Y45*%
%MOMM*%
%TF.SameCoordinates,866D2BB3-0181-4888-B1A9-34DB4857F756*%
%TF.FilePolarity,Positive*%
%TF.FileFunction,Copper,L1,Top,Signal*%
%TF.Part,Single*%
G01*
G75*
%TA.AperFunction,Conductor*%
%ADD10C,1.01600*%
%TA.AperFunction,ComponentPad*%
%ADD11C,1.27000*%
%ADD12R,1.37000X1.37000*%
%ADD13C,1.37000*%
%ADD14R,1.35000X1.35000*%
%ADD15C,1.35000*%
%ADD16C,1.37160*%
%ADD17R,1.35000X1.35000*%
%TA.AperFunction,WasherPad*%
%ADD18C,3.81000*%
%TA.AperFunction,ComponentPad*%
%ADD19O,3.20000X1.60000*%
%ADD20O,1.60000X3.20000*%
D10*
X5473409Y-1743800D02*
G03*
X5293804Y-1818195I0J-254000D01*
G01*
X4074894Y-1640106D02*
G03*
X4000499Y-1819711I179605J-179605D01*
G01*
X7228105Y-1373695D02*
G03*
X7302500Y-1194090I-179605J179605D01*
G01*
Y-803710D02*
G03*
X7228105Y-624105I-254000J0D01*
G01*
X6731000Y-21790D02*
G03*
X6805395Y-201395I254000J0D01*
G01*
X7059395Y971395D02*
G03*
X6985000Y791790I179605J-179605D01*
G01*
X6233895Y3672105D02*
G03*
X6054290Y3746500I-179605J-179605D01*
G01*
X7112000Y2688790D02*
G03*
X7037605Y2868395I-254000J0D01*
G01*
X6805395Y1217395D02*
G03*
X6731000Y1037790I179605J-179605D01*
G01*
X5270499Y2222501D02*
G03*
X5228500Y2121105I101396J-101396D01*
G01*
X6477000Y254290D02*
G03*
X6402605Y433895I-254000J0D01*
G01*
X6580575Y-643800D02*
G03*
X6540499Y-660400I0J-56676D01*
G01*
Y-575110D02*
G03*
X6466105Y-395505I-254000J0D01*
G01*
X5969000Y-97990D02*
G03*
X6043395Y-277595I254000J0D01*
G01*
X6223000Y-47190D02*
G03*
X6297395Y-226795I254000J0D01*
G01*
X6286499Y-625910D02*
G03*
X6212105Y-446305I-254000J0D01*
G01*
X381000Y-3069790D02*
G03*
X455395Y-3249395I254000J0D01*
G01*
X127000Y-3577790D02*
G03*
X201395Y-3757395I254000J0D01*
G01*
X-201395D02*
G03*
X-127000Y-3577790I-179605J179605D01*
G01*
X-455395Y-3249395D02*
G03*
X-381000Y-3069790I-179605J179605D01*
G01*
X-709395Y-2741395D02*
G03*
X-635000Y-2561790I-179605J179605D01*
G01*
X635000D02*
G03*
X709395Y-2741395I254000J0D01*
G01*
X1344395Y-2614395D02*
G03*
X1164790Y-2540000I-179605J-179605D01*
G01*
X-1164790D02*
G03*
X-1344395Y-2614395I0J-254000D01*
G01*
X4180105Y-3503395D02*
G03*
X4254499Y-3323790I-179605J179605D01*
G01*
X3133290Y-4445000D02*
G03*
X3312895Y-4370605I0J254000D01*
G01*
X145605Y-6191605D02*
G03*
X325210Y-6266000I179605J179605D01*
G01*
X-381000Y-6879790D02*
G03*
X-306605Y-7059395I254000J0D01*
G01*
X2906494Y3033494D02*
G03*
X2832099Y2853889I179605J-179605D01*
G01*
X2999005Y3126005D02*
G03*
X3073400Y3305610I-179605J179605D01*
G01*
Y3933390D02*
G03*
X2999005Y4112995I-254000J0D01*
G01*
X381000Y6879790D02*
G03*
X306605Y7059395I-254000J0D01*
G01*
X-381000Y3069790D02*
G03*
X-455395Y3249395I-254000J0D01*
G01*
X-127000Y3577790D02*
G03*
X-201395Y3757395I-254000J0D01*
G01*
X201395D02*
G03*
X127000Y3577790I179605J-179605D01*
G01*
X455395Y3249395D02*
G03*
X381000Y3069790I179605J-179605D01*
G01*
X709395Y2741395D02*
G03*
X635000Y2561790I179605J-179605D01*
G01*
X-635000D02*
G03*
X-709395Y2741395I-254000J0D01*
G01*
X1164790Y2540000D02*
G03*
X1344395Y2614395I0J254000D01*
G01*
X-1344395D02*
G03*
X-1164790Y2540000I179605J179605D01*
G01*
X5473409Y-1743800D02*
X5969000D01*
X4508499Y-2603499D02*
X5293804Y-1818195D01*
X4074894Y-1640106D02*
X5715000Y0D01*
X4000499Y-2603499D02*
Y-1819711D01*
X6858000Y-1743800D02*
X7228105Y-1373695D01*
X6985000Y0D02*
Y791790D01*
X7302500Y-1194090D02*
Y-803710D01*
X6805395Y-201395D02*
X7228105Y-624105D01*
X6731000Y0D02*
Y1037790D01*
Y-21790D02*
Y0D01*
X7059395Y971395D02*
X7112000Y1024000D01*
X3073400Y3746500D02*
Y3933390D01*
Y3305610D02*
Y3746500D01*
X6054290D01*
X6233895Y3672105D02*
X7037605Y2868395D01*
X6805395Y1217395D02*
X7112000Y1524000D01*
Y2688790D01*
X5228500Y508000D02*
Y2121105D01*
X6477000Y0D02*
Y254290D01*
X6328500Y508000D02*
X6402605Y433895D01*
X6540499Y-660400D02*
Y-575110D01*
Y-2603499D02*
Y-660400D01*
X6580575Y-643800D02*
X6858000D01*
X6043395Y-277595D02*
X6212105Y-446305D01*
X5969000Y-97990D02*
Y0D01*
Y-643800D02*
Y-97990D01*
X6223000Y-47190D02*
Y0D01*
X6297395Y-226795D02*
X6466105Y-395505D01*
X6286499Y-2603499D02*
Y-625910D01*
X455395Y-3249395D02*
X1143000Y-3937000D01*
X381000Y-3069790D02*
Y-2540000D01*
X201395Y-3757395D02*
X381000Y-3937000D01*
X127000Y-3577790D02*
Y-2540000D01*
X-381000Y-3937000D02*
X-201395Y-3757395D01*
X-127000Y-3577790D02*
Y-2540000D01*
X-1143000Y-3937000D02*
X-455395Y-3249395D01*
X-381000Y-3069790D02*
Y-2540000D01*
X-1905000Y-3937000D02*
X-709395Y-2741395D01*
X-635000Y-2561790D02*
Y-2540000D01*
X709395Y-2741395D02*
X1905000Y-3937000D01*
X635000Y-2561790D02*
Y-2540000D01*
X1344395Y-2614395D02*
X2667000Y-3937000D01*
X889000Y-2540000D02*
X1164790D01*
X-1164790D02*
X-889000D01*
X-2667000Y-3937000D02*
X-1344395Y-2614395D01*
X4254499Y-2603499D02*
X4508499D01*
X3312895Y-4370605D02*
X4180105Y-3503395D01*
X2667000Y-4445000D02*
X3133290D01*
X4254499Y-3323790D02*
Y-2603499D01*
X1905000Y-4445000D02*
X2667000D01*
X1143000D02*
X1905000D01*
X381000D02*
X1143000D01*
X0D02*
X381000D01*
X0Y-6046000D02*
X145605Y-6191605D01*
X-381000Y-4445000D02*
X0D01*
X-1143000D02*
X-381000D01*
X-1905000D02*
X-1143000D01*
X-2667000D02*
X-1905000D01*
X0Y-6046000D02*
Y-4445000D01*
X325210Y-6266000D02*
X520000D01*
X-381000Y-6879790D02*
Y-5461000D01*
X-306605Y-7059395D02*
X0Y-7366000D01*
X1905000Y-5461000D02*
X2667000D01*
X1143000D02*
X1905000D01*
X381000D02*
X1143000D01*
X-1143000D02*
X-381000D01*
X-1905000D02*
X-1143000D01*
X-2667000D02*
X-1905000D01*
X2832099Y2222501D02*
Y2853889D01*
X2906494Y3033494D02*
X2999005Y3126005D01*
X2667000Y4445000D02*
X2999005Y4112995D01*
X1905000Y4445000D02*
X2667000D01*
X1143000D02*
X1905000D01*
X381000D02*
X1143000D01*
X-381000D02*
X381000D01*
X-1143000D02*
X-381000D01*
X-1905000D02*
X-1143000D01*
X-2667000D02*
X-1905000D01*
X381000Y5461000D02*
Y6879790D01*
X0Y7366000D02*
X306605Y7059395D01*
X1905000Y5461000D02*
X2667000D01*
X1143000D02*
X1905000D01*
X381000D02*
X1143000D01*
X-381000D02*
X381000D01*
X-1143000D02*
X-381000D01*
X-1905000D02*
X-1143000D01*
X-2667000D02*
X-1905000D01*
X-1143000Y3937000D02*
X-455395Y3249395D01*
X-381000Y2540000D02*
Y3069790D01*
Y3937000D02*
X-201395Y3757395D01*
X-127000Y2540000D02*
Y3577790D01*
X201395Y3757395D02*
X381000Y3937000D01*
X127000Y2540000D02*
Y3577790D01*
X455395Y3249395D02*
X1143000Y3937000D01*
X381000Y2540000D02*
Y3069790D01*
X709395Y2741395D02*
X1905000Y3937000D01*
X635000Y2540000D02*
Y2561790D01*
X-1905000Y3937000D02*
X-709395Y2741395D01*
X-635000Y2540000D02*
Y2561790D01*
X1344395Y2614395D02*
X2667000Y3937000D01*
X889000Y2540000D02*
X1164790D01*
X-1164790D02*
X-889000D01*
X-2667000Y3937000D02*
X-1344395Y2614395D01*
D11*
X-381000Y-5461000D02*
D03*
Y-4953000D02*
D03*
Y-4445000D02*
D03*
Y-3937000D02*
D03*
X-2667000D02*
D03*
Y-4445000D02*
D03*
Y-4953000D02*
D03*
Y-5461000D02*
D03*
X-1143000D02*
D03*
Y-4953000D02*
D03*
Y-4445000D02*
D03*
Y-3937000D02*
D03*
X-1905000Y-5461000D02*
D03*
Y-4953000D02*
D03*
Y-4445000D02*
D03*
Y-3937000D02*
D03*
X2667000Y5461000D02*
D03*
Y4953000D02*
D03*
Y4445000D02*
D03*
Y3937000D02*
D03*
X1905000Y5461000D02*
D03*
Y4953000D02*
D03*
Y4445000D02*
D03*
Y3937000D02*
D03*
X1143000Y5461000D02*
D03*
Y4953000D02*
D03*
Y4445000D02*
D03*
Y3937000D02*
D03*
X381000Y5461000D02*
D03*
Y4953000D02*
D03*
Y4445000D02*
D03*
Y3937000D02*
D03*
X-381000Y5461000D02*
D03*
Y4953000D02*
D03*
Y4445000D02*
D03*
Y3937000D02*
D03*
X-1143000Y5461000D02*
D03*
Y4953000D02*
D03*
Y4445000D02*
D03*
Y3937000D02*
D03*
X-1905000Y5461000D02*
D03*
Y4953000D02*
D03*
Y4445000D02*
D03*
Y3937000D02*
D03*
X-2667000Y5461000D02*
D03*
Y4953000D02*
D03*
Y4445000D02*
D03*
Y3937000D02*
D03*
X1905000Y-5461000D02*
D03*
Y-4953000D02*
D03*
Y-4445000D02*
D03*
Y-3937000D02*
D03*
X381000Y-5461000D02*
D03*
Y-4953000D02*
D03*
Y-4445000D02*
D03*
Y-3937000D02*
D03*
X1143000Y-5461000D02*
D03*
Y-4953000D02*
D03*
Y-4445000D02*
D03*
Y-3937000D02*
D03*
X2667000Y-5461000D02*
D03*
Y-4953000D02*
D03*
Y-4445000D02*
D03*
Y-3937000D02*
D03*
D12*
X889000Y2540000D02*
D03*
Y-2540000D02*
D03*
X2984499Y-2603499D02*
D03*
X2070099Y2222501D02*
D03*
X5270499Y-2603499D02*
D03*
X6985000Y0D02*
D03*
X4762499Y2222501D02*
D03*
D13*
X635000Y2540000D02*
D03*
X381000D02*
D03*
X127000D02*
D03*
X-127000D02*
D03*
X-381000D02*
D03*
X-635000D02*
D03*
X-889000D02*
D03*
Y-2540000D02*
D03*
X-635000D02*
D03*
X-381000D02*
D03*
X-127000D02*
D03*
X127000D02*
D03*
X381000D02*
D03*
X635000D02*
D03*
X4762499Y-2603499D02*
D03*
X4508499D02*
D03*
X4254499D02*
D03*
X4000499D02*
D03*
X3746499D02*
D03*
X3492499D02*
D03*
X3238499D02*
D03*
X4356099Y2222501D02*
D03*
X4102099D02*
D03*
X3848099D02*
D03*
X3594099D02*
D03*
X3340099D02*
D03*
X3086099D02*
D03*
X2832099D02*
D03*
X2578099D02*
D03*
X2324099D02*
D03*
X6540499Y-2603499D02*
D03*
X6286499D02*
D03*
X6032499D02*
D03*
X5778499D02*
D03*
X5524499D02*
D03*
X6731000Y0D02*
D03*
X6477000D02*
D03*
X6223000D02*
D03*
X5969000D02*
D03*
X5715000D02*
D03*
X6540499Y2222501D02*
D03*
X6286499D02*
D03*
X6032499D02*
D03*
X5778499D02*
D03*
X5524499D02*
D03*
X5270499D02*
D03*
X5016499D02*
D03*
D14*
X6858000Y-643800D02*
D03*
X5969000D02*
D03*
D15*
X6858000Y-1743800D02*
D03*
X5969000D02*
D03*
X5228500Y508000D02*
D03*
D16*
X7112000Y1024000D02*
D03*
Y1524000D02*
D03*
D17*
X6328500Y508000D02*
D03*
D18*
X-6985000Y6985000D02*
D03*
X6985000D02*
D03*
Y-6985000D02*
D03*
X-6985000D02*
D03*
X-6350000Y-6350000D02*
D03*
X6350000D02*
D03*
Y6350000D02*
D03*
X-6350000D02*
D03*
X-5715000Y5715000D02*
D03*
X5715000D02*
D03*
Y-5715000D02*
D03*
X-5715000D02*
D03*
D19*
X0Y-7366000D02*
D03*
Y-6046000D02*
D03*
Y7366000D02*
D03*
Y6046000D02*
D03*
D20*
X520000Y-6266000D02*
D03*
X-520000Y6266000D02*
D03*
%TF.MD5,fd9898f403104538e34d4f9e8d88fb8b*%
M02*
