%TF.GenerationSoftware,Altium Limited,Altium Designer,24.0.1 (36)*%
G04 Layer_Color=16777215*
%FSLAX45Y45*%
%MOMM*%
%TF.SameCoordinates,866D2BB3-0181-4888-B1A9-34DB4857F756*%
%TF.FilePolarity,Positive*%
%TF.FileFunction,Legend,Top*%
%TF.Part,Single*%
G01*
G75*
%TA.AperFunction,NonConductor*%
%ADD21C,0.38100*%
%ADD22C,0.20000*%
%ADD23C,0.15240*%
%ADD24C,0.25400*%
%ADD25C,0.12700*%
%ADD26C,3.17500*%
%ADD27C,0.76200*%
%ADD28C,1.27000*%
%ADD29C,0.07620*%
D21*
X6324600Y-546100D02*
G03*
X6315620Y-524420I-30660J0D01*
G01*
X5270500Y571500D02*
X5321300Y622300D01*
X5219699Y622301D02*
X5270499Y571501D01*
X5270500Y571500D02*
Y711201D01*
X6413500Y508000D02*
X6477000Y444500D01*
Y190500D02*
X6527800Y241300D01*
X6426199Y241301D02*
X6476999Y190501D01*
X6477000Y190500D02*
Y444500D01*
X6223000Y-177800D02*
X6553200Y-508000D01*
Y-609600D02*
Y-508000D01*
X5969000Y-177800D02*
X6315620Y-524420D01*
X6324600Y-673100D02*
Y-546100D01*
X-3048000Y-5588000D02*
X-2921000Y-5715000D01*
X-3175000D02*
X-2921000D01*
X-6096000Y-4572000D02*
X-2921000Y-5715000D01*
X5257800Y1733549D02*
Y1873251D01*
X5206999Y1784351D02*
X5257799Y1733551D01*
X5257800Y1733549D02*
X5308600Y1784349D01*
X6502400Y-736600D02*
X6553200Y-787400D01*
X6604000Y-736600D01*
X6553200Y-787400D02*
Y-609600D01*
X6273800Y-622300D02*
X6324600Y-673100D01*
X6375400Y-622300D01*
X6286499Y-2209799D02*
X6337299Y-2260599D01*
X6388099Y-2209799D01*
X6502400Y-2197100D02*
X6553200Y-2247900D01*
X6604000Y-2197100D01*
X6337299Y-2260599D02*
Y-2159000D01*
X6553200Y-2247900D02*
Y-2159000D01*
X-5461000Y-3619500D02*
X-5334000D01*
Y-3746500D02*
Y-3619500D01*
Y-3746500D02*
Y-3683000D01*
Y-3619500D01*
X-6096000Y-4381500D02*
X-5334000Y-3619500D01*
X-5270500Y-3556000D02*
X-5143500D01*
Y-3429000D01*
X-4064000Y-4508500D02*
Y-4191000D01*
X-3619500Y-4508500D02*
Y-4191000D01*
X-4508500Y-4508500D02*
Y-4191000D01*
X-4953000Y-4508500D02*
Y-4191000D01*
X-5270500D02*
X-3365500D01*
Y-3429000D01*
X-5270500D02*
X-3365500D01*
X-5270500Y-4191000D02*
Y-3429000D01*
X-6337333Y-3136941D02*
X-6362725Y-3111549D01*
X-6413508D01*
X-6438900Y-3136941D01*
Y-3238508D01*
X-6413508Y-3263900D01*
X-6362725D01*
X-6337333Y-3238508D01*
X-6210374Y-3111549D02*
X-6261157D01*
X-6286549Y-3136941D01*
Y-3238508D01*
X-6261157Y-3263900D01*
X-6210374D01*
X-6184982Y-3238508D01*
Y-3136941D01*
X-6210374Y-3111549D01*
X-6134199Y-3263900D02*
Y-3111549D01*
X-6083415Y-3162333D01*
X-6032631Y-3111549D01*
Y-3263900D01*
X-5981848Y-3111549D02*
Y-3238508D01*
X-5956456Y-3263900D01*
X-5905672D01*
X-5880281Y-3238508D01*
Y-3111549D01*
X-5727930Y-3136941D02*
X-5753322Y-3111549D01*
X-5804105D01*
X-5829497Y-3136941D01*
Y-3162333D01*
X-5804105Y-3187725D01*
X-5753322D01*
X-5727930Y-3213117D01*
Y-3238508D01*
X-5753322Y-3263900D01*
X-5804105D01*
X-5829497Y-3238508D01*
X-5524796Y-3136941D02*
X-5499404Y-3111549D01*
X-5448620D01*
X-5423228Y-3136941D01*
Y-3162333D01*
X-5448620Y-3187725D01*
X-5474012D01*
X-5448620D01*
X-5423228Y-3213117D01*
Y-3238508D01*
X-5448620Y-3263900D01*
X-5499404D01*
X-5524796Y-3238508D01*
X-5270878Y-3111549D02*
X-5372445D01*
Y-3187725D01*
X-5321661Y-3162333D01*
X-5296270D01*
X-5270878Y-3187725D01*
Y-3238508D01*
X-5296270Y-3263900D01*
X-5347053D01*
X-5372445Y-3238508D01*
X-5220094Y-3111549D02*
X-5118527D01*
Y-3136941D01*
X-5220094Y-3238508D01*
Y-3263900D01*
X-5067743Y-3136941D02*
X-5042352Y-3111549D01*
X-4991568D01*
X-4966176Y-3136941D01*
Y-3238508D01*
X-4991568Y-3263900D01*
X-5042352D01*
X-5067743Y-3238508D01*
Y-3136941D01*
X-4915393Y-3187725D02*
X-4813826D01*
X-4763042Y-3263900D02*
X-4712259D01*
X-4737650D01*
Y-3111549D01*
X-4763042Y-3136941D01*
X-4636083D02*
X-4610691Y-3111549D01*
X-4559908D01*
X-4534516Y-3136941D01*
Y-3162333D01*
X-4559908Y-3187725D01*
X-4585300D01*
X-4559908D01*
X-4534516Y-3213117D01*
Y-3238508D01*
X-4559908Y-3263900D01*
X-4610691D01*
X-4636083Y-3238508D01*
X-4483732Y-3136941D02*
X-4458341Y-3111549D01*
X-4407557D01*
X-4382165Y-3136941D01*
Y-3162333D01*
X-4407557Y-3187725D01*
X-4432949D01*
X-4407557D01*
X-4382165Y-3213117D01*
Y-3238508D01*
X-4407557Y-3263900D01*
X-4458341D01*
X-4483732Y-3238508D01*
X-4331382Y-3263900D02*
X-4280598D01*
X-4305990D01*
Y-3111549D01*
X-4331382Y-3136941D01*
X-4204423Y-3187725D02*
X-4102856D01*
X-4052072Y-3136941D02*
X-4026680Y-3111549D01*
X-3975897D01*
X-3950505Y-3136941D01*
Y-3238508D01*
X-3975897Y-3263900D01*
X-4026680D01*
X-4052072Y-3238508D01*
Y-3136941D01*
X-3798154Y-3111549D02*
X-3899721D01*
Y-3187725D01*
X-3848938Y-3162333D01*
X-3823546D01*
X-3798154Y-3187725D01*
Y-3238508D01*
X-3823546Y-3263900D01*
X-3874330D01*
X-3899721Y-3238508D01*
X-3747371Y-3136941D02*
X-3721979Y-3111549D01*
X-3671195D01*
X-3645803Y-3136941D01*
Y-3162333D01*
X-3671195Y-3187725D01*
X-3696587D01*
X-3671195D01*
X-3645803Y-3213117D01*
Y-3238508D01*
X-3671195Y-3263900D01*
X-3721979D01*
X-3747371Y-3238508D01*
X-3442669Y-3263900D02*
Y-3111549D01*
X-3366494D01*
X-3341102Y-3136941D01*
Y-3187725D01*
X-3366494Y-3213117D01*
X-3442669D01*
X-3391886D02*
X-3341102Y-3263900D01*
X-3188751Y-3111549D02*
X-3290319D01*
Y-3263900D01*
X-3188751D01*
X-3290319Y-3187725D02*
X-3239535D01*
X-3137968Y-3111549D02*
Y-3263900D01*
X-3036401D01*
X-2985617D02*
Y-3162333D01*
X-2934834Y-3111549D01*
X-2884050Y-3162333D01*
Y-3263900D01*
Y-3187725D01*
X-2985617D01*
X-2833266Y-3111549D02*
Y-3136941D01*
X-2782483Y-3187725D01*
X-2731699Y-3136941D01*
Y-3111549D01*
X-2782483Y-3187725D02*
Y-3263900D01*
X-2579348Y-3136941D02*
X-2604740Y-3111549D01*
X-2655524D01*
X-2680916Y-3136941D01*
Y-3162333D01*
X-2655524Y-3187725D01*
X-2604740D01*
X-2579348Y-3213117D01*
Y-3238508D01*
X-2604740Y-3263900D01*
X-2655524D01*
X-2680916Y-3238508D01*
X-6819900Y-4533900D02*
Y-4381549D01*
X-6743725D01*
X-6718333Y-4406941D01*
Y-4457725D01*
X-6743725Y-4483117D01*
X-6819900D01*
X-6667549Y-4381549D02*
X-6616766D01*
X-6642157D01*
Y-4533900D01*
X-6667549D01*
X-6616766D01*
X-6540590D02*
Y-4381549D01*
X-6439023Y-4533900D01*
Y-4381549D01*
X-6235889Y-4533900D02*
X-6185105D01*
X-6210497D01*
Y-4381549D01*
X-6235889Y-4406941D01*
D22*
X1091000Y2540000D02*
G03*
X1091000Y2540000I-10000J0D01*
G01*
Y-2540000D02*
G03*
X1091000Y-2540000I-10000J0D01*
G01*
X2802499Y-2603499D02*
G03*
X2802499Y-2603499I-10000J0D01*
G01*
X1888099Y2222501D02*
G03*
X1888099Y2222501I-10000J0D01*
G01*
X5088499Y-2603499D02*
G03*
X5088499Y-2603499I-10000J0D01*
G01*
X7187000Y0D02*
G03*
X7187000Y0I-10000J0D01*
G01*
X4580499Y2222501D02*
G03*
X4580499Y2222501I-10000J0D01*
G01*
X660000Y-7366000D02*
G03*
X660000Y-7366000I-10000J0D01*
G01*
X-640000Y7366000D02*
G03*
X-640000Y7366000I-10000J0D01*
G01*
X1016000Y2413000D02*
Y2667000D01*
X-1016000Y2413000D02*
Y2667000D01*
Y2413000D02*
X1016000D01*
X-1016000Y2667000D02*
X1016000D01*
X6983000Y-1574800D02*
Y-812800D01*
X6733000Y-1574800D02*
X6983000D01*
X6733000D02*
Y-812800D01*
X6983000D01*
X6858000D02*
Y-751300D01*
Y-1636300D02*
Y-1574800D01*
X5969000Y-1636300D02*
Y-1574800D01*
Y-812800D02*
Y-751300D01*
X5844000Y-812800D02*
X6094000D01*
X5844000Y-1574800D02*
Y-812800D01*
Y-1574800D02*
X6094000D01*
Y-812800D01*
X-1016000Y-2413000D02*
X1016000D01*
X-1016000Y-2667000D02*
X1016000D01*
X-1016000D02*
Y-2413000D01*
X1016000Y-2667000D02*
Y-2413000D01*
X2857499Y-2730499D02*
X4889499D01*
X2857499Y-2476499D02*
X4889499D01*
Y-2730499D02*
Y-2476499D01*
X2857499Y-2730499D02*
Y-2476499D01*
X1943099Y2095501D02*
X4483099D01*
X1943099Y2349501D02*
X4483099D01*
Y2095501D02*
Y2349501D01*
X1943099Y2095501D02*
Y2349501D01*
X5143499Y-2730499D02*
X6667499D01*
X5143499Y-2476499D02*
X6667499D01*
Y-2730499D02*
Y-2476499D01*
X5143499Y-2730499D02*
Y-2476499D01*
X5397500Y383000D02*
X6159500D01*
X5397500D02*
Y633000D01*
X6159500D01*
Y383000D02*
Y633000D01*
Y508000D02*
X6221000D01*
X5336000D02*
X5397500D01*
X7112000Y-127000D02*
Y127000D01*
X5588000Y-127000D02*
Y127000D01*
Y-127000D02*
X7112000D01*
X5588000Y127000D02*
X7112000D01*
X4635499Y2095501D02*
X6667499D01*
X4635499Y2349501D02*
X6667499D01*
Y2095501D02*
Y2349501D01*
X4635499Y2095501D02*
Y2349501D01*
D23*
X7649210Y1274000D02*
G03*
X7649210Y1274000I-537210J0D01*
G01*
X-114300Y-5661660D02*
Y-3736340D01*
X-647700D02*
X-114300D01*
X-647700Y-5661660D02*
Y-3736340D01*
Y-5661660D02*
X-114300D01*
X-2933700D02*
X-2400300D01*
X-2933700D02*
Y-3736340D01*
X-2400300D01*
Y-5661660D02*
Y-3736340D01*
X-876300Y-5661660D02*
Y-3736340D01*
X-1409700D02*
X-876300D01*
X-1409700Y-5661660D02*
Y-3736340D01*
Y-5661660D02*
X-876300D01*
X-1638300D02*
Y-3736340D01*
X-2171700D02*
X-1638300D01*
X-2171700Y-5661660D02*
Y-3736340D01*
Y-5661660D02*
X-1638300D01*
X2400300Y3736340D02*
Y5661660D01*
Y3736340D02*
X2933700D01*
Y5661660D01*
X2400300D02*
X2933700D01*
X1638300Y3736340D02*
Y5661660D01*
Y3736340D02*
X2171700D01*
Y5661660D01*
X1638300D02*
X2171700D01*
X876300Y3736340D02*
Y5661660D01*
Y3736340D02*
X1409700D01*
Y5661660D01*
X876300D02*
X1409700D01*
X114300Y3736340D02*
Y5661660D01*
Y3736340D02*
X647700D01*
Y5661660D01*
X114300D02*
X647700D01*
X-647700Y3736340D02*
Y5661660D01*
Y3736340D02*
X-114300D01*
Y5661660D01*
X-647700D02*
X-114300D01*
X-1409700Y3736340D02*
Y5661660D01*
Y3736340D02*
X-876300D01*
Y5661660D01*
X-1409700D02*
X-876300D01*
X-2171700Y3736340D02*
Y5661660D01*
Y3736340D02*
X-1638300D01*
Y5661660D01*
X-2171700D02*
X-1638300D01*
X-2933700Y3736340D02*
Y5661660D01*
Y3736340D02*
X-2400300D01*
Y5661660D01*
X-2933700D02*
X-2400300D01*
X2171700Y-5661660D02*
Y-3736340D01*
X1638300D02*
X2171700D01*
X1638300Y-5661660D02*
Y-3736340D01*
Y-5661660D02*
X2171700D01*
X647700D02*
Y-3736340D01*
X114300D02*
X647700D01*
X114300Y-5661660D02*
Y-3736340D01*
Y-5661660D02*
X647700D01*
X1409700D02*
Y-3736340D01*
X876300D02*
X1409700D01*
X876300Y-5661660D02*
Y-3736340D01*
Y-5661660D02*
X1409700D01*
X2933700D02*
Y-3736340D01*
X2400300D02*
X2933700D01*
X2400300Y-5661660D02*
Y-3736340D01*
Y-5661660D02*
X2933700D01*
X7112000Y597090D02*
Y724090D01*
X7048500Y660590D02*
X7175500D01*
D24*
X-3175000Y-5715000D02*
X-2921000D01*
X-711200Y2260600D02*
X-677877D01*
X-694539D01*
Y2360568D01*
X-711200Y2343906D01*
X-561249Y2260600D02*
X-627894D01*
X-561249Y2327245D01*
Y2343906D01*
X-577910Y2360568D01*
X-611232D01*
X-627894Y2343906D01*
X4305299Y2026407D02*
X4321961Y2043069D01*
X4355283D01*
X4371945Y2026407D01*
Y2009746D01*
X4355283Y1993085D01*
X4371945Y1976424D01*
Y1959762D01*
X4355283Y1943101D01*
X4321961D01*
X4305299Y1959762D01*
Y1976424D01*
X4321961Y1993085D01*
X4305299Y2009746D01*
Y2026407D01*
X4321961Y1993085D02*
X4355283D01*
X3936680Y-2378387D02*
Y-2445032D01*
X3986664D01*
X3970003Y-2411710D01*
Y-2395049D01*
X3986664Y-2378387D01*
X4019987D01*
X4036648Y-2395049D01*
Y-2428371D01*
X4019987Y-2445032D01*
X3936680Y-2345065D02*
X4003325D01*
X4036648Y-2311742D01*
X4003325Y-2278420D01*
X3936680D01*
X5208632Y812800D02*
X5308600D01*
Y879445D01*
X5208632Y979413D02*
Y912768D01*
X5308600D01*
Y979413D01*
X5258616Y912768D02*
Y946090D01*
X5208632Y1012736D02*
X5308600D01*
Y1062719D01*
X5291939Y1079381D01*
X5225294D01*
X5208632Y1062719D01*
Y1012736D01*
Y1212671D02*
X5308600D01*
Y1262655D01*
X5291939Y1279316D01*
X5225294D01*
X5208632Y1262655D01*
Y1212671D01*
X5308600Y1312639D02*
X5208632D01*
Y1362623D01*
X5225294Y1379284D01*
X5258616D01*
X5275277Y1362623D01*
Y1312639D01*
Y1345961D02*
X5308600Y1379284D01*
X5208632Y1412607D02*
Y1445929D01*
Y1429268D01*
X5308600D01*
Y1412607D01*
Y1445929D01*
X5208632Y1495913D02*
X5275277D01*
X5308600Y1529236D01*
X5275277Y1562558D01*
X5208632D01*
Y1662526D02*
Y1595881D01*
X5308600D01*
Y1662526D01*
X5258616Y1595881D02*
Y1629203D01*
X2812294Y1857345D02*
X2795632Y1840684D01*
Y1807361D01*
X2812294Y1790700D01*
X2878939D01*
X2895600Y1807361D01*
Y1840684D01*
X2878939Y1857345D01*
X2845616D01*
Y1824023D01*
X2895600Y1890668D02*
X2795632D01*
X2895600Y1957313D01*
X2795632D01*
Y1990636D02*
X2895600D01*
Y2040619D01*
X2878939Y2057281D01*
X2812294D01*
X2795632Y2040619D01*
Y1990636D01*
X5460999Y-2438399D02*
X5494322D01*
X5477661D01*
Y-2338431D01*
X5460999Y-2355093D01*
X5610951Y-2338431D02*
X5544306D01*
Y-2388415D01*
X5577628Y-2371754D01*
X5594290D01*
X5610951Y-2388415D01*
Y-2421738D01*
X5594290Y-2438399D01*
X5560967D01*
X5544306Y-2421738D01*
X4211422Y-2364665D02*
X4194760Y-2381326D01*
Y-2414649D01*
X4211422Y-2431310D01*
X4278067D01*
X4294728Y-2414649D01*
Y-2381326D01*
X4278067Y-2364665D01*
X4244744D01*
Y-2397988D01*
X4294728Y-2331343D02*
X4194760D01*
X4294728Y-2264698D01*
X4194760D01*
Y-2231375D02*
X4294728D01*
Y-2181391D01*
X4278067Y-2164730D01*
X4211422D01*
X4194760Y-2181391D01*
Y-2231375D01*
X676245Y-2362200D02*
X609600D01*
X676245Y-2295555D01*
Y-2278894D01*
X659584Y-2262232D01*
X626261D01*
X609600Y-2278894D01*
X5549900Y553206D02*
X5566561Y569868D01*
X5599884D01*
X5616545Y553206D01*
Y536545D01*
X5599884Y519884D01*
X5583223D01*
X5599884D01*
X5616545Y503223D01*
Y486561D01*
X5599884Y469900D01*
X5566561D01*
X5549900Y486561D01*
X5649868Y553206D02*
X5666529Y569868D01*
X5699852D01*
X5716513Y553206D01*
Y536545D01*
X5699852Y519884D01*
X5683190D01*
X5699852D01*
X5716513Y503223D01*
Y486561D01*
X5699852Y469900D01*
X5666529D01*
X5649868Y486561D01*
X5749836Y553206D02*
X5766497Y569868D01*
X5799819D01*
X5816481Y553206D01*
Y486561D01*
X5799819Y469900D01*
X5766497D01*
X5749836Y486561D01*
Y553206D01*
X3807773Y1931816D02*
X3841096D01*
X3824435D01*
Y2031784D01*
X3807773Y2015123D01*
X3891080D02*
X3907741Y2031784D01*
X3941064D01*
X3957725Y2015123D01*
Y1948478D01*
X3941064Y1931816D01*
X3907741D01*
X3891080Y1948478D01*
Y2015123D01*
X6698494Y-390555D02*
X6681832Y-407216D01*
Y-440539D01*
X6698494Y-457200D01*
X6765139D01*
X6781800Y-440539D01*
Y-407216D01*
X6765139Y-390555D01*
X6731816D01*
Y-423877D01*
X6781800Y-357232D02*
X6681832D01*
X6781800Y-290587D01*
X6681832D01*
Y-257264D02*
X6781800D01*
Y-207281D01*
X6765139Y-190619D01*
X6698494D01*
X6681832Y-207281D01*
Y-257264D01*
X342900Y2343906D02*
X359561Y2360568D01*
X392884D01*
X409545Y2343906D01*
Y2327245D01*
X392884Y2310584D01*
X409545Y2293923D01*
Y2277261D01*
X392884Y2260600D01*
X359561D01*
X342900Y2277261D01*
Y2293923D01*
X359561Y2310584D01*
X342900Y2327245D01*
Y2343906D01*
X359561Y2310584D02*
X392884D01*
X-203200Y2260600D02*
X-169877D01*
X-186539D01*
Y2360568D01*
X-203200Y2343906D01*
X-119894D02*
X-103232Y2360568D01*
X-69910D01*
X-53249Y2343906D01*
Y2277261D01*
X-69910Y2260600D01*
X-103232D01*
X-119894Y2277261D01*
Y2343906D01*
X-177800Y-2362200D02*
X-144477D01*
X-161139D01*
Y-2262232D01*
X-177800Y-2278894D01*
X-94494Y-2262232D02*
X-27849D01*
Y-2278894D01*
X-94494Y-2345539D01*
Y-2362200D01*
X6883400Y-1371600D02*
Y-1338277D01*
Y-1354938D01*
X6783432D01*
X6800093Y-1371600D01*
Y-1288293D02*
X6783432Y-1271632D01*
Y-1238309D01*
X6800093Y-1221648D01*
X6866738D01*
X6883400Y-1238309D01*
Y-1271632D01*
X6866738Y-1288293D01*
X6800093D01*
Y-1188326D02*
X6783432Y-1171664D01*
Y-1138342D01*
X6800093Y-1121681D01*
X6866738D01*
X6883400Y-1138342D01*
Y-1171664D01*
X6866738Y-1188326D01*
X6800093D01*
X6883400Y-1088358D02*
X6783432D01*
X6850077D02*
X6816755Y-1038374D01*
X6850077Y-1088358D02*
X6883400Y-1038374D01*
X-698501Y-2362199D02*
X-665178D01*
X-681839D01*
Y-2262231D01*
X-698501Y-2278893D01*
X-548549Y-2262231D02*
X-615194D01*
Y-2312215D01*
X-581872Y-2295554D01*
X-565210D01*
X-548549Y-2312215D01*
Y-2345538D01*
X-565210Y-2362199D01*
X-598533D01*
X-615194Y-2345538D01*
X-444500Y2260600D02*
X-411177D01*
X-427839D01*
Y2360568D01*
X-444500Y2343906D01*
X-361194Y2260600D02*
X-327871D01*
X-344532D01*
Y2360568D01*
X-361194Y2343906D01*
X889000Y-2362200D02*
X922323D01*
X905661D01*
Y-2262232D01*
X889000Y-2278894D01*
X340673Y-2277477D02*
X357335Y-2260816D01*
X390657D01*
X407318Y-2277477D01*
Y-2294139D01*
X390657Y-2310800D01*
X373996D01*
X390657D01*
X407318Y-2327461D01*
Y-2344122D01*
X390657Y-2360784D01*
X357335D01*
X340673Y-2344122D01*
X5738173Y2015123D02*
X5754835Y2031784D01*
X5788157D01*
X5804818Y2015123D01*
Y1998461D01*
X5788157Y1981800D01*
X5771496D01*
X5788157D01*
X5804818Y1965139D01*
Y1948478D01*
X5788157Y1931816D01*
X5754835D01*
X5738173Y1948478D01*
X6883400Y1930400D02*
X6916723D01*
X6900061D01*
Y2030368D01*
X6883400Y2013706D01*
X6966706D02*
X6983368Y2030368D01*
X7016690D01*
X7033351Y2013706D01*
Y1947061D01*
X7016690Y1930400D01*
X6983368D01*
X6966706Y1947061D01*
Y2013706D01*
X7066674D02*
X7083336Y2030368D01*
X7116658D01*
X7133319Y2013706D01*
Y1947061D01*
X7116658Y1930400D01*
X7083336D01*
X7066674Y1947061D01*
Y2013706D01*
X7166642D02*
X7183303Y2030368D01*
X7216626D01*
X7233287Y2013706D01*
Y1947061D01*
X7216626Y1930400D01*
X7183303D01*
X7166642Y1947061D01*
Y2013706D01*
X7366578Y1997045D02*
Y1947061D01*
X7383239Y1930400D01*
X7433223D01*
Y1997045D01*
X7533190Y2030368D02*
X7466545D01*
Y1980384D01*
X7499868D01*
X7466545D01*
Y1930400D01*
X136657Y-2360784D02*
Y-2260816D01*
X86673Y-2310800D01*
X153318D01*
X7240632Y473045D02*
Y406400D01*
X7290616D01*
X7273955Y439723D01*
Y456384D01*
X7290616Y473045D01*
X7323939D01*
X7340600Y456384D01*
Y423061D01*
X7323939Y406400D01*
X7240632Y506368D02*
X7307277D01*
X7340600Y539690D01*
X7307277Y573013D01*
X7240632D01*
X5966773Y-2436984D02*
X6000096D01*
X5983435D01*
Y-2337016D01*
X5966773Y-2353677D01*
X6050080Y-2337016D02*
X6116725D01*
Y-2353677D01*
X6050080Y-2420322D01*
Y-2436984D01*
X3045773Y1931816D02*
X3079096D01*
X3062435D01*
Y2031784D01*
X3045773Y2015123D01*
X3129080D02*
X3145741Y2031784D01*
X3179064D01*
X3195725Y2015123D01*
Y1998461D01*
X3179064Y1981800D01*
X3162402D01*
X3179064D01*
X3195725Y1965139D01*
Y1948478D01*
X3179064Y1931816D01*
X3145741D01*
X3129080Y1948478D01*
X6248400Y-2413000D02*
Y-2346355D01*
X6281723Y-2313032D01*
X6315045Y-2346355D01*
Y-2413000D01*
Y-2363016D01*
X6248400D01*
X6398352Y-2413000D02*
Y-2313032D01*
X6348368Y-2363016D01*
X6415013D01*
X5714999Y-2438399D02*
X5748322D01*
X5731661D01*
Y-2338431D01*
X5714999Y-2355093D01*
X5864951Y-2338431D02*
X5831628Y-2355093D01*
X5798306Y-2388415D01*
Y-2421738D01*
X5814967Y-2438399D01*
X5848290D01*
X5864951Y-2421738D01*
Y-2405076D01*
X5848290Y-2388415D01*
X5798306D01*
X5994400Y-1422400D02*
Y-1389077D01*
Y-1405738D01*
X5894432D01*
X5911093Y-1422400D01*
Y-1339093D02*
X5894432Y-1322432D01*
Y-1289109D01*
X5911093Y-1272448D01*
X5977738D01*
X5994400Y-1289109D01*
Y-1322432D01*
X5977738Y-1339093D01*
X5911093D01*
Y-1239126D02*
X5894432Y-1222464D01*
Y-1189142D01*
X5911093Y-1172481D01*
X5977738D01*
X5994400Y-1189142D01*
Y-1222464D01*
X5977738Y-1239126D01*
X5911093D01*
X5994400Y-1139158D02*
X5894432D01*
X5961077D02*
X5927755Y-1089174D01*
X5961077Y-1139158D02*
X5994400Y-1089174D01*
X-444501Y-2362199D02*
X-411178D01*
X-427839D01*
Y-2262231D01*
X-444501Y-2278893D01*
X-294549Y-2262231D02*
X-327872Y-2278893D01*
X-361194Y-2312215D01*
Y-2345538D01*
X-344533Y-2362199D01*
X-311210D01*
X-294549Y-2345538D01*
Y-2328876D01*
X-311210Y-2312215D01*
X-361194D01*
X6275432Y-2058216D02*
Y-2091539D01*
X6292094Y-2108200D01*
X6358739D01*
X6375400Y-2091539D01*
Y-2058216D01*
X6358739Y-2041555D01*
X6292094D01*
X6275432Y-2058216D01*
Y-2008232D02*
X6358739D01*
X6375400Y-1991571D01*
Y-1958248D01*
X6358739Y-1941587D01*
X6275432D01*
Y-1908264D02*
Y-1841619D01*
Y-1874942D01*
X6375400D01*
Y-1808297D02*
X6275432D01*
Y-1758313D01*
X6292094Y-1741652D01*
X6325416D01*
X6342077Y-1758313D01*
Y-1808297D01*
X6275432Y-1708329D02*
X6358739D01*
X6375400Y-1691667D01*
Y-1658345D01*
X6358739Y-1641684D01*
X6275432D01*
Y-1608361D02*
Y-1541716D01*
Y-1575039D01*
X6375400D01*
X6275432Y-1408425D02*
X6375400D01*
Y-1358442D01*
X6358739Y-1341780D01*
X6342077D01*
X6325416Y-1358442D01*
Y-1408425D01*
Y-1358442D01*
X6308755Y-1341780D01*
X6292094D01*
X6275432Y-1358442D01*
Y-1408425D01*
Y-1308458D02*
X6358739D01*
X6375400Y-1291796D01*
Y-1258474D01*
X6358739Y-1241813D01*
X6275432D01*
Y-1208490D02*
Y-1141845D01*
Y-1175167D01*
X6375400D01*
X6275432Y-1108522D02*
Y-1041877D01*
Y-1075200D01*
X6375400D01*
X6275432Y-958570D02*
Y-991893D01*
X6292094Y-1008554D01*
X6358739D01*
X6375400Y-991893D01*
Y-958570D01*
X6358739Y-941909D01*
X6292094D01*
X6275432Y-958570D01*
X6375400Y-908586D02*
X6275432D01*
X6375400Y-841941D01*
X6275432D01*
X6292094Y-741974D02*
X6275432Y-758635D01*
Y-791957D01*
X6292094Y-808619D01*
X6308755D01*
X6325416Y-791957D01*
Y-758635D01*
X6342077Y-741974D01*
X6358739D01*
X6375400Y-758635D01*
Y-791957D01*
X6358739Y-808619D01*
X3301999Y1930401D02*
X3335322D01*
X3318661D01*
Y2030369D01*
X3301999Y2013707D01*
X3451951Y1930401D02*
X3385306D01*
X3451951Y1997046D01*
Y2013707D01*
X3435290Y2030369D01*
X3401967D01*
X3385306Y2013707D01*
X6248400Y1930400D02*
X6281723D01*
X6265061D01*
Y2030368D01*
X6248400Y2013706D01*
X6061045Y1930401D02*
X5994399D01*
X6061045Y1997046D01*
Y2013707D01*
X6044383Y2030369D01*
X6011061D01*
X5994399Y2013707D01*
X88900Y2277261D02*
X105561Y2260600D01*
X138884D01*
X155545Y2277261D01*
Y2343906D01*
X138884Y2360568D01*
X105561D01*
X88900Y2343906D01*
Y2327245D01*
X105561Y2310584D01*
X155545D01*
X-954727Y-2360784D02*
X-921404D01*
X-938065D01*
Y-2260816D01*
X-954727Y-2277477D01*
X-821436Y-2360784D02*
Y-2260816D01*
X-871420Y-2310800D01*
X-804775D01*
X6477000Y-2413000D02*
Y-2346355D01*
X6510323Y-2313032D01*
X6543645Y-2346355D01*
Y-2413000D01*
Y-2363016D01*
X6477000D01*
X6643613Y-2313032D02*
X6576968D01*
Y-2363016D01*
X6610290Y-2346355D01*
X6626952D01*
X6643613Y-2363016D01*
Y-2396339D01*
X6626952Y-2413000D01*
X6593629D01*
X6576968Y-2396339D01*
X-965200Y2260600D02*
X-931877D01*
X-948539D01*
Y2360568D01*
X-965200Y2343906D01*
X-881894D02*
X-865232Y2360568D01*
X-831910D01*
X-815249Y2343906D01*
Y2327245D01*
X-831910Y2310584D01*
X-848571D01*
X-831910D01*
X-815249Y2293923D01*
Y2277261D01*
X-831910Y2260600D01*
X-865232D01*
X-881894Y2277261D01*
X4722173Y2031784D02*
X4788818D01*
Y2015123D01*
X4722173Y1948478D01*
Y1931816D01*
X4472959Y-2366864D02*
X4456297Y-2383526D01*
Y-2416848D01*
X4472959Y-2433509D01*
X4539604D01*
X4556265Y-2416848D01*
Y-2383526D01*
X4539604Y-2366864D01*
X4506281D01*
Y-2400187D01*
X4556265Y-2333542D02*
X4456297D01*
X4556265Y-2266897D01*
X4456297D01*
Y-2233574D02*
X4556265D01*
Y-2183590D01*
X4539604Y-2166929D01*
X4472959D01*
X4456297Y-2183590D01*
Y-2233574D01*
X5204773Y-2436984D02*
X5238096D01*
X5221435D01*
Y-2337016D01*
X5204773Y-2353677D01*
X5338064Y-2436984D02*
Y-2337016D01*
X5288080Y-2387000D01*
X5354725D01*
X5534157Y1931816D02*
Y2031784D01*
X5484173Y1981800D01*
X5550818D01*
X5299045Y2030369D02*
X5232399D01*
Y1980385D01*
X5265722Y1997046D01*
X5282383D01*
X5299045Y1980385D01*
Y1947062D01*
X5282383Y1930401D01*
X5249061D01*
X5232399Y1947062D01*
X609600Y2360568D02*
X676245D01*
Y2343906D01*
X609600Y2277261D01*
Y2260600D01*
X5045045Y2030369D02*
X5011722Y2013707D01*
X4978399Y1980385D01*
Y1947062D01*
X4995061Y1930401D01*
X5028383D01*
X5045045Y1947062D01*
Y1963724D01*
X5028383Y1980385D01*
X4978399D01*
X3555999Y1930401D02*
X3589322D01*
X3572661D01*
Y2030369D01*
X3555999Y2013707D01*
X3639306Y1930401D02*
X3672628D01*
X3655967D01*
Y2030369D01*
X3639306Y2013707D01*
X4713332Y-2425699D02*
X4779977D01*
X4813299Y-2392376D01*
X4779977Y-2359054D01*
X4713332D01*
X4813299Y-2325731D02*
Y-2292409D01*
Y-2309070D01*
X4746654D01*
Y-2325731D01*
X4813299Y-2242425D02*
X4746654D01*
Y-2192441D01*
X4763316Y-2175780D01*
X4813299D01*
X6504032Y-2108200D02*
Y-2074877D01*
Y-2091539D01*
X6604000D01*
Y-2108200D01*
Y-2074877D01*
Y-2024894D02*
X6504032D01*
X6604000Y-1958249D01*
X6504032D01*
X6604000Y-1924926D02*
X6504032D01*
Y-1874942D01*
X6520694Y-1858281D01*
X6554016D01*
X6570677Y-1874942D01*
Y-1924926D01*
X6504032Y-1824958D02*
X6587339D01*
X6604000Y-1808297D01*
Y-1774974D01*
X6587339Y-1758313D01*
X6504032D01*
Y-1724990D02*
Y-1658345D01*
Y-1691668D01*
X6604000D01*
X6504032Y-1525055D02*
X6604000D01*
Y-1475071D01*
X6587339Y-1458410D01*
X6570677D01*
X6554016Y-1475071D01*
Y-1525055D01*
Y-1475071D01*
X6537355Y-1458410D01*
X6520694D01*
X6504032Y-1475071D01*
Y-1525055D01*
Y-1425087D02*
X6587339D01*
X6604000Y-1408425D01*
Y-1375103D01*
X6587339Y-1358442D01*
X6504032D01*
Y-1325119D02*
Y-1258474D01*
Y-1291797D01*
X6604000D01*
X6504032Y-1225151D02*
Y-1158506D01*
Y-1191829D01*
X6604000D01*
X6504032Y-1075200D02*
Y-1108522D01*
X6520694Y-1125183D01*
X6587339D01*
X6604000Y-1108522D01*
Y-1075200D01*
X6587339Y-1058538D01*
X6520694D01*
X6504032Y-1075200D01*
X6604000Y-1025216D02*
X6504032D01*
X6604000Y-958571D01*
X6504032D01*
X6520694Y-858603D02*
X6504032Y-875264D01*
Y-908586D01*
X6520694Y-925248D01*
X6537355D01*
X6554016Y-908586D01*
Y-875264D01*
X6570677Y-858603D01*
X6587339D01*
X6604000Y-875264D01*
Y-908586D01*
X6587339Y-925248D01*
X917545Y2360568D02*
X884223Y2343906D01*
X850900Y2310584D01*
Y2277261D01*
X867561Y2260600D01*
X900884D01*
X917545Y2277261D01*
Y2293923D01*
X900884Y2310584D01*
X850900D01*
X4051299Y1959762D02*
X4067961Y1943101D01*
X4101283D01*
X4117945Y1959762D01*
Y2026407D01*
X4101283Y2043069D01*
X4067961D01*
X4051299Y2026407D01*
Y2009746D01*
X4067961Y1993085D01*
X4117945D01*
D25*
X-500000Y-6066000D02*
X-192000D01*
X192000D02*
X500000D01*
Y-7616000D02*
Y-6458000D01*
X-500000Y-7616000D02*
Y-6066000D01*
X192000Y6066000D02*
X500000D01*
X-500000D02*
X-192000D01*
X-500000Y6458000D02*
Y7616000D01*
X500000Y6066000D02*
Y7616000D01*
D26*
X1361692Y-7214738D02*
X1869692Y-6770238D01*
X853692D02*
X1361692Y-7214738D01*
Y-7151238D02*
Y-6350000D01*
X1425192Y6310762D02*
Y7239000D01*
X917192Y6691762D02*
X1425192Y6247262D01*
X1933192Y6691762D01*
D27*
X2755900Y441714D02*
Y653312D01*
X2861699Y759111D01*
X2967498Y653312D01*
Y441714D01*
Y600412D01*
X2755900D01*
X3073297Y441714D02*
Y759111D01*
X3231996D01*
X3284896Y706211D01*
Y600412D01*
X3231996Y547513D01*
X3073297D01*
X3179097D02*
X3284896Y441714D01*
X3390695Y759111D02*
Y441714D01*
X3549393D01*
X3602293Y494613D01*
Y706211D01*
X3549393Y759111D01*
X3390695D01*
X3708092D02*
Y494613D01*
X3760992Y441714D01*
X3866791D01*
X3919690Y494613D01*
Y759111D01*
X4025490D02*
X4131289D01*
X4078389D01*
Y441714D01*
X4025490D01*
X4131289D01*
X4289987D02*
Y759111D01*
X4501586Y441714D01*
Y759111D01*
X4766083D02*
X4660284D01*
X4607385Y706211D01*
Y494613D01*
X4660284Y441714D01*
X4766083D01*
X4818983Y494613D01*
Y706211D01*
X4766083Y759111D01*
X2755900Y195354D02*
Y-69144D01*
X2808800Y-122043D01*
X2914599D01*
X2967498Y-69144D01*
Y195354D01*
X3073297Y-122043D02*
Y195354D01*
X3284896Y-122043D01*
Y195354D01*
X3549393D02*
X3443594D01*
X3390695Y142455D01*
Y-69144D01*
X3443594Y-122043D01*
X3549393D01*
X3602293Y-69144D01*
Y142455D01*
X3549393Y195354D01*
X2967498Y-421302D02*
X2914599Y-368403D01*
X2808800D01*
X2755900Y-421302D01*
Y-474202D01*
X2808800Y-527101D01*
X2914599D01*
X2967498Y-580001D01*
Y-632900D01*
X2914599Y-685800D01*
X2808800D01*
X2755900Y-632900D01*
X3073297Y-368403D02*
Y-685800D01*
Y-527101D01*
X3284896D01*
Y-368403D01*
Y-685800D01*
X3390695Y-368403D02*
X3496494D01*
X3443594D01*
Y-685800D01*
X3390695D01*
X3496494D01*
X3866791Y-368403D02*
X3655193D01*
Y-685800D01*
X3866791D01*
X3655193Y-527101D02*
X3760992D01*
X3972590Y-368403D02*
Y-685800D01*
X4184188D01*
X4289987Y-368403D02*
Y-685800D01*
X4448686D01*
X4501586Y-632900D01*
Y-421302D01*
X4448686Y-368403D01*
X4289987D01*
D28*
X-6096000Y-7239000D02*
Y-6815803D01*
X-5884402Y-6604205D01*
X-5672803Y-6815803D01*
Y-7239000D01*
Y-6921603D01*
X-6096000D01*
X-5461205Y-6604205D02*
Y-7133201D01*
X-5355406Y-7239000D01*
X-5143808D01*
X-5038009Y-7133201D01*
Y-6604205D01*
X-4826410D02*
Y-7239000D01*
X-4509013D01*
X-4403214Y-7133201D01*
Y-6710004D01*
X-4509013Y-6604205D01*
X-4826410D01*
X-4191616D02*
X-3980017D01*
X-4085817D01*
Y-7239000D01*
X-4191616D01*
X-3980017D01*
X-3345223Y-6604205D02*
X-3556821D01*
X-3662620Y-6710004D01*
Y-7133201D01*
X-3556821Y-7239000D01*
X-3345223D01*
X-3239424Y-7133201D01*
Y-6710004D01*
X-3345223Y-6604205D01*
X-2075633D02*
X-2287231D01*
X-2393031Y-6710004D01*
Y-7133201D01*
X-2287231Y-7239000D01*
X-2075633D01*
X-1969834Y-7133201D01*
Y-6710004D01*
X-2075633Y-6604205D01*
X-1758236D02*
Y-7133201D01*
X-1652437Y-7239000D01*
X-1440838D01*
X-1335039Y-7133201D01*
Y-6604205D01*
X-1123441D02*
X-700244D01*
X-911843D01*
Y-7239000D01*
X-5588000Y6477000D02*
Y6900197D01*
X-5376402Y7111795D01*
X-5164803Y6900197D01*
Y6477000D01*
Y6794397D01*
X-5588000D01*
X-4953205Y7111795D02*
Y6582799D01*
X-4847406Y6477000D01*
X-4635808D01*
X-4530009Y6582799D01*
Y7111795D01*
X-4318410D02*
Y6477000D01*
X-4001013D01*
X-3895214Y6582799D01*
Y7005996D01*
X-4001013Y7111795D01*
X-4318410D01*
X-3683616D02*
X-3472017D01*
X-3577817D01*
Y6477000D01*
X-3683616D01*
X-3472017D01*
X-2837223Y7111795D02*
X-3048821D01*
X-3154620Y7005996D01*
Y6582799D01*
X-3048821Y6477000D01*
X-2837223D01*
X-2731424Y6582799D01*
Y7005996D01*
X-2837223Y7111795D01*
X-1885031D02*
X-1673432D01*
X-1779231D01*
Y6477000D01*
X-1885031D01*
X-1673432D01*
X-1356035D02*
Y7111795D01*
X-932838Y6477000D01*
Y7111795D01*
D29*
X-423299Y-5782310D02*
X-338660Y-5697671D01*
Y-5782310D02*
X-423299Y-5697671D01*
X-380979Y-5782310D02*
Y-5697671D01*
X-338660Y-5739990D02*
X-423299D01*
X-2709299Y-5782310D02*
X-2624660Y-5697671D01*
Y-5782310D02*
X-2709299Y-5697671D01*
X-2666979Y-5782310D02*
Y-5697671D01*
X-2624660Y-5739990D02*
X-2709299D01*
X-1185299Y-5782310D02*
X-1100660Y-5697671D01*
Y-5782310D02*
X-1185299Y-5697671D01*
X-1142979Y-5782310D02*
Y-5697671D01*
X-1100660Y-5739990D02*
X-1185299D01*
X-1947299Y-5782310D02*
X-1862660Y-5697671D01*
Y-5782310D02*
X-1947299Y-5697671D01*
X-1904979Y-5782310D02*
Y-5697671D01*
X-1862660Y-5739990D02*
X-1947299D01*
X2709299Y5782310D02*
X2624660Y5697671D01*
Y5782310D02*
X2709299Y5697671D01*
X2666979Y5782310D02*
Y5697671D01*
X2624660Y5739990D02*
X2709299D01*
X1947299Y5782310D02*
X1862660Y5697671D01*
Y5782310D02*
X1947299Y5697671D01*
X1904979Y5782310D02*
Y5697671D01*
X1862660Y5739990D02*
X1947299D01*
X1185299Y5782310D02*
X1100660Y5697671D01*
Y5782310D02*
X1185299Y5697671D01*
X1142979Y5782310D02*
Y5697671D01*
X1100660Y5739990D02*
X1185299D01*
X423299Y5782310D02*
X338660Y5697671D01*
Y5782310D02*
X423299Y5697671D01*
X380979Y5782310D02*
Y5697671D01*
X338660Y5739990D02*
X423299D01*
X-338701Y5782310D02*
X-423340Y5697671D01*
Y5782310D02*
X-338701Y5697671D01*
X-381021Y5782310D02*
Y5697671D01*
X-423340Y5739990D02*
X-338701D01*
X-1100701Y5782310D02*
X-1185340Y5697671D01*
Y5782310D02*
X-1100701Y5697671D01*
X-1143021Y5782310D02*
Y5697671D01*
X-1185340Y5739990D02*
X-1100701D01*
X-1862701Y5782310D02*
X-1947340Y5697671D01*
Y5782310D02*
X-1862701Y5697671D01*
X-1905021Y5782310D02*
Y5697671D01*
X-1947340Y5739990D02*
X-1862701D01*
X-2624701Y5782310D02*
X-2709340Y5697671D01*
Y5782310D02*
X-2624701Y5697671D01*
X-2667021Y5782310D02*
Y5697671D01*
X-2709340Y5739990D02*
X-2624701D01*
X1862701Y-5782310D02*
X1947340Y-5697671D01*
Y-5782310D02*
X1862701Y-5697671D01*
X1905021Y-5782310D02*
Y-5697671D01*
X1947340Y-5739990D02*
X1862701D01*
X338701Y-5782310D02*
X423340Y-5697671D01*
Y-5782310D02*
X338701Y-5697671D01*
X381021Y-5782310D02*
Y-5697671D01*
X423340Y-5739990D02*
X338701D01*
X1100701Y-5782310D02*
X1185340Y-5697671D01*
Y-5782310D02*
X1100701Y-5697671D01*
X1143021Y-5782310D02*
Y-5697671D01*
X1185340Y-5739990D02*
X1100701D01*
X2624701Y-5782310D02*
X2709340Y-5697671D01*
Y-5782310D02*
X2624701Y-5697671D01*
X2667021Y-5782310D02*
Y-5697671D01*
X2709340Y-5739990D02*
X2624701D01*
%TF.MD5,84b5ef75bd33a2305e070f01c9821298*%
M02*
