%TF.GenerationSoftware,Altium Limited,Altium Designer,24.0.1 (36)*%
G04 Layer_Physical_Order=2*
G04 Layer_Color=16711680*
%FSLAX45Y45*%
%MOMM*%
%TF.SameCoordinates,866D2BB3-0181-4888-B1A9-34DB4857F756*%
%TF.FilePolarity,Positive*%
%TF.FileFunction,Copper,L2,Bot,Signal*%
%TF.Part,Single*%
G01*
G75*
%TA.AperFunction,Conductor*%
%ADD10C,1.01600*%
%TA.AperFunction,ComponentPad*%
%ADD11C,1.27000*%
%ADD12R,1.37000X1.37000*%
%ADD13C,1.37000*%
%ADD14R,1.35000X1.35000*%
%ADD15C,1.35000*%
%ADD16C,1.37160*%
%ADD17R,1.35000X1.35000*%
%TA.AperFunction,WasherPad*%
%ADD18C,3.81000*%
%TA.AperFunction,ComponentPad*%
%ADD19O,3.20000X1.60000*%
%ADD20O,1.60000X3.20000*%
D10*
X2220167Y-7126505D02*
G03*
X2741395Y-6910605I1J737126D01*
G01*
X-2286000Y-5990790D02*
G03*
X-2211605Y-6170395I254000J0D01*
G01*
X-963395Y-6656605D02*
G03*
X-477184Y-6858000I486210J486211D01*
G01*
X5958105Y-3693895D02*
G03*
X6032499Y-3514290I-179605J179605D01*
G01*
X-2286000Y-5439210D02*
G03*
X-2360395Y-5259605I-254000J0D01*
G01*
X5894605Y-179605D02*
G03*
X6074210Y-254000I179605J179605D01*
G01*
X6625790D02*
G03*
X6805395Y-179605I0J254000D01*
G01*
X-762000Y-6133198D02*
G03*
X-698500Y-6286500I216802J0D01*
G01*
X-455395Y-6529605D02*
G03*
X-275790Y-6604000I179605J179605D01*
G01*
X2053790D02*
G03*
X2233395Y-6529605I0J254000D01*
G01*
X2128184Y-6858000D02*
G03*
X2614395Y-6656605I1J687606D01*
G01*
X2211605Y-4646395D02*
G03*
X2286000Y-4466790I-179605J179605D01*
G01*
Y-3597710D02*
G03*
X2211605Y-3418105I-254000J0D01*
G01*
X1968500Y-3069790D02*
G03*
X2042895Y-3249395I254000J0D01*
G01*
Y-370105D02*
G03*
X1968500Y-549710I179605J-179605D01*
G01*
X3661210Y1143000D02*
G03*
X3481605Y1068605I0J-254000D01*
G01*
X3448921Y1397000D02*
G03*
X3269316Y1322605I0J-254000D01*
G01*
X3915210Y889000D02*
G03*
X3735605Y814605I0J-254000D01*
G01*
X2550895Y-370105D02*
G03*
X2476500Y-549710I179605J-179605D01*
G01*
Y-2625290D02*
G03*
X2550895Y-2804895I254000J0D01*
G01*
X3175000Y-3534210D02*
G03*
X3100605Y-3354605I-254000J0D01*
G01*
Y-4519395D02*
G03*
X3175000Y-4339790I-179605J179605D01*
G01*
X1598395Y-348316D02*
G03*
X1524000Y-527921I179605J-179605D01*
G01*
X1449605Y-4646395D02*
G03*
X1524000Y-4466790I-179605J179605D01*
G01*
X3343710Y1651000D02*
G03*
X3164105Y1576605I0J-254000D01*
G01*
X687605Y-4646395D02*
G03*
X762000Y-4466790I-179605J179605D01*
G01*
X825500Y-3238500D02*
G03*
X762000Y-3391802I153302J-153302D01*
G01*
X1132105Y-2931895D02*
G03*
X1206500Y-2752290I-179605J179605D01*
G01*
X1280895Y-306605D02*
G03*
X1206500Y-486210I179605J-179605D01*
G01*
X5270499Y1651000D02*
G03*
X5524499Y1905000I0J254000D01*
G01*
Y1397000D02*
G03*
X5778499Y1651000I0J254000D01*
G01*
Y1143000D02*
G03*
X6032499Y1397000I0J254000D01*
G01*
Y889000D02*
G03*
X6286499Y1143000I0J254000D01*
G01*
X-201395Y-5132605D02*
G03*
X-21790Y-5207000I179605J179605D01*
G01*
X2942790D02*
G03*
X3122395Y-5132605I0J254000D01*
G01*
X5196105Y-3058895D02*
G03*
X5270499Y-2879290I-179605J179605D01*
G01*
X-762000Y-5439210D02*
G03*
X-836395Y-5259605I-254000J0D01*
G01*
X5450105Y-3312895D02*
G03*
X5524499Y-3133290I-179605J179605D01*
G01*
X-1524000Y-5439210D02*
G03*
X-1598395Y-5259605I-254000J0D01*
G01*
X-1524000Y-5990790D02*
G03*
X-1449605Y-6170395I254000J0D01*
G01*
X5704105Y-3566895D02*
G03*
X5778499Y-3387290I-179605J179605D01*
G01*
X50800Y4880410D02*
G03*
X125195Y4700805I254000J0D01*
G01*
X50800Y5923358D02*
G03*
X0Y6046000I-173442J0D01*
G01*
X-145605Y6191605D02*
G03*
X-325210Y6266000I-179605J-179605D01*
G01*
X4102099Y2726890D02*
G03*
X4027705Y2906495I-254000J0D01*
G01*
X3401795Y3532405D02*
G03*
X3222190Y3606800I-179605J-179605D01*
G01*
X3198595Y3380005D02*
G03*
X3018990Y3454400I-179605J-179605D01*
G01*
X3848099Y2625290D02*
G03*
X3773705Y2804895I-254000J0D01*
G01*
X3020795Y3227605D02*
G03*
X2841190Y3302000I-179605J-179605D01*
G01*
X3594099Y2549090D02*
G03*
X3519705Y2728695I-254000J0D01*
G01*
X3340099Y2447490D02*
G03*
X3265705Y2627095I-254000J0D01*
G01*
X2817595Y3075205D02*
G03*
X2637990Y3149600I-179605J-179605D01*
G01*
X3086099Y2345890D02*
G03*
X3011705Y2525495I-254000J0D01*
G01*
X2614395Y2922805D02*
G03*
X2434790Y2997200I-179605J-179605D01*
G01*
X2084605Y4773395D02*
G03*
X2264210Y4699000I179605J179605D01*
G01*
X3350995Y4624605D02*
G03*
X3171390Y4699000I-179605J-179605D01*
G01*
X4762499Y3107890D02*
G03*
X4688105Y3287495I-254000J0D01*
G01*
X4356099Y3082490D02*
G03*
X4281705Y3262095I-254000J0D01*
G01*
X3401795Y4142005D02*
G03*
X3222190Y4216400I-179605J-179605D01*
G01*
X1498600Y4419600D02*
G03*
X1701800Y4216400I203200J0D01*
G01*
X1498600Y4492190D02*
G03*
X1424205Y4671795I-254000J0D01*
G01*
X-1524000Y4466790D02*
G03*
X-1598395Y4646395I-254000J0D01*
G01*
X-1524000Y3839010D02*
G03*
X-1449605Y3659405I254000J0D01*
G01*
X-762000Y4466790D02*
G03*
X-836395Y4646395I-254000J0D01*
G01*
X-762000Y3788210D02*
G03*
X-687605Y3608605I254000J0D01*
G01*
X0Y3886200D02*
G03*
X431800Y3454400I431800J0D01*
G01*
X-1572996Y3020794D02*
G03*
X-1516035Y2997200I56961J56961D01*
G01*
X-1039595Y3249394D02*
G03*
X-798669Y3149600I240926J240925D01*
G01*
X762000Y3886200D02*
G03*
X1041400Y3606800I279400J0D01*
G01*
X-556995Y3477994D02*
G03*
X-132106Y3302000I424889J424889D01*
G01*
X762000Y4466790D02*
G03*
X687605Y4646395I-254000J0D01*
G01*
X0Y4466790D02*
G03*
X-74395Y4646395I-254000J0D01*
G01*
X-2311400Y4492190D02*
G03*
X-2385795Y4671795I-254000J0D01*
G01*
X-2311400Y3864410D02*
G03*
X-2237005Y3684805I254000J0D01*
G01*
X3503395Y4878605D02*
G03*
X3323790Y4953000I-179605J-179605D01*
G01*
X5016499Y3260290D02*
G03*
X4942105Y3439895I-254000J0D01*
G01*
X-2211605Y-6170395D02*
X-1255495Y-7126505D01*
X2220167D01*
X-1449605Y-6170395D02*
X-963395Y-6656605D01*
X2741395Y-6910605D02*
X5958105Y-3693895D01*
X-2667000Y-4953000D02*
X-2360395Y-5259605D01*
X-2286000Y-5990790D02*
Y-5439210D01*
X5715000Y0D02*
X5894605Y-179605D01*
X5969000Y-1743800D02*
X6858000D01*
X6074210Y-254000D02*
X6625790D01*
X6805395Y-179605D02*
X6985000Y0D01*
X-381000Y-5461000D02*
X381000D01*
X-762000Y-6133198D02*
Y-5439210D01*
X-698500Y-6286500D02*
X-455395Y-6529605D01*
X-275790Y-6604000D02*
X2053790D01*
X2233395Y-6529605D02*
X5450105Y-3312895D01*
X-477184Y-6858000D02*
X2128184D01*
X1905000Y-4953000D02*
X2211605Y-4646395D01*
X2286000Y-4466790D02*
Y-3597710D01*
X2042895Y-3249395D02*
X2211605Y-3418105D01*
X1968500Y-3069790D02*
Y-549710D01*
X2042895Y-370105D02*
X3481605Y1068605D01*
X3661210Y1143000D02*
X5778499D01*
X-21790Y-5207000D02*
X2942790D01*
X1598395Y-348316D02*
X3269316Y1322605D01*
X1280895Y-306605D02*
X3164105Y1576605D01*
X3915210Y889000D02*
X6032499D01*
X2550895Y-370105D02*
X3735605Y814605D01*
X2476500Y-2625290D02*
Y-549710D01*
X2550895Y-2804895D02*
X3100605Y-3354605D01*
X3175000Y-4339790D02*
Y-3534210D01*
X2667000Y-4953000D02*
X3100605Y-4519395D01*
X3448921Y1397000D02*
X5524499D01*
X3343710Y1651000D02*
X5270499D01*
X1524000Y-4466790D02*
Y-527921D01*
X1143000Y-4953000D02*
X1449605Y-4646395D01*
X381000Y-4953000D02*
X687605Y-4646395D01*
X762000Y-4466790D02*
Y-3391802D01*
X825500Y-3238500D02*
X1132105Y-2931895D01*
X1206500Y-2752290D02*
Y-486210D01*
X5524499Y1905000D02*
Y2222501D01*
X5778499Y1651000D02*
Y2222501D01*
X6032499Y1397000D02*
Y2222501D01*
X6286499Y1143000D02*
Y2222501D01*
X-381000Y-4953000D02*
X-201395Y-5132605D01*
X3122395D02*
X5196105Y-3058895D01*
X5270499Y-2879290D02*
Y-2603499D01*
X-1143000Y-4953000D02*
X-836395Y-5259605D01*
X5524499Y-3133290D02*
Y-2603499D01*
X-1905000Y-4953000D02*
X-1598395Y-5259605D01*
X-1524000Y-5990790D02*
Y-5439210D01*
X2614395Y-6656605D02*
X5704105Y-3566895D01*
X5778499Y-3387290D02*
Y-2603499D01*
X6032499Y-3514290D02*
Y-2603499D01*
X125195Y4700805D02*
X381000Y4445000D01*
X50800Y4880410D02*
Y5923358D01*
X-145605Y6191605D02*
X0Y6046000D01*
X-520000Y6266000D02*
X-325210D01*
X4102099Y2222501D02*
Y2726890D01*
X3401795Y3532405D02*
X4027705Y2906495D01*
X1041400Y3606800D02*
X3222190D01*
X3198595Y3380005D02*
X3773705Y2804895D01*
X431800Y3454400D02*
X3018990D01*
X-132106Y3302000D02*
X2841190D01*
X3020795Y3227605D02*
X3519705Y2728695D01*
X2817595Y3075205D02*
X3265705Y2627095D01*
X2614395Y2922805D02*
X3011705Y2525495D01*
X1905000Y4953000D02*
X2084605Y4773395D01*
X2264210Y4699000D02*
X3171390D01*
X3350995Y4624605D02*
X4688105Y3287495D01*
X4762499Y2222501D02*
Y3107890D01*
X4356099Y2222501D02*
Y3082490D01*
X3401795Y4142005D02*
X4281705Y3262095D01*
X1701800Y4216400D02*
X3222190D01*
X1498600Y4419600D02*
Y4492190D01*
X1143000Y4953000D02*
X1424205Y4671795D01*
X3340099Y2222501D02*
Y2447490D01*
X-1905000Y4953000D02*
X-1598395Y4646395D01*
X-1449605Y3659405D02*
X-1039595Y3249395D01*
X-1524000Y3839010D02*
Y4466790D01*
X3594099Y2222501D02*
Y2549090D01*
X-1143000Y4953000D02*
X-836395Y4646395D01*
X-687605Y3608605D02*
X-556995Y3477995D01*
X-762000Y3788210D02*
Y4466790D01*
X-1516035Y2997200D02*
X2434790D01*
X-798669Y3149600D02*
X2637990D01*
X762000Y3886200D02*
Y4466790D01*
X381000Y4953000D02*
X687605Y4646395D01*
X-381000Y4953000D02*
X-74395Y4646395D01*
X0Y3886200D02*
Y4466790D01*
X3848099Y2222501D02*
Y2625290D01*
X-2237005Y3684805D02*
X-1572995Y3020795D01*
X-2667000Y4953000D02*
X-2385795Y4671795D01*
X-2311400Y3864410D02*
Y4492190D01*
X3086099Y2222501D02*
Y2345890D01*
X3503395Y4878605D02*
X4942105Y3439895D01*
X2667000Y4953000D02*
X3323790D01*
X5016499Y2222501D02*
Y3260290D01*
D11*
X-381000Y-5461000D02*
D03*
Y-4953000D02*
D03*
Y-4445000D02*
D03*
Y-3937000D02*
D03*
X-2667000D02*
D03*
Y-4445000D02*
D03*
Y-4953000D02*
D03*
Y-5461000D02*
D03*
X-1143000D02*
D03*
Y-4953000D02*
D03*
Y-4445000D02*
D03*
Y-3937000D02*
D03*
X-1905000Y-5461000D02*
D03*
Y-4953000D02*
D03*
Y-4445000D02*
D03*
Y-3937000D02*
D03*
X2667000Y5461000D02*
D03*
Y4953000D02*
D03*
Y4445000D02*
D03*
Y3937000D02*
D03*
X1905000Y5461000D02*
D03*
Y4953000D02*
D03*
Y4445000D02*
D03*
Y3937000D02*
D03*
X1143000Y5461000D02*
D03*
Y4953000D02*
D03*
Y4445000D02*
D03*
Y3937000D02*
D03*
X381000Y5461000D02*
D03*
Y4953000D02*
D03*
Y4445000D02*
D03*
Y3937000D02*
D03*
X-381000Y5461000D02*
D03*
Y4953000D02*
D03*
Y4445000D02*
D03*
Y3937000D02*
D03*
X-1143000Y5461000D02*
D03*
Y4953000D02*
D03*
Y4445000D02*
D03*
Y3937000D02*
D03*
X-1905000Y5461000D02*
D03*
Y4953000D02*
D03*
Y4445000D02*
D03*
Y3937000D02*
D03*
X-2667000Y5461000D02*
D03*
Y4953000D02*
D03*
Y4445000D02*
D03*
Y3937000D02*
D03*
X1905000Y-5461000D02*
D03*
Y-4953000D02*
D03*
Y-4445000D02*
D03*
Y-3937000D02*
D03*
X381000Y-5461000D02*
D03*
Y-4953000D02*
D03*
Y-4445000D02*
D03*
Y-3937000D02*
D03*
X1143000Y-5461000D02*
D03*
Y-4953000D02*
D03*
Y-4445000D02*
D03*
Y-3937000D02*
D03*
X2667000Y-5461000D02*
D03*
Y-4953000D02*
D03*
Y-4445000D02*
D03*
Y-3937000D02*
D03*
D12*
X889000Y2540000D02*
D03*
Y-2540000D02*
D03*
X2984499Y-2603499D02*
D03*
X2070099Y2222501D02*
D03*
X5270499Y-2603499D02*
D03*
X6985000Y0D02*
D03*
X4762499Y2222501D02*
D03*
D13*
X635000Y2540000D02*
D03*
X381000D02*
D03*
X127000D02*
D03*
X-127000D02*
D03*
X-381000D02*
D03*
X-635000D02*
D03*
X-889000D02*
D03*
Y-2540000D02*
D03*
X-635000D02*
D03*
X-381000D02*
D03*
X-127000D02*
D03*
X127000D02*
D03*
X381000D02*
D03*
X635000D02*
D03*
X4762499Y-2603499D02*
D03*
X4508499D02*
D03*
X4254499D02*
D03*
X4000499D02*
D03*
X3746499D02*
D03*
X3492499D02*
D03*
X3238499D02*
D03*
X4356099Y2222501D02*
D03*
X4102099D02*
D03*
X3848099D02*
D03*
X3594099D02*
D03*
X3340099D02*
D03*
X3086099D02*
D03*
X2832099D02*
D03*
X2578099D02*
D03*
X2324099D02*
D03*
X6540499Y-2603499D02*
D03*
X6286499D02*
D03*
X6032499D02*
D03*
X5778499D02*
D03*
X5524499D02*
D03*
X6731000Y0D02*
D03*
X6477000D02*
D03*
X6223000D02*
D03*
X5969000D02*
D03*
X5715000D02*
D03*
X6540499Y2222501D02*
D03*
X6286499D02*
D03*
X6032499D02*
D03*
X5778499D02*
D03*
X5524499D02*
D03*
X5270499D02*
D03*
X5016499D02*
D03*
D14*
X6858000Y-643800D02*
D03*
X5969000D02*
D03*
D15*
X6858000Y-1743800D02*
D03*
X5969000D02*
D03*
X5228500Y508000D02*
D03*
D16*
X7112000Y1024000D02*
D03*
Y1524000D02*
D03*
D17*
X6328500Y508000D02*
D03*
D18*
X-6985000Y6985000D02*
D03*
X6985000D02*
D03*
Y-6985000D02*
D03*
X-6985000D02*
D03*
X-6350000Y-6350000D02*
D03*
X6350000D02*
D03*
Y6350000D02*
D03*
X-6350000D02*
D03*
X-5715000Y5715000D02*
D03*
X5715000D02*
D03*
Y-5715000D02*
D03*
X-5715000D02*
D03*
D19*
X0Y-7366000D02*
D03*
Y-6046000D02*
D03*
Y7366000D02*
D03*
Y6046000D02*
D03*
D20*
X520000Y-6266000D02*
D03*
X-520000Y6266000D02*
D03*
%TF.MD5,5ba6282e0fcac3ca50f71e97d1272d13*%
M02*
