%TF.GenerationSoftware,Altium Limited,Altium Designer,24.0.1 (36)*%
G04 Layer_Color=16711935*
%FSLAX45Y45*%
%MOMM*%
%TF.SameCoordinates,866D2BB3-0181-4888-B1A9-34DB4857F756*%
%TF.FilePolarity,Negative*%
%TF.FileFunction,Soldermask,Bot*%
%TF.Part,Single*%
G01*
G75*
%TA.AperFunction,ComponentPad*%
%ADD11C,1.27000*%
%ADD14R,1.35000X1.35000*%
%ADD15C,1.35000*%
%ADD16C,1.37160*%
%ADD17R,1.35000X1.35000*%
%ADD30R,1.57320X1.57320*%
%ADD31C,1.57320*%
%TA.AperFunction,WasherPad*%
%ADD32C,4.01320*%
%TA.AperFunction,ComponentPad*%
%ADD33O,3.40320X1.80320*%
%ADD34O,1.80320X3.40320*%
D11*
X-381000Y-5461000D02*
D03*
Y-4953000D02*
D03*
Y-4445000D02*
D03*
Y-3937000D02*
D03*
X-2667000D02*
D03*
Y-4445000D02*
D03*
Y-4953000D02*
D03*
Y-5461000D02*
D03*
X-1143000D02*
D03*
Y-4953000D02*
D03*
Y-4445000D02*
D03*
Y-3937000D02*
D03*
X-1905000Y-5461000D02*
D03*
Y-4953000D02*
D03*
Y-4445000D02*
D03*
Y-3937000D02*
D03*
X2667000Y5461000D02*
D03*
Y4953000D02*
D03*
Y4445000D02*
D03*
Y3937000D02*
D03*
X1905000Y5461000D02*
D03*
Y4953000D02*
D03*
Y4445000D02*
D03*
Y3937000D02*
D03*
X1143000Y5461000D02*
D03*
Y4953000D02*
D03*
Y4445000D02*
D03*
Y3937000D02*
D03*
X381000Y5461000D02*
D03*
Y4953000D02*
D03*
Y4445000D02*
D03*
Y3937000D02*
D03*
X-381000Y5461000D02*
D03*
Y4953000D02*
D03*
Y4445000D02*
D03*
Y3937000D02*
D03*
X-1143000Y5461000D02*
D03*
Y4953000D02*
D03*
Y4445000D02*
D03*
Y3937000D02*
D03*
X-1905000Y5461000D02*
D03*
Y4953000D02*
D03*
Y4445000D02*
D03*
Y3937000D02*
D03*
X-2667000Y5461000D02*
D03*
Y4953000D02*
D03*
Y4445000D02*
D03*
Y3937000D02*
D03*
X1905000Y-5461000D02*
D03*
Y-4953000D02*
D03*
Y-4445000D02*
D03*
Y-3937000D02*
D03*
X381000Y-5461000D02*
D03*
Y-4953000D02*
D03*
Y-4445000D02*
D03*
Y-3937000D02*
D03*
X1143000Y-5461000D02*
D03*
Y-4953000D02*
D03*
Y-4445000D02*
D03*
Y-3937000D02*
D03*
X2667000Y-5461000D02*
D03*
Y-4953000D02*
D03*
Y-4445000D02*
D03*
Y-3937000D02*
D03*
D14*
X6858000Y-643800D02*
D03*
X5969000D02*
D03*
D15*
X6858000Y-1743800D02*
D03*
X5969000D02*
D03*
X5228500Y508000D02*
D03*
D16*
X7112000Y1024000D02*
D03*
Y1524000D02*
D03*
D17*
X6328500Y508000D02*
D03*
D30*
X889000Y2540000D02*
D03*
Y-2540000D02*
D03*
X2984499Y-2603499D02*
D03*
X2070099Y2222501D02*
D03*
X5270499Y-2603499D02*
D03*
X6985000Y0D02*
D03*
X4762499Y2222501D02*
D03*
D31*
X635000Y2540000D02*
D03*
X381000D02*
D03*
X127000D02*
D03*
X-127000D02*
D03*
X-381000D02*
D03*
X-635000D02*
D03*
X-889000D02*
D03*
Y-2540000D02*
D03*
X-635000D02*
D03*
X-381000D02*
D03*
X-127000D02*
D03*
X127000D02*
D03*
X381000D02*
D03*
X635000D02*
D03*
X4762499Y-2603499D02*
D03*
X4508499D02*
D03*
X4254499D02*
D03*
X4000499D02*
D03*
X3746499D02*
D03*
X3492499D02*
D03*
X3238499D02*
D03*
X4356099Y2222501D02*
D03*
X4102099D02*
D03*
X3848099D02*
D03*
X3594099D02*
D03*
X3340099D02*
D03*
X3086099D02*
D03*
X2832099D02*
D03*
X2578099D02*
D03*
X2324099D02*
D03*
X6540499Y-2603499D02*
D03*
X6286499D02*
D03*
X6032499D02*
D03*
X5778499D02*
D03*
X5524499D02*
D03*
X6731000Y0D02*
D03*
X6477000D02*
D03*
X6223000D02*
D03*
X5969000D02*
D03*
X5715000D02*
D03*
X6540499Y2222501D02*
D03*
X6286499D02*
D03*
X6032499D02*
D03*
X5778499D02*
D03*
X5524499D02*
D03*
X5270499D02*
D03*
X5016499D02*
D03*
D32*
X-6985000Y6985000D02*
D03*
X6985000D02*
D03*
Y-6985000D02*
D03*
X-6985000D02*
D03*
X-6350000Y-6350000D02*
D03*
X6350000D02*
D03*
Y6350000D02*
D03*
X-6350000D02*
D03*
X-5715000Y5715000D02*
D03*
X5715000D02*
D03*
Y-5715000D02*
D03*
X-5715000D02*
D03*
D33*
X0Y-7366000D02*
D03*
Y-6046000D02*
D03*
Y7366000D02*
D03*
Y6046000D02*
D03*
D34*
X520000Y-6266000D02*
D03*
X-520000Y6266000D02*
D03*
%TF.MD5,0d3d10075fb1b2e9e76f6b56cc78974d*%
M02*
