<svg width="600" height="200" viewbox = "0 0 600 200"  xmlns="http://www.w3.org/2000/svg">
<!--<json>{
  "glyph": "0321,0335,0335,0336,0336,0330,0330,0337,0337,0224,0322,0335,0335,0330,0332,0332,0332,0335,0335,0331,0331,0336,0330,0337,0220,0335,0335,0331,0333,0333,0333,0333,0333,0333,0335,0335,0331,0220,",
  "x0": 300,
  "y0": 100,
  "unit": 38.55432894295315,
  "width": 600,
  "height": 200,
  "style": {
    "color0": "black",
    "fill0": "black",
    "line0": 1,
    "color1": "black",
    "fill1": "black",
    "line1": 10,
    "color2": "red",
    "fill2": "red",
    "line2": 1,
    "color3": "#FF7900",
    "fill3": "#FF7900",
    "line3": 1,
    "color4": "yellow",
    "fill4": "yellow",
    "line4": 1,
    "color5": "green",
    "fill5": "green",
    "line5": 1,
    "color6": "blue",
    "fill6": "blue",
    "line6": 1,
    "color7": "purple",
    "fill7": "purple",
    "line7": 1
  },
  "shapes": [
    "0220:0334,0336,0336,0362,0203,0335,0203,0203,0203,0334,0203,0335,0310,0350,0335,0337,0203,0203,0335,0335,0203,0203,0335,0335,0335,0336,0203,0334,0334,0203,0203,0203,0335,0335,0203,0363,0335,0335,0304,0313,0337,0337,",
    "0221:0336,0341,0350,0335,0342,0335,0335,0342,0335,0335,0342,0335,0335,0342,0335,0304,0337,",
    "0222:0335,0336,0330,0337,0201,0334,0336,0333,0337,0221,",
    "0223:0222,0222,0222,0222,0332,0332,0332,0332,0332,0332,0332,0221,0335,0335,0222,0222,0222,0222,0335,0335,0333,0333,0333,0333,0333,0333,0333,0333,0335,0335,0336,0330,0337,0342,0335,0335,0330,0332,0332,0332,0332,0332,0332,0332,0332,0342,0333,0333,0342,0333,0333,0342,0333,0333,0342,0333,0333,0333,0333,0342,0333,0333,0342,0333,0333,0342,0333,0333,0342,0331,0331,0332,0332,0330,0332,0332,0332,0332,0330,0332,0332,0336,0331,0337,",
    "0224:0336,0332,0332,0337,0222,0222,0222,0222,0332,0332,0332,0332,0332,0332,0332,0335,0335,0332,0222,0222,0222,0222,0335,0335,0336,0330,0337,0342,0333,0333,0342,0333,0333,0342,0333,0333,0342,0333,0333,0342,0333,0333,0342,0333,0333,0342,0333,0333,0342,0335,0335,0333,0333,0333,0333,0333,0333,0333,0336,0330,0337,0201,0201,0336,0336,0330,0341,0335,0335,0337,0336,0330,0337,0337,0337,0330,0336,",
    "0225:0525,",
    "0226:0526,",
    "0227:0527,",
    "0230:0530,",
    "0231:0531,",
    "0232:0532,",
    "0233:0533,",
    "0234:0331,0534,",
    "0235:0535,",
    "0236:0536,",
    "0237:0220,0336,0331,0332,0336,0321,0342,0335,0342,0335,0342,0335,0342,0335,0330,0330,0333,0333,0337,0337,",
    "01220:0333,0200,0336,0330,0332,0336,0331,0337,0220,0336,0331,0333,0333,0337,0337,",
    "01221:0333,0200,0336,0330,0332,0221,0331,0333,0337,",
    "01222:0333,0200,0336,0330,0332,0336,0332,0331,0332,0336,0330,0337,0222,0331,0333,0331,0333,0336,0330,0337,0337,0337,",
    "01223:0333,0200,0336,0330,0332,0331,0336,0330,0336,0336,0223,0337,0337,0331,0333,0333,0337,0337,",
    "01224:0333,0333,0333,0336,0330,0332,0336,0224,0331,0331,0333,0333,0337,0337,0333,0333,",
    "01225:0333,0200,0336,0336,0330,0225,0337,0337,",
    "01226:0333,0200,0336,0336,0330,0226,0337,0337,",
    "01227:0333,0200,0336,0336,0330,0227,0337,0337,",
    "01230:0333,0200,0336,0336,0330,0230,0331,0337,0337,",
    "01231:0333,0200,0336,0336,0330,0231,0331,0337,0337,",
    "01232:0333,0200,0336,0336,0232,0337,0337,",
    "01233:0333,0200,0336,0336,0330,0233,0331,0330,0337,0337,",
    "01234:0333,0200,0336,0336,0330,0330,0330,0234,0331,0331,0333,0333,0331,0331,0333,0333,0337,0337,0333,0333,0333,",
    "01235:0333,0200,0336,0336,0330,0235,0331,0333,0337,0337,",
    "01236:0333,0200,",
    "01237:0333,0200,",
    "0240:0220,0336,0331,0333,0336,0321,0335,0342,0335,0335,0342,0335,0330,0330,0332,0332,0337,0337,",
    "01240:0333,0200,0336,0330,0332,0210,0240,0211,0333,0331,0337,",
    "0241:0220,0336,0321,0343,0332,0350,0335,0336,0342,0334,0334,0342,0335,0304,0337,0333,0337,",
    "01241:0333,0200,0336,0332,0330,0210,0241,0211,0333,0331,0337,",
    "0242:0220,0321,0336,0343,0333,0336,0350,0335,0342,0334,0334,0342,0335,0337,0304,0332,0337,",
    "01242:0333,0200,0336,0330,0332,0210,0242,0211,0333,0331,0337,",
    "0243:0220,0336,0331,0332,0336,0321,0343,0332,0350,0334,0336,0342,0335,0335,0342,0337,0334,0334,0335,0304,0332,0330,0330,0337,0337,0333,",
    "01243:0333,0200,0336,0330,0332,0210,0243,0211,0333,0331,0337,",
    "0244:0220,0336,0331,0333,0336,0321,0343,0333,0350,0336,0335,0342,0334,0334,0342,0335,0337,0304,0333,0330,0330,0337,0337,0332,",
    "01244:0333,0200,0336,0330,0332,0210,0244,0211,0333,0331,0337,",
    "0245:0210,0332,0332,0362,0335,0203,0203,0203,0203,0334,0203,0363,0332,0332,0331,0211,",
    "01245:0333,0200,0336,0330,0332,0336,0245,0337,0333,0331,0337,",
    "0246:0210,0332,0332,0335,0306,0336,0330,0335,0335,0335,0321,0362,0203,0335,0335,0203,0364,0331,0350,0335,0337,0366,0333,0333,0333,0333,0334,0334,0334,0334,0367,0335,0336,0342,0334,0334,0342,0330,0330,0330,0330,0335,0335,0335,0304,0337,0211,",
    "01246:0333,0200,0336,0330,0332,0336,0246,",
    "0247:0330,0332,0336,0332,0336,0221,0333,0333,0333,0222,0333,0333,0333,0223,0333,0333,0333,0225,0333,0331,0331,0331,0332,0332,0332,0332,0332,0332,0332,0332,0332,0332,0332,0332,0333,0333,0226,0331,0331,0331,0333,0333,0333,0333,0333,0333,0333,0333,0333,0333,0333,0333,0333,0330,0333,0330,0330,0333,0330,0331,0332,0332,0332,0332,0332,0332,0332,0332,0332,0332,0332,0332,0227,0333,0333,0333,0230,0333,0331,0331,0331,0331,0332,0332,0332,0330,0332,0332,0332,0332,0332,0332,0333,0333,0231,0333,0333,0333,0232,0331,0333,0330,0333,0333,0233,0333,0333,0333,0234,0330,0330,0332,0330,0332,0332,0337,0337,",
    "01247:0333,0200,0336,0330,0332,0220,0336,0247,0337,0331,0333,0337,"
  ]
}</json>-->    <line x1="319" y1="119" x2="281" y2="119" style="stroke:#000000;stroke-width:10" />
<circle cx="261" cy = "119" r = "19.277164471476574" stroke = "#000000" stroke-width = "10" fill = "none" />
    <line x1="261" y1="119" x2="248" y2="133" style="stroke:#000000;stroke-width:10" />
    <line x1="261" y1="119" x2="248" y2="106" style="stroke:#000000;stroke-width:10" />
    <line x1="261" y1="119" x2="275" y2="106" style="stroke:#000000;stroke-width:10" />
    <line x1="261" y1="119" x2="275" y2="133" style="stroke:#000000;stroke-width:10" />
    <line x1="242" y1="119" x2="204" y2="119" style="stroke:#000000;stroke-width:10" />
<circle cx="184" cy = "119" r = "19.277164471476574" stroke = "#000000" stroke-width = "10" fill = "none" />
    <line x1="184" y1="119" x2="171" y2="133" style="stroke:#000000;stroke-width:10" />
    <line x1="184" y1="119" x2="171" y2="106" style="stroke:#000000;stroke-width:10" />
    <line x1="184" y1="119" x2="198" y2="106" style="stroke:#000000;stroke-width:10" />
    <line x1="184" y1="119" x2="198" y2="133" style="stroke:#000000;stroke-width:10" />
    <line x1="165" y1="119" x2="127" y2="119" style="stroke:#000000;stroke-width:10" />
<circle cx="107" cy = "119" r = "19.277164471476574" stroke = "#000000" stroke-width = "10" fill = "none" />
    <line x1="107" y1="119" x2="94" y2="133" style="stroke:#000000;stroke-width:10" />
    <line x1="107" y1="119" x2="94" y2="106" style="stroke:#000000;stroke-width:10" />
    <line x1="107" y1="119" x2="121" y2="106" style="stroke:#000000;stroke-width:10" />
    <line x1="107" y1="119" x2="121" y2="133" style="stroke:#000000;stroke-width:10" />
    <line x1="88" y1="119" x2="49" y2="119" style="stroke:#000000;stroke-width:10" />
<circle cx="30" cy = "119" r = "19.277164471476574" stroke = "#000000" stroke-width = "10" fill = "none" />
    <line x1="30" y1="119" x2="16" y2="133" style="stroke:#000000;stroke-width:10" />
    <line x1="30" y1="119" x2="16" y2="106" style="stroke:#000000;stroke-width:10" />
    <line x1="30" y1="119" x2="44" y2="106" style="stroke:#000000;stroke-width:10" />
    <line x1="30" y1="119" x2="44" y2="133" style="stroke:#000000;stroke-width:10" />
    <line x1="281" y1="119" x2="319" y2="119" style="stroke:#000000;stroke-width:10" />
<circle cx="339" cy = "119" r = "19.277164471476574" stroke = "#000000" stroke-width = "10" fill = "none" />
    <line x1="339" y1="119" x2="352" y2="106" style="stroke:#000000;stroke-width:10" />
    <line x1="339" y1="119" x2="352" y2="133" style="stroke:#000000;stroke-width:10" />
    <line x1="339" y1="119" x2="325" y2="133" style="stroke:#000000;stroke-width:10" />
    <line x1="339" y1="119" x2="325" y2="106" style="stroke:#000000;stroke-width:10" />
    <line x1="358" y1="119" x2="396" y2="119" style="stroke:#000000;stroke-width:10" />
<circle cx="416" cy = "119" r = "19.277164471476574" stroke = "#000000" stroke-width = "10" fill = "none" />
    <line x1="416" y1="119" x2="429" y2="106" style="stroke:#000000;stroke-width:10" />
    <line x1="416" y1="119" x2="429" y2="133" style="stroke:#000000;stroke-width:10" />
    <line x1="416" y1="119" x2="402" y2="133" style="stroke:#000000;stroke-width:10" />
    <line x1="416" y1="119" x2="402" y2="106" style="stroke:#000000;stroke-width:10" />
    <line x1="435" y1="119" x2="473" y2="119" style="stroke:#000000;stroke-width:10" />
<circle cx="493" cy = "119" r = "19.277164471476574" stroke = "#000000" stroke-width = "10" fill = "none" />
    <line x1="493" y1="119" x2="506" y2="106" style="stroke:#000000;stroke-width:10" />
    <line x1="493" y1="119" x2="506" y2="133" style="stroke:#000000;stroke-width:10" />
    <line x1="493" y1="119" x2="479" y2="133" style="stroke:#000000;stroke-width:10" />
    <line x1="493" y1="119" x2="479" y2="106" style="stroke:#000000;stroke-width:10" />
    <line x1="512" y1="119" x2="551" y2="119" style="stroke:#000000;stroke-width:10" />
<circle cx="570" cy = "119" r = "19.277164471476574" stroke = "#000000" stroke-width = "10" fill = "none" />
    <line x1="570" y1="119" x2="584" y2="106" style="stroke:#000000;stroke-width:10" />
    <line x1="570" y1="119" x2="584" y2="133" style="stroke:#000000;stroke-width:10" />
    <line x1="570" y1="119" x2="556" y2="133" style="stroke:#000000;stroke-width:10" />
    <line x1="570" y1="119" x2="556" y2="106" style="stroke:#000000;stroke-width:10" />
    <line x1="570" y1="139" x2="570" y2="177" style="stroke:#000000;stroke-width:10" />
    <line x1="493" y1="139" x2="493" y2="177" style="stroke:#000000;stroke-width:10" />
    <line x1="416" y1="139" x2="416" y2="177" style="stroke:#000000;stroke-width:10" />
    <line x1="339" y1="139" x2="339" y2="177" style="stroke:#000000;stroke-width:10" />
    <line x1="261" y1="139" x2="261" y2="177" style="stroke:#000000;stroke-width:10" />
    <line x1="184" y1="139" x2="184" y2="177" style="stroke:#000000;stroke-width:10" />
    <line x1="107" y1="139" x2="107" y2="177" style="stroke:#000000;stroke-width:10" />
    <line x1="30" y1="139" x2="30" y2="177" style="stroke:#000000;stroke-width:10" />
    <line x1="300" y1="119" x2="300" y2="81" style="stroke:#000000;stroke-width:10" />
    <line x1="300" y1="81" x2="300" y2="42" style="stroke:#000000;stroke-width:10" />
<circle cx="300" cy = "33" r = "9.638582235738287" stroke = "#000000" stroke-width = "10" fill = "none" />
	<path d = "M184 23 L194 23 L194 33 L194 42 L194 52 L204 52 L194 61 L184 71 L175 61 L165 52 L175 52 L175 42 L175 33 L175 23 L184 23 Z" stroke = "#ff0000" stroke-width = "1" fill = "#ff0000" />	<path d = "M416 23 L425 23 L425 33 L425 42 L425 52 L435 52 L425 61 L416 71 L406 61 L396 52 L406 52 L406 42 L406 33 L406 23 L416 23 Z" stroke = "#ff0000" stroke-width = "1" fill = "#ff0000" /></svg>