<svg width="600" height="400" viewbox = "0 0 600 400"  xmlns="http://www.w3.org/2000/svg">
<!--<json>{
  "glyph": "0327,0332,0332,0332,0332,0332,0332,0332,0335,0222,0222,0222,0222,0300,0327,0300,0332,0332,0332,0332,0331,0336,0333,0330,0327,0335,0336,0330,0337,0336,0333,0337,0336,0333,0332,0332,0337,0336,0331,0331,0332,0337,0222,0223,0223,",
  "x0": 1013.2791765275003,
  "y0": 32.10261544999992,
  "unit": 285.3116706110003,
  "width": 600,
  "height": 400,
  "style": {
    "color0": "black",
    "fill0": "black",
    "line0": 1,
    "color1": "black",
    "fill1": "black",
    "line1": 10,
    "color2": "red",
    "fill2": "red",
    "line2": 1,
    "color3": "#FF7900",
    "fill3": "#FF7900",
    "line3": 1,
    "color4": "yellow",
    "fill4": "yellow",
    "line4": 1,
    "color5": "green",
    "fill5": "green",
    "line5": 1,
    "color6": "blue",
    "fill6": "blue",
    "line6": 1,
    "color7": "purple",
    "fill7": "purple",
    "line7": 20
  },
  "shapes": [
    "0220:0336,0366,0337,0330,0335,0335,0332,0336,0367,0335,0335,0366,0337,0330,0332,0335,0335,0336,0367,0335,0335,0337,",
    "0221:0331,0331,0337,0314,0336,0330,0337,0313,0336,0220,",
    "0222:0221,0221,0221,",
    "0223:0222,0222,0222,",
    "0224:0336,0332,0332,0337,0222,0222,0222,0222,0332,0332,0332,0332,0332,0332,0332,0335,0335,0332,0222,0222,0222,0222,0335,0335,0336,0330,0337,0342,0333,0333,0342,0333,0333,0342,0333,0333,0342,0333,0333,0342,0333,0333,0342,0333,0333,0342,0333,0333,0342,0335,0335,0333,0333,0333,0333,0333,0333,0333,0336,0330,0337,0201,0201,0336,0336,0330,0341,0335,0335,0337,0336,0330,0337,0337,0337,0330,0336,",
    "0225:0525,",
    "0226:0526,",
    "0227:0527,",
    "0230:0530,",
    "0231:0531,",
    "0232:0532,",
    "0233:0533,",
    "0234:0331,0534,",
    "0235:0535,",
    "0236:0536,",
    "0237:0220,0336,0331,0332,0336,0321,0342,0335,0342,0335,0342,0335,0342,0335,0330,0330,0333,0333,0337,0337,",
    "01220:0333,0200,0336,0330,0332,0336,0331,0337,0220,0331,0331,0331,0333,0336,0330,0337,0337,",
    "01221:0333,0200,0336,0330,0332,0331,0336,0221,0331,0331,0337,0314,0336,0313,0337,0333,0330,0336,0333,0313,0337,0337,",
    "01222:0333,0200,0336,0330,0332,0336,0332,0331,0332,0336,0330,0337,0222,0331,0333,0331,0333,0336,0330,0337,0337,0337,",
    "01223:0333,0200,0336,0330,0332,0331,0336,0330,0336,0336,0223,0337,0337,0331,0333,0333,0337,0337,",
    "01224:0333,0333,0333,0336,0330,0332,0336,0224,0331,0331,0333,0333,0337,0337,0333,0333,",
    "01225:0333,0200,0336,0336,0330,0225,0337,0337,",
    "01226:0333,0200,0336,0336,0330,0226,0337,0337,",
    "01227:0333,0200,0336,0336,0330,0227,0337,0337,",
    "01230:0333,0200,0336,0336,0330,0230,0331,0337,0337,",
    "01231:0333,0200,0336,0336,0330,0231,0331,0337,0337,",
    "01232:0333,0200,0336,0336,0232,0337,0337,",
    "01233:0333,0200,0336,0336,0330,0233,0331,0330,0337,0337,",
    "01234:0333,0200,0336,0336,0330,0330,0330,0234,0331,0331,0333,0333,0331,0331,0333,0333,0337,0337,0333,0333,0333,",
    "01235:0333,0200,0336,0336,0330,0235,0331,0333,0337,0337,",
    "01236:0333,0200,",
    "01237:0333,0200,",
    "0240:0220,0336,0331,0333,0336,0321,0335,0342,0335,0335,0342,0335,0330,0330,0332,0332,0337,0337,",
    "01240:0333,0200,0336,0330,0332,0210,0240,0211,0333,0331,0337,",
    "0241:0220,0336,0321,0343,0332,0350,0335,0336,0342,0334,0334,0342,0335,0304,0337,0333,0337,",
    "01241:0333,0200,0336,0332,0330,0210,0241,0211,0333,0331,0337,",
    "0242:0220,0321,0336,0343,0333,0336,0350,0335,0342,0334,0334,0342,0335,0337,0304,0332,0337,",
    "01242:0333,0200,0336,0330,0332,0210,0242,0211,0333,0331,0337,",
    "0243:0220,0336,0331,0332,0336,0321,0343,0332,0350,0334,0336,0342,0335,0335,0342,0337,0334,0334,0335,0304,0332,0330,0330,0337,0337,0333,",
    "01243:0333,0200,0336,0330,0332,0210,0243,0211,0333,0331,0337,",
    "0244:0220,0336,0331,0333,0336,0321,0343,0333,0350,0336,0335,0342,0334,0334,0342,0335,0337,0304,0333,0330,0330,0337,0337,0332,",
    "01244:0333,0200,0336,0330,0332,0210,0244,0211,0333,0331,0337,",
    "0245:0210,0332,0332,0362,0335,0203,0203,0203,0203,0334,0203,0363,0332,0332,0331,0211,",
    "01245:0333,0200,0336,0330,0332,0336,0245,0337,0333,0331,0337,",
    "0246:0210,0332,0332,0335,0306,0336,0330,0335,0335,0335,0321,0362,0203,0335,0335,0203,0364,0331,0350,0335,0337,0366,0333,0333,0333,0333,0334,0334,0334,0334,0367,0335,0336,0342,0334,0334,0342,0330,0330,0330,0330,0335,0335,0335,0304,0337,0211,",
    "01246:0333,0200,0336,0330,0332,0336,0246,",
    "0247:0330,0332,0336,0332,0336,0221,0333,0333,0333,0222,0333,0333,0333,0223,0333,0333,0333,0225,0333,0331,0331,0331,0332,0332,0332,0332,0332,0332,0332,0332,0332,0332,0332,0332,0333,0333,0226,0331,0331,0331,0333,0333,0333,0333,0333,0333,0333,0333,0333,0333,0333,0333,0333,0330,0333,0330,0330,0333,0330,0331,0332,0332,0332,0332,0332,0332,0332,0332,0332,0332,0332,0332,0227,0333,0333,0333,0230,0333,0331,0331,0331,0331,0332,0332,0332,0330,0332,0332,0332,0332,0332,0332,0333,0333,0231,0333,0333,0333,0232,0331,0333,0330,0333,0333,0233,0333,0333,0333,0234,0330,0330,0332,0330,0332,0332,0337,0337,",
    "01247:0333,0200,0336,0330,0332,0220,0336,0247,0337,0331,0333,0337,"
  ]
}</json>--><path    d = "M-1364,32 C-1222,32 -1222,317 -1079,317" fill = "none" stroke-width = "20" stroke = "#800080" /><path    d = "M-1079,317 C-936,317 -936,32 -794,32" fill = "none" stroke-width = "20" stroke = "#800080" /><path    d = "M-1174,32 C-1031,32 -1031,317 -889,317" fill = "none" stroke-width = "20" stroke = "#800080" /><path    d = "M-889,317 C-746,317 -746,32 -603,32" fill = "none" stroke-width = "20" stroke = "#800080" /><path    d = "M-984,32 C-841,32 -841,317 -699,317" fill = "none" stroke-width = "20" stroke = "#800080" /><path    d = "M-699,317 C-556,317 -556,32 -413,32" fill = "none" stroke-width = "20" stroke = "#800080" /><path    d = "M-794,32 C-651,32 -651,317 -508,317" fill = "none" stroke-width = "20" stroke = "#800080" /><path    d = "M-508,317 C-366,317 -366,32 -223,32" fill = "none" stroke-width = "20" stroke = "#800080" /><path    d = "M-603,32 C-461,32 -461,317 -318,317" fill = "none" stroke-width = "20" stroke = "#800080" /><path    d = "M-318,317 C-176,317 -176,32 -33,32" fill = "none" stroke-width = "20" stroke = "#800080" /><path    d = "M-413,32 C-271,32 -271,317 -128,317" fill = "none" stroke-width = "20" stroke = "#800080" /><path    d = "M-128,317 C15,317 15,32 157,32" fill = "none" stroke-width = "20" stroke = "#800080" /><path    d = "M-223,32 C-80,32 -80,317 62,317" fill = "none" stroke-width = "20" stroke = "#800080" /><path    d = "M62,317 C205,317 205,32 348,32" fill = "none" stroke-width = "20" stroke = "#800080" /><path    d = "M-33,32 C110,32 110,317 252,317" fill = "none" stroke-width = "20" stroke = "#800080" /><path    d = "M252,317 C395,317 395,32 538,32" fill = "none" stroke-width = "20" stroke = "#800080" /><path    d = "M157,32 C300,32 300,317 443,317" fill = "none" stroke-width = "20" stroke = "#800080" /><path    d = "M443,317 C585,317 585,32 728,32" fill = "none" stroke-width = "20" stroke = "#800080" /><path    d = "M348,32 C490,32 490,317 633,317" fill = "none" stroke-width = "20" stroke = "#800080" /><path    d = "M633,317 C776,317 776,32 918,32" fill = "none" stroke-width = "20" stroke = "#800080" /><path    d = "M538,32 C680,32 680,317 823,317" fill = "none" stroke-width = "20" stroke = "#800080" /><path    d = "M823,317 C966,317 966,32 1108,32" fill = "none" stroke-width = "20" stroke = "#800080" /><path    d = "M728,32 C871,32 871,317 1013,317" fill = "none" stroke-width = "20" stroke = "#800080" /><path    d = "M1013,317 C1156,317 1156,32 1299,32" fill = "none" stroke-width = "20" stroke = "#800080" /><path    d = "M-247,103 C-176,103 -176,246 -104,246" fill = "none" stroke-width = "20" stroke = "#800080" /><path    d = "M-104,246 C-33,246 -33,103 38,103" fill = "none" stroke-width = "20" stroke = "#800080" /><path    d = "M-152,103 C-80,103 -80,246 -9,246" fill = "none" stroke-width = "20" stroke = "#800080" /><path    d = "M-9,246 C62,246 62,103 134,103" fill = "none" stroke-width = "20" stroke = "#800080" /><path    d = "M-57,103 C15,103 15,246 86,246" fill = "none" stroke-width = "20" stroke = "#800080" /><path    d = "M86,246 C157,246 157,103 229,103" fill = "none" stroke-width = "20" stroke = "#800080" /><path    d = "M38,103 C110,103 110,246 181,246" fill = "none" stroke-width = "20" stroke = "#800080" /><path    d = "M181,246 C252,246 252,103 324,103" fill = "none" stroke-width = "20" stroke = "#800080" /><path    d = "M134,103 C205,103 205,246 276,246" fill = "none" stroke-width = "20" stroke = "#800080" /><path    d = "M276,246 C348,246 348,103 419,103" fill = "none" stroke-width = "20" stroke = "#800080" /><path    d = "M229,103 C300,103 300,246 371,246" fill = "none" stroke-width = "20" stroke = "#800080" /><path    d = "M371,246 C443,246 443,103 514,103" fill = "none" stroke-width = "20" stroke = "#800080" /><path    d = "M324,103 C395,103 395,246 466,246" fill = "none" stroke-width = "20" stroke = "#800080" /><path    d = "M466,246 C538,246 538,103 609,103" fill = "none" stroke-width = "20" stroke = "#800080" /><path    d = "M419,103 C490,103 490,246 562,246" fill = "none" stroke-width = "20" stroke = "#800080" /><path    d = "M562,246 C633,246 633,103 704,103" fill = "none" stroke-width = "20" stroke = "#800080" /><path    d = "M514,103 C585,103 585,246 657,246" fill = "none" stroke-width = "20" stroke = "#800080" /><path    d = "M657,246 C728,246 728,103 799,103" fill = "none" stroke-width = "20" stroke = "#800080" /><path    d = "M609,103 C680,103 680,246 752,246" fill = "none" stroke-width = "20" stroke = "#800080" /><path    d = "M752,246 C823,246 823,103 894,103" fill = "none" stroke-width = "20" stroke = "#800080" /><path    d = "M704,103 C776,103 776,246 847,246" fill = "none" stroke-width = "20" stroke = "#800080" /><path    d = "M847,246 C918,246 918,103 990,103" fill = "none" stroke-width = "20" stroke = "#800080" /><path    d = "M799,103 C871,103 871,246 942,246" fill = "none" stroke-width = "20" stroke = "#800080" /><path    d = "M942,246 C1013,246 1013,103 1085,103" fill = "none" stroke-width = "20" stroke = "#800080" /><path    d = "M894,103 C966,103 966,246 1037,246" fill = "none" stroke-width = "20" stroke = "#800080" /><path    d = "M1037,246 C1108,246 1108,103 1180,103" fill = "none" stroke-width = "20" stroke = "#800080" /><path    d = "M990,103 C1061,103 1061,246 1132,246" fill = "none" stroke-width = "20" stroke = "#800080" /><path    d = "M1132,246 C1203,246 1203,103 1275,103" fill = "none" stroke-width = "20" stroke = "#800080" /><path    d = "M1085,103 C1156,103 1156,246 1227,246" fill = "none" stroke-width = "20" stroke = "#800080" /><path    d = "M1227,246 C1299,246 1299,103 1370,103" fill = "none" stroke-width = "20" stroke = "#800080" /><path    d = "M1180,103 C1251,103 1251,246 1322,246" fill = "none" stroke-width = "20" stroke = "#800080" /><path    d = "M1322,246 C1394,246 1394,103 1465,103" fill = "none" stroke-width = "20" stroke = "#800080" /><path    d = "M1275,103 C1346,103 1346,246 1417,246" fill = "none" stroke-width = "20" stroke = "#800080" /><path    d = "M1417,246 C1489,246 1489,103 1560,103" fill = "none" stroke-width = "20" stroke = "#800080" /><path    d = "M1370,103 C1441,103 1441,246 1513,246" fill = "none" stroke-width = "20" stroke = "#800080" /><path    d = "M1513,246 C1584,246 1584,103 1655,103" fill = "none" stroke-width = "20" stroke = "#800080" /><path    d = "M1465,103 C1536,103 1536,246 1608,246" fill = "none" stroke-width = "20" stroke = "#800080" /><path    d = "M1608,246 C1679,246 1679,103 1750,103" fill = "none" stroke-width = "20" stroke = "#800080" /><path    d = "M1560,103 C1631,103 1631,246 1703,246" fill = "none" stroke-width = "20" stroke = "#800080" /><path    d = "M1703,246 C1774,246 1774,103 1845,103" fill = "none" stroke-width = "20" stroke = "#800080" /><path    d = "M1655,103 C1727,103 1727,246 1798,246" fill = "none" stroke-width = "20" stroke = "#800080" /><path    d = "M1798,246 C1869,246 1869,103 1941,103" fill = "none" stroke-width = "20" stroke = "#800080" /></svg>